<ttFont>
    <TTGlyph name="A" xMin="-250" yMin="0" xMax="793" yMax="625">
      <contour>
        <pt x="392" y="0" on="1"/>
        <pt x="192" y="0" on="1"/>
        <pt x="455" y="625" on="1"/>
        <pt x="749" y="625" on="1"/>
        <pt x="793" y="0" on="1"/>
        <pt x="592" y="0" on="1"/>
        <pt x="588" y="99" on="1"/>
        <pt x="431" y="99" on="1"/>
      </contour>
      <contour>
        <pt x="573" y="258" on="1"/>
        <pt x="573" y="433" on="1"/>
        <pt x="563" y="433" on="1"/>
        <pt x="493" y="258" on="1"/>
      </contour>
      <contour>
        <pt x="160" y="4" on="1"/>
        <pt x="-250" y="48" on="1"/>
        <pt x="179" y="48" on="1"/>
      </contour>
      <contour>
        <pt x="201" y="101" on="1"/>
        <pt x="-209" y="145" on="1"/>
        <pt x="220" y="145" on="1"/>
      </contour>
      <contour>
        <pt x="242" y="197" on="1"/>
        <pt x="-168" y="241" on="1"/>
        <pt x="260" y="241" on="1"/>
      </contour>
      <contour>
        <pt x="282" y="293" on="1"/>
        <pt x="-127" y="337" on="1"/>
        <pt x="301" y="337" on="1"/>
      </contour>
      <contour>
        <pt x="323" y="389" on="1"/>
        <pt x="-86" y="433" on="1"/>
        <pt x="341" y="433" on="1"/>
      </contour>
      <contour>
        <pt x="404" y="582" on="1"/>
        <pt x="-4" y="625" on="1"/>
        <pt x="422" y="625" on="1"/>
      </contour>
      <contour>
        <pt x="363" y="486" on="1"/>
        <pt x="-45" y="529" on="1"/>
        <pt x="381" y="529" on="1"/>
      </contour>
      <contour>
        <pt x="404" y="582" on="1"/>
        <pt x="422" y="625" on="1"/>
        <pt x="-4" y="625" on="1"/>
      </contour>
    </TTGlyph>
    <TTGlyph name="AE" xMin="-250" yMin="0" xMax="1016" yMax="625">
      <contour>
        <pt x="392" y="0" on="1"/>
        <pt x="192" y="0" on="1"/>
        <pt x="455" y="625" on="1"/>
        <pt x="1016" y="625" on="1"/>
        <pt x="964" y="465" on="1"/>
        <pt x="760" y="465" on="1"/>
        <pt x="766" y="381" on="1"/>
        <pt x="935" y="381" on="1"/>
        <pt x="909" y="236" on="1"/>
        <pt x="776" y="236" on="1"/>
        <pt x="782" y="160" on="1"/>
        <pt x="982" y="160" on="1"/>
        <pt x="954" y="0" on="1"/>
        <pt x="592" y="0" on="1"/>
        <pt x="588" y="99" on="1"/>
        <pt x="431" y="99" on="1"/>
      </contour>
      <contour>
        <pt x="160" y="4" on="1"/>
        <pt x="-250" y="48" on="1"/>
        <pt x="179" y="48" on="1"/>
      </contour>
      <contour>
        <pt x="201" y="101" on="1"/>
        <pt x="-209" y="145" on="1"/>
        <pt x="220" y="145" on="1"/>
      </contour>
      <contour>
        <pt x="242" y="197" on="1"/>
        <pt x="-168" y="241" on="1"/>
        <pt x="260" y="241" on="1"/>
      </contour>
      <contour>
        <pt x="282" y="293" on="1"/>
        <pt x="-127" y="337" on="1"/>
        <pt x="301" y="337" on="1"/>
      </contour>
      <contour>
        <pt x="323" y="389" on="1"/>
        <pt x="-86" y="433" on="1"/>
        <pt x="341" y="433" on="1"/>
      </contour>
      <contour>
        <pt x="404" y="582" on="1"/>
        <pt x="-4" y="625" on="1"/>
        <pt x="422" y="625" on="1"/>
      </contour>
      <contour>
        <pt x="363" y="486" on="1"/>
        <pt x="-45" y="529" on="1"/>
        <pt x="381" y="529" on="1"/>
      </contour>
      <contour>
        <pt x="573" y="258" on="1"/>
        <pt x="573" y="433" on="1"/>
        <pt x="563" y="433" on="1"/>
        <pt x="493" y="258" on="1"/>
      </contour>
    </TTGlyph>
    <TTGlyph name="Aacute" xMin="-250" yMin="0" xMax="793" yMax="879">
      <contour>
        <pt x="392" y="0" on="1"/>
        <pt x="192" y="0" on="1"/>
        <pt x="455" y="625" on="1"/>
        <pt x="749" y="625" on="1"/>
        <pt x="793" y="0" on="1"/>
        <pt x="592" y="0" on="1"/>
        <pt x="588" y="99" on="1"/>
        <pt x="431" y="99" on="1"/>
      </contour>
      <contour>
        <pt x="573" y="258" on="1"/>
        <pt x="573" y="433" on="1"/>
        <pt x="563" y="433" on="1"/>
        <pt x="493" y="258" on="1"/>
      </contour>
      <contour>
        <pt x="160" y="4" on="1"/>
        <pt x="-250" y="48" on="1"/>
        <pt x="179" y="48" on="1"/>
      </contour>
      <contour>
        <pt x="201" y="101" on="1"/>
        <pt x="-209" y="145" on="1"/>
        <pt x="220" y="145" on="1"/>
      </contour>
      <contour>
        <pt x="242" y="197" on="1"/>
        <pt x="-168" y="241" on="1"/>
        <pt x="260" y="241" on="1"/>
      </contour>
      <contour>
        <pt x="282" y="293" on="1"/>
        <pt x="-127" y="337" on="1"/>
        <pt x="301" y="337" on="1"/>
      </contour>
      <contour>
        <pt x="323" y="389" on="1"/>
        <pt x="-86" y="433" on="1"/>
        <pt x="341" y="433" on="1"/>
      </contour>
      <contour>
        <pt x="404" y="582" on="1"/>
        <pt x="-4" y="625" on="1"/>
        <pt x="422" y="625" on="1"/>
      </contour>
      <contour>
        <pt x="363" y="486" on="1"/>
        <pt x="-45" y="529" on="1"/>
        <pt x="381" y="529" on="1"/>
      </contour>
      <contour>
        <pt x="404" y="582" on="1"/>
        <pt x="422" y="625" on="1"/>
        <pt x="-4" y="625" on="1"/>
      </contour>
      <contour>
        <pt x="681" y="875" on="1"/>
        <pt x="687" y="879" on="0"/>
        <pt x="701" y="879" on="0"/>
        <pt x="710" y="868" on="1"/>
        <pt x="773" y="794" on="1"/>
        <pt x="782" y="784" on="0"/>
        <pt x="782" y="771" on="0"/>
        <pt x="777" y="764" on="0"/>
        <pt x="733" y="726" on="1"/>
        <pt x="723" y="717" on="0"/>
        <pt x="707" y="714" on="1"/>
        <pt x="533" y="679" on="1"/>
        <pt x="492" y="736" on="1"/>
      </contour>
      <contour>
        <pt x="519" y="794" on="1"/>
        <pt x="159" y="833" on="1"/>
        <pt x="572" y="833" on="1"/>
      </contour>
      <contour>
        <pt x="408" y="713" on="1"/>
        <pt x="48" y="752" on="1"/>
        <pt x="461" y="752" on="1"/>
      </contour>
    </TTGlyph>
    <TTGlyph name="Acircumflex" xMin="-250" yMin="0" xMax="793" yMax="880">
      <contour>
        <pt x="392" y="0" on="1"/>
        <pt x="192" y="0" on="1"/>
        <pt x="455" y="625" on="1"/>
        <pt x="749" y="625" on="1"/>
        <pt x="793" y="0" on="1"/>
        <pt x="592" y="0" on="1"/>
        <pt x="588" y="99" on="1"/>
        <pt x="431" y="99" on="1"/>
      </contour>
      <contour>
        <pt x="573" y="258" on="1"/>
        <pt x="573" y="433" on="1"/>
        <pt x="563" y="433" on="1"/>
        <pt x="493" y="258" on="1"/>
      </contour>
      <contour>
        <pt x="160" y="4" on="1"/>
        <pt x="-250" y="48" on="1"/>
        <pt x="179" y="48" on="1"/>
      </contour>
      <contour>
        <pt x="201" y="101" on="1"/>
        <pt x="-209" y="145" on="1"/>
        <pt x="220" y="145" on="1"/>
      </contour>
      <contour>
        <pt x="242" y="197" on="1"/>
        <pt x="-168" y="241" on="1"/>
        <pt x="260" y="241" on="1"/>
      </contour>
      <contour>
        <pt x="282" y="293" on="1"/>
        <pt x="-127" y="337" on="1"/>
        <pt x="301" y="337" on="1"/>
      </contour>
      <contour>
        <pt x="323" y="389" on="1"/>
        <pt x="-86" y="433" on="1"/>
        <pt x="341" y="433" on="1"/>
      </contour>
      <contour>
        <pt x="404" y="582" on="1"/>
        <pt x="-4" y="625" on="1"/>
        <pt x="422" y="625" on="1"/>
      </contour>
      <contour>
        <pt x="363" y="486" on="1"/>
        <pt x="-45" y="529" on="1"/>
        <pt x="381" y="529" on="1"/>
      </contour>
      <contour>
        <pt x="404" y="582" on="1"/>
        <pt x="422" y="625" on="1"/>
        <pt x="-4" y="625" on="1"/>
      </contour>
      <contour>
        <pt x="621" y="880" on="1"/>
        <pt x="666" y="880" on="1"/>
        <pt x="674" y="880" on="0"/>
        <pt x="679" y="871" on="1"/>
        <pt x="762" y="726" on="1"/>
        <pt x="696" y="677" on="1"/>
        <pt x="618" y="740" on="1"/>
        <pt x="519" y="677" on="1"/>
        <pt x="471" y="726" on="1"/>
        <pt x="603" y="871" on="1"/>
        <pt x="610" y="880" on="0"/>
      </contour>
      <contour>
        <pt x="492" y="794" on="1"/>
        <pt x="169" y="833" on="1"/>
        <pt x="527" y="833" on="1"/>
      </contour>
      <contour>
        <pt x="418" y="713" on="1"/>
        <pt x="88" y="752" on="1"/>
        <pt x="454" y="752" on="1"/>
      </contour>
    </TTGlyph>
    <TTGlyph name="Adieresis" xMin="-250" yMin="0" xMax="793" yMax="848">
      <contour>
        <pt x="392" y="0" on="1"/>
        <pt x="192" y="0" on="1"/>
        <pt x="455" y="625" on="1"/>
        <pt x="749" y="625" on="1"/>
        <pt x="793" y="0" on="1"/>
        <pt x="592" y="0" on="1"/>
        <pt x="588" y="99" on="1"/>
        <pt x="431" y="99" on="1"/>
      </contour>
      <contour>
        <pt x="573" y="258" on="1"/>
        <pt x="573" y="433" on="1"/>
        <pt x="563" y="433" on="1"/>
        <pt x="493" y="258" on="1"/>
      </contour>
      <contour>
        <pt x="160" y="4" on="1"/>
        <pt x="-250" y="48" on="1"/>
        <pt x="179" y="48" on="1"/>
      </contour>
      <contour>
        <pt x="201" y="101" on="1"/>
        <pt x="-209" y="145" on="1"/>
        <pt x="220" y="145" on="1"/>
      </contour>
      <contour>
        <pt x="242" y="197" on="1"/>
        <pt x="-168" y="241" on="1"/>
        <pt x="260" y="241" on="1"/>
      </contour>
      <contour>
        <pt x="282" y="293" on="1"/>
        <pt x="-127" y="337" on="1"/>
        <pt x="301" y="337" on="1"/>
      </contour>
      <contour>
        <pt x="323" y="389" on="1"/>
        <pt x="-86" y="433" on="1"/>
        <pt x="341" y="433" on="1"/>
      </contour>
      <contour>
        <pt x="404" y="582" on="1"/>
        <pt x="-4" y="625" on="1"/>
        <pt x="422" y="625" on="1"/>
      </contour>
      <contour>
        <pt x="363" y="486" on="1"/>
        <pt x="-45" y="529" on="1"/>
        <pt x="381" y="529" on="1"/>
      </contour>
      <contour>
        <pt x="404" y="582" on="1"/>
        <pt x="422" y="625" on="1"/>
        <pt x="-4" y="625" on="1"/>
      </contour>
      <contour>
        <pt x="636" y="799" on="0"/>
        <pt x="677" y="848" on="0"/>
        <pt x="762" y="848" on="0"/>
        <pt x="791" y="826" on="0"/>
        <pt x="791" y="800" on="1"/>
        <pt x="791" y="741" on="0"/>
        <pt x="750" y="692" on="0"/>
        <pt x="665" y="692" on="0"/>
        <pt x="636" y="714" on="0"/>
        <pt x="636" y="740" on="1"/>
      </contour>
      <contour>
        <pt x="428" y="799" on="0"/>
        <pt x="469" y="848" on="0"/>
        <pt x="554" y="848" on="0"/>
        <pt x="583" y="826" on="0"/>
        <pt x="583" y="800" on="1"/>
        <pt x="583" y="741" on="0"/>
        <pt x="541" y="692" on="0"/>
        <pt x="457" y="692" on="0"/>
        <pt x="428" y="714" on="0"/>
        <pt x="428" y="740" on="1"/>
      </contour>
      <contour>
        <pt x="415" y="833" on="1"/>
        <pt x="406" y="816" on="0"/>
        <pt x="401" y="787" on="1"/>
        <pt x="99" y="833" on="1"/>
      </contour>
      <contour>
        <pt x="398" y="740" on="1"/>
        <pt x="398" y="722" on="0"/>
        <pt x="401" y="708" on="1"/>
        <pt x="99" y="754" on="1"/>
        <pt x="398" y="754" on="1"/>
      </contour>
    </TTGlyph>
    <TTGlyph name="Agrave" xMin="-250" yMin="0" xMax="793" yMax="879">
      <contour>
        <pt x="392" y="0" on="1"/>
        <pt x="192" y="0" on="1"/>
        <pt x="455" y="625" on="1"/>
        <pt x="749" y="625" on="1"/>
        <pt x="793" y="0" on="1"/>
        <pt x="592" y="0" on="1"/>
        <pt x="588" y="99" on="1"/>
        <pt x="431" y="99" on="1"/>
      </contour>
      <contour>
        <pt x="573" y="258" on="1"/>
        <pt x="573" y="433" on="1"/>
        <pt x="563" y="433" on="1"/>
        <pt x="493" y="258" on="1"/>
      </contour>
      <contour>
        <pt x="160" y="4" on="1"/>
        <pt x="-250" y="48" on="1"/>
        <pt x="179" y="48" on="1"/>
      </contour>
      <contour>
        <pt x="201" y="101" on="1"/>
        <pt x="-209" y="145" on="1"/>
        <pt x="220" y="145" on="1"/>
      </contour>
      <contour>
        <pt x="242" y="197" on="1"/>
        <pt x="-168" y="241" on="1"/>
        <pt x="260" y="241" on="1"/>
      </contour>
      <contour>
        <pt x="282" y="293" on="1"/>
        <pt x="-127" y="337" on="1"/>
        <pt x="301" y="337" on="1"/>
      </contour>
      <contour>
        <pt x="323" y="389" on="1"/>
        <pt x="-86" y="433" on="1"/>
        <pt x="341" y="433" on="1"/>
      </contour>
      <contour>
        <pt x="404" y="582" on="1"/>
        <pt x="-4" y="625" on="1"/>
        <pt x="422" y="625" on="1"/>
      </contour>
      <contour>
        <pt x="363" y="486" on="1"/>
        <pt x="-45" y="529" on="1"/>
        <pt x="381" y="529" on="1"/>
      </contour>
      <contour>
        <pt x="404" y="582" on="1"/>
        <pt x="422" y="625" on="1"/>
        <pt x="-4" y="625" on="1"/>
      </contour>
      <contour>
        <pt x="485" y="765" on="1"/>
        <pt x="481" y="769" on="0"/>
        <pt x="481" y="783" on="0"/>
        <pt x="490" y="794" on="1"/>
        <pt x="553" y="868" on="1"/>
        <pt x="562" y="879" on="0"/>
        <pt x="576" y="879" on="0"/>
        <pt x="582" y="875" on="1"/>
        <pt x="771" y="736" on="1"/>
        <pt x="730" y="679" on="1"/>
        <pt x="556" y="714" on="1"/>
        <pt x="540" y="717" on="0"/>
        <pt x="530" y="726" on="1"/>
      </contour>
      <contour>
        <pt x="455" y="794" on="1"/>
        <pt x="60" y="833" on="1"/>
        <pt x="484" y="833" on="1"/>
        <pt x="481" y="829" on="0"/>
        <pt x="474" y="822" on="1"/>
        <pt x="461" y="807" on="0"/>
      </contour>
      <contour>
        <pt x="498" y="713" on="1"/>
        <pt x="90" y="752" on="1"/>
        <pt x="457" y="752" on="1"/>
        <pt x="463" y="743" on="0"/>
      </contour>
    </TTGlyph>
    <TTGlyph name="Aring" xMin="-250" yMin="0" xMax="793" yMax="898">
      <contour>
        <pt x="392" y="0" on="1"/>
        <pt x="192" y="0" on="1"/>
        <pt x="455" y="625" on="1"/>
        <pt x="749" y="625" on="1"/>
        <pt x="793" y="0" on="1"/>
        <pt x="592" y="0" on="1"/>
        <pt x="588" y="99" on="1"/>
        <pt x="431" y="99" on="1"/>
      </contour>
      <contour>
        <pt x="573" y="258" on="1"/>
        <pt x="573" y="433" on="1"/>
        <pt x="563" y="433" on="1"/>
        <pt x="493" y="258" on="1"/>
      </contour>
      <contour>
        <pt x="160" y="4" on="1"/>
        <pt x="-250" y="48" on="1"/>
        <pt x="179" y="48" on="1"/>
      </contour>
      <contour>
        <pt x="201" y="101" on="1"/>
        <pt x="-209" y="145" on="1"/>
        <pt x="220" y="145" on="1"/>
      </contour>
      <contour>
        <pt x="242" y="197" on="1"/>
        <pt x="-168" y="241" on="1"/>
        <pt x="260" y="241" on="1"/>
      </contour>
      <contour>
        <pt x="282" y="293" on="1"/>
        <pt x="-127" y="337" on="1"/>
        <pt x="301" y="337" on="1"/>
      </contour>
      <contour>
        <pt x="323" y="389" on="1"/>
        <pt x="-86" y="433" on="1"/>
        <pt x="341" y="433" on="1"/>
      </contour>
      <contour>
        <pt x="404" y="582" on="1"/>
        <pt x="-4" y="625" on="1"/>
        <pt x="422" y="625" on="1"/>
      </contour>
      <contour>
        <pt x="363" y="486" on="1"/>
        <pt x="-45" y="529" on="1"/>
        <pt x="381" y="529" on="1"/>
      </contour>
      <contour>
        <pt x="404" y="582" on="1"/>
        <pt x="422" y="625" on="1"/>
        <pt x="-4" y="625" on="1"/>
      </contour>
      <contour>
        <pt x="616" y="736" on="1"/>
        <pt x="643" y="736" on="0"/>
        <pt x="658" y="750" on="0"/>
        <pt x="660" y="762" on="1"/>
        <pt x="672" y="829" on="1"/>
        <pt x="635" y="829" on="1"/>
        <pt x="606" y="829" on="0"/>
        <pt x="590" y="815" on="0"/>
        <pt x="588" y="804" on="1"/>
        <pt x="576" y="736" on="1"/>
      </contour>
      <contour>
        <pt x="645" y="898" on="1"/>
        <pt x="738" y="898" on="0"/>
        <pt x="738" y="818" on="1"/>
        <pt x="738" y="744" on="0"/>
        <pt x="668" y="667" on="0"/>
        <pt x="604" y="667" on="1"/>
        <pt x="511" y="667" on="0"/>
        <pt x="511" y="747" on="1"/>
        <pt x="511" y="821" on="0"/>
        <pt x="581" y="898" on="0"/>
      </contour>
      <contour>
        <pt x="484" y="787" on="1"/>
        <pt x="186" y="833" on="1"/>
        <pt x="494" y="833" on="1"/>
        <pt x="486" y="807" on="0"/>
      </contour>
      <contour>
        <pt x="481" y="747" on="1"/>
        <pt x="481" y="726" on="0"/>
        <pt x="486" y="708" on="1"/>
        <pt x="188" y="754" on="1"/>
        <pt x="481" y="754" on="1"/>
      </contour>
    </TTGlyph>
    <TTGlyph name="Atilde" xMin="-250" yMin="0" xMax="799" yMax="861">
      <contour>
        <pt x="392" y="0" on="1"/>
        <pt x="192" y="0" on="1"/>
        <pt x="455" y="625" on="1"/>
        <pt x="749" y="625" on="1"/>
        <pt x="793" y="0" on="1"/>
        <pt x="592" y="0" on="1"/>
        <pt x="588" y="99" on="1"/>
        <pt x="431" y="99" on="1"/>
      </contour>
      <contour>
        <pt x="573" y="258" on="1"/>
        <pt x="573" y="433" on="1"/>
        <pt x="563" y="433" on="1"/>
        <pt x="493" y="258" on="1"/>
      </contour>
      <contour>
        <pt x="160" y="4" on="1"/>
        <pt x="-250" y="48" on="1"/>
        <pt x="179" y="48" on="1"/>
      </contour>
      <contour>
        <pt x="201" y="101" on="1"/>
        <pt x="-209" y="145" on="1"/>
        <pt x="220" y="145" on="1"/>
      </contour>
      <contour>
        <pt x="242" y="197" on="1"/>
        <pt x="-168" y="241" on="1"/>
        <pt x="260" y="241" on="1"/>
      </contour>
      <contour>
        <pt x="282" y="293" on="1"/>
        <pt x="-127" y="337" on="1"/>
        <pt x="301" y="337" on="1"/>
      </contour>
      <contour>
        <pt x="323" y="389" on="1"/>
        <pt x="-86" y="433" on="1"/>
        <pt x="341" y="433" on="1"/>
      </contour>
      <contour>
        <pt x="404" y="582" on="1"/>
        <pt x="-4" y="625" on="1"/>
        <pt x="422" y="625" on="1"/>
      </contour>
      <contour>
        <pt x="363" y="486" on="1"/>
        <pt x="-45" y="529" on="1"/>
        <pt x="381" y="529" on="1"/>
      </contour>
      <contour>
        <pt x="404" y="582" on="1"/>
        <pt x="422" y="625" on="1"/>
        <pt x="-4" y="625" on="1"/>
      </contour>
      <contour>
        <pt x="680" y="816" on="1"/>
        <pt x="766" y="856" on="1"/>
        <pt x="799" y="775" on="1"/>
        <pt x="670" y="694" on="0"/>
        <pt x="641" y="683" on="0"/>
        <pt x="616" y="683" on="0"/>
        <pt x="600" y="687" on="0"/>
        <pt x="584" y="698" on="0"/>
        <pt x="579" y="702" on="1"/>
        <pt x="571" y="707" on="0"/>
        <pt x="550" y="728" on="1"/>
        <pt x="465" y="688" on="1"/>
        <pt x="431" y="769" on="1"/>
        <pt x="560" y="850" on="0"/>
        <pt x="589" y="861" on="0"/>
        <pt x="614" y="861" on="0"/>
        <pt x="630" y="857" on="0"/>
        <pt x="646" y="846" on="0"/>
        <pt x="651" y="842" on="1"/>
        <pt x="659" y="837" on="0"/>
      </contour>
      <contour>
        <pt x="477" y="833" on="1"/>
        <pt x="405" y="787" on="1"/>
        <pt x="111" y="833" on="1"/>
      </contour>
      <contour>
        <pt x="405" y="754" on="1"/>
        <pt x="424" y="708" on="1"/>
        <pt x="111" y="754" on="1"/>
      </contour>
    </TTGlyph>
    <TTGlyph name="B" xMin="-250" yMin="0" xMax="759" yMax="625">
      <contour>
        <pt x="622" y="625" on="1"/>
        <pt x="694" y="625" on="0"/>
        <pt x="759" y="575" on="0"/>
        <pt x="759" y="523" on="1"/>
        <pt x="759" y="447" on="0"/>
        <pt x="692" y="349" on="0"/>
        <pt x="644" y="337" on="1"/>
        <pt x="643" y="331" on="1"/>
        <pt x="733" y="314" on="0"/>
        <pt x="733" y="212" on="1"/>
        <pt x="733" y="122" on="0"/>
        <pt x="635" y="0" on="0"/>
        <pt x="546" y="0" on="1"/>
        <pt x="204" y="0" on="1"/>
        <pt x="314" y="625" on="1"/>
      </contour>
      <contour>
        <pt x="512" y="249" on="1"/>
        <pt x="437" y="249" on="1"/>
        <pt x="419" y="147" on="1"/>
        <pt x="493" y="147" on="1"/>
        <pt x="518" y="147" on="0"/>
        <pt x="544" y="187" on="0"/>
        <pt x="544" y="249" on="0"/>
      </contour>
      <contour>
        <pt x="540" y="488" on="1"/>
        <pt x="480" y="488" on="1"/>
        <pt x="463" y="395" on="1"/>
        <pt x="522" y="395" on="1"/>
        <pt x="568" y="395" on="0"/>
        <pt x="568" y="460" on="1"/>
        <pt x="568" y="488" on="0"/>
      </contour>
      <contour>
        <pt x="174" y="3" on="1"/>
        <pt x="-250" y="48" on="1"/>
        <pt x="182" y="48" on="1"/>
      </contour>
      <contour>
        <pt x="208" y="196" on="1"/>
        <pt x="-216" y="241" on="1"/>
        <pt x="216" y="241" on="1"/>
      </contour>
      <contour>
        <pt x="225" y="292" on="1"/>
        <pt x="-199" y="337" on="1"/>
        <pt x="233" y="337" on="1"/>
      </contour>
      <contour>
        <pt x="242" y="388" on="1"/>
        <pt x="-182" y="433" on="1"/>
        <pt x="250" y="433" on="1"/>
      </contour>
      <contour>
        <pt x="259" y="484" on="1"/>
        <pt x="-165" y="529" on="1"/>
        <pt x="266" y="529" on="1"/>
      </contour>
      <contour>
        <pt x="191" y="100" on="1"/>
        <pt x="-233" y="145" on="1"/>
        <pt x="199" y="145" on="1"/>
      </contour>
      <contour>
        <pt x="275" y="580" on="1"/>
        <pt x="-148" y="625" on="1"/>
        <pt x="283" y="625" on="1"/>
      </contour>
    </TTGlyph>
    <TTGlyph name="C" xMin="-216" yMin="-15" xMax="712" yMax="640">
      <contour>
        <pt x="192" y="317" on="1"/>
        <pt x="190" y="309" on="0"/>
        <pt x="188" y="295" on="1"/>
        <pt x="-205" y="337" on="1"/>
        <pt x="195" y="337" on="1"/>
      </contour>
      <contour>
        <pt x="181" y="241" on="1"/>
        <pt x="178" y="218" on="0"/>
        <pt x="178" y="199" on="1"/>
        <pt x="-216" y="241" on="1"/>
      </contour>
      <contour>
        <pt x="219" y="433" on="1"/>
        <pt x="207" y="392" on="1"/>
        <pt x="-181" y="433" on="1"/>
      </contour>
      <contour>
        <pt x="179" y="145" on="1"/>
        <pt x="183" y="117" on="0"/>
        <pt x="186" y="103" on="1"/>
        <pt x="-203" y="145" on="1"/>
      </contour>
      <contour>
        <pt x="260" y="529" on="1"/>
        <pt x="246" y="503" on="0"/>
        <pt x="240" y="489" on="1"/>
        <pt x="-134" y="529" on="1"/>
      </contour>
      <contour>
        <pt x="209" y="48" on="1"/>
        <pt x="222" y="25" on="0"/>
        <pt x="239" y="11" on="1"/>
        <pt x="-107" y="48" on="1"/>
      </contour>
      <contour>
        <pt x="355" y="625" on="1"/>
        <pt x="326" y="607" on="0"/>
        <pt x="310" y="592" on="1"/>
        <pt x="4" y="625" on="1"/>
      </contour>
      <contour>
        <pt x="443" y="-15" on="1"/>
        <pt x="317" y="-15" on="0"/>
        <pt x="208" y="83" on="0"/>
        <pt x="208" y="185" on="1"/>
        <pt x="208" y="228" on="0"/>
        <pt x="222" y="312" on="1"/>
        <pt x="252" y="484" on="0"/>
        <pt x="399" y="640" on="0"/>
        <pt x="558" y="640" on="1"/>
        <pt x="595" y="640" on="0"/>
        <pt x="690" y="625" on="0"/>
        <pt x="712" y="614" on="1"/>
        <pt x="656" y="461" on="1"/>
        <pt x="597" y="475" on="0"/>
        <pt x="494" y="475" on="0"/>
        <pt x="450" y="455" on="0"/>
        <pt x="445" y="425" on="1"/>
        <pt x="399" y="163" on="1"/>
        <pt x="435" y="155" on="0"/>
        <pt x="473" y="155" on="1"/>
        <pt x="554" y="155" on="0"/>
        <pt x="621" y="179" on="1"/>
        <pt x="605" y="11" on="1"/>
        <pt x="541" y="-15" on="0"/>
      </contour>
    </TTGlyph>
    <TTGlyph name="Ccedilla" xMin="-216" yMin="-165" xMax="712" yMax="640">
      <contour>
        <pt x="192" y="317" on="1"/>
        <pt x="190" y="309" on="0"/>
        <pt x="188" y="295" on="1"/>
        <pt x="-205" y="337" on="1"/>
        <pt x="195" y="337" on="1"/>
      </contour>
      <contour>
        <pt x="181" y="241" on="1"/>
        <pt x="178" y="218" on="0"/>
        <pt x="178" y="199" on="1"/>
        <pt x="-216" y="241" on="1"/>
      </contour>
      <contour>
        <pt x="219" y="433" on="1"/>
        <pt x="207" y="392" on="1"/>
        <pt x="-181" y="433" on="1"/>
      </contour>
      <contour>
        <pt x="179" y="145" on="1"/>
        <pt x="183" y="117" on="0"/>
        <pt x="186" y="103" on="1"/>
        <pt x="-203" y="145" on="1"/>
      </contour>
      <contour>
        <pt x="260" y="529" on="1"/>
        <pt x="246" y="503" on="0"/>
        <pt x="240" y="489" on="1"/>
        <pt x="-134" y="529" on="1"/>
      </contour>
      <contour>
        <pt x="209" y="48" on="1"/>
        <pt x="222" y="25" on="0"/>
        <pt x="239" y="11" on="1"/>
        <pt x="-107" y="48" on="1"/>
      </contour>
      <contour>
        <pt x="355" y="625" on="1"/>
        <pt x="326" y="607" on="0"/>
        <pt x="310" y="592" on="1"/>
        <pt x="4" y="625" on="1"/>
      </contour>
      <contour>
        <pt x="443" y="-15" on="1"/>
        <pt x="541" y="-15" on="0"/>
        <pt x="605" y="11" on="1"/>
        <pt x="621" y="179" on="1"/>
        <pt x="554" y="155" on="0"/>
        <pt x="473" y="155" on="1"/>
        <pt x="435" y="155" on="0"/>
        <pt x="399" y="163" on="1"/>
        <pt x="445" y="425" on="1"/>
        <pt x="450" y="455" on="0"/>
        <pt x="494" y="475" on="0"/>
        <pt x="597" y="475" on="0"/>
        <pt x="656" y="461" on="1"/>
        <pt x="712" y="614" on="1"/>
        <pt x="690" y="625" on="0"/>
        <pt x="595" y="640" on="0"/>
        <pt x="558" y="640" on="1"/>
        <pt x="399" y="640" on="0"/>
        <pt x="252" y="484" on="0"/>
        <pt x="222" y="312" on="1"/>
        <pt x="208" y="228" on="0"/>
        <pt x="208" y="185" on="1"/>
        <pt x="208" y="83" on="0"/>
        <pt x="317" y="-15" on="0"/>
      </contour>
      <contour>
        <pt x="485" y="-64" on="1"/>
        <pt x="485" y="-105" on="0"/>
        <pt x="421" y="-165" on="0"/>
        <pt x="314" y="-165" on="0"/>
        <pt x="268" y="-146" on="1"/>
        <pt x="294" y="-58" on="1"/>
        <pt x="325" y="-58" on="1"/>
        <pt x="345" y="-58" on="0"/>
        <pt x="358" y="-47" on="0"/>
        <pt x="362" y="-26" on="1"/>
        <pt x="370" y="21" on="1"/>
        <pt x="428" y="21" on="1"/>
        <pt x="485" y="-3" on="0"/>
      </contour>
      <contour>
        <pt x="253" y="-89" on="1"/>
        <pt x="71" y="-58" on="1"/>
        <pt x="262" y="-58" on="1"/>
      </contour>
      <contour>
        <pt x="232" y="-161" on="1"/>
        <pt x="58" y="-130" on="1"/>
        <pt x="241" y="-130" on="1"/>
      </contour>
    </TTGlyph>
    <TTGlyph name="D" xMin="-250" yMin="0" xMax="818" yMax="625">
      <contour>
        <pt x="580" y="625" on="1"/>
        <pt x="709" y="625" on="0"/>
        <pt x="818" y="534" on="0"/>
        <pt x="818" y="432" on="1"/>
        <pt x="818" y="380" on="0"/>
        <pt x="806" y="312" on="1"/>
        <pt x="776" y="144" on="0"/>
        <pt x="631" y="0" on="0"/>
        <pt x="470" y="0" on="1"/>
        <pt x="204" y="0" on="1"/>
        <pt x="314" y="625" on="1"/>
      </contour>
      <contour>
        <pt x="554" y="465" on="1"/>
        <pt x="475" y="465" on="1"/>
        <pt x="422" y="160" on="1"/>
        <pt x="501" y="160" on="1"/>
        <pt x="540" y="160" on="0"/>
        <pt x="578" y="179" on="0"/>
        <pt x="584" y="213" on="1"/>
        <pt x="619" y="412" on="1"/>
        <pt x="620" y="418" on="0"/>
        <pt x="620" y="428" on="1"/>
        <pt x="620" y="451" on="0"/>
        <pt x="588" y="465" on="0"/>
      </contour>
      <contour>
        <pt x="174" y="3" on="1"/>
        <pt x="-250" y="48" on="1"/>
        <pt x="182" y="48" on="1"/>
      </contour>
      <contour>
        <pt x="208" y="196" on="1"/>
        <pt x="-216" y="241" on="1"/>
        <pt x="216" y="241" on="1"/>
      </contour>
      <contour>
        <pt x="225" y="292" on="1"/>
        <pt x="-199" y="337" on="1"/>
        <pt x="233" y="337" on="1"/>
      </contour>
      <contour>
        <pt x="242" y="388" on="1"/>
        <pt x="-182" y="433" on="1"/>
        <pt x="250" y="433" on="1"/>
      </contour>
      <contour>
        <pt x="259" y="484" on="1"/>
        <pt x="-165" y="529" on="1"/>
        <pt x="266" y="529" on="1"/>
      </contour>
      <contour>
        <pt x="191" y="100" on="1"/>
        <pt x="-233" y="145" on="1"/>
        <pt x="199" y="145" on="1"/>
      </contour>
      <contour>
        <pt x="275" y="580" on="1"/>
        <pt x="-148" y="625" on="1"/>
        <pt x="283" y="625" on="1"/>
      </contour>
    </TTGlyph>
    <TTGlyph name="Delta" xMin="2" yMin="0" xMax="613" yMax="625">
      <contour>
        <pt x="312" y="625" on="1"/>
        <pt x="505" y="625" on="1"/>
        <pt x="613" y="52" on="1"/>
        <pt x="586" y="0" on="1"/>
        <pt x="12" y="0" on="1"/>
        <pt x="2" y="52" on="1"/>
      </contour>
      <contour>
        <pt x="388" y="178" on="1"/>
        <pt x="354" y="445" on="1"/>
        <pt x="344" y="445" on="1"/>
        <pt x="199" y="150" on="1"/>
        <pt x="356" y="150" on="1"/>
        <pt x="388" y="150" on="0"/>
      </contour>
    </TTGlyph>
    <TTGlyph name="E" xMin="-250" yMin="0" xMax="732" yMax="625">
      <contour>
        <pt x="625" y="236" on="1"/>
        <pt x="435" y="236" on="1"/>
        <pt x="422" y="160" on="1"/>
        <pt x="655" y="160" on="1"/>
        <pt x="627" y="0" on="1"/>
        <pt x="204" y="0" on="1"/>
        <pt x="314" y="625" on="1"/>
        <pt x="732" y="625" on="1"/>
        <pt x="680" y="465" on="1"/>
        <pt x="475" y="465" on="1"/>
        <pt x="461" y="381" on="1"/>
        <pt x="651" y="381" on="1"/>
      </contour>
      <contour>
        <pt x="174" y="3" on="1"/>
        <pt x="-250" y="48" on="1"/>
        <pt x="182" y="48" on="1"/>
      </contour>
      <contour>
        <pt x="208" y="196" on="1"/>
        <pt x="-216" y="241" on="1"/>
        <pt x="216" y="241" on="1"/>
      </contour>
      <contour>
        <pt x="225" y="292" on="1"/>
        <pt x="-199" y="337" on="1"/>
        <pt x="233" y="337" on="1"/>
      </contour>
      <contour>
        <pt x="242" y="388" on="1"/>
        <pt x="-182" y="433" on="1"/>
        <pt x="250" y="433" on="1"/>
      </contour>
      <contour>
        <pt x="259" y="484" on="1"/>
        <pt x="-165" y="529" on="1"/>
        <pt x="266" y="529" on="1"/>
      </contour>
      <contour>
        <pt x="191" y="100" on="1"/>
        <pt x="-233" y="145" on="1"/>
        <pt x="199" y="145" on="1"/>
      </contour>
      <contour>
        <pt x="275" y="580" on="1"/>
        <pt x="-148" y="625" on="1"/>
        <pt x="283" y="625" on="1"/>
      </contour>
    </TTGlyph>
    <TTGlyph name="Eacute" xMin="-250" yMin="0" xMax="732" yMax="879">
      <contour>
        <pt x="625" y="236" on="1"/>
        <pt x="435" y="236" on="1"/>
        <pt x="422" y="160" on="1"/>
        <pt x="655" y="160" on="1"/>
        <pt x="627" y="0" on="1"/>
        <pt x="204" y="0" on="1"/>
        <pt x="314" y="625" on="1"/>
        <pt x="732" y="625" on="1"/>
        <pt x="680" y="465" on="1"/>
        <pt x="475" y="465" on="1"/>
        <pt x="461" y="381" on="1"/>
        <pt x="651" y="381" on="1"/>
      </contour>
      <contour>
        <pt x="174" y="3" on="1"/>
        <pt x="-250" y="48" on="1"/>
        <pt x="182" y="48" on="1"/>
      </contour>
      <contour>
        <pt x="208" y="196" on="1"/>
        <pt x="-216" y="241" on="1"/>
        <pt x="216" y="241" on="1"/>
      </contour>
      <contour>
        <pt x="225" y="292" on="1"/>
        <pt x="-199" y="337" on="1"/>
        <pt x="233" y="337" on="1"/>
      </contour>
      <contour>
        <pt x="242" y="388" on="1"/>
        <pt x="-182" y="433" on="1"/>
        <pt x="250" y="433" on="1"/>
      </contour>
      <contour>
        <pt x="259" y="484" on="1"/>
        <pt x="-165" y="529" on="1"/>
        <pt x="266" y="529" on="1"/>
      </contour>
      <contour>
        <pt x="191" y="100" on="1"/>
        <pt x="-233" y="145" on="1"/>
        <pt x="199" y="145" on="1"/>
      </contour>
      <contour>
        <pt x="275" y="580" on="1"/>
        <pt x="-148" y="625" on="1"/>
        <pt x="283" y="625" on="1"/>
      </contour>
      <contour>
        <pt x="597" y="875" on="1"/>
        <pt x="603" y="879" on="0"/>
        <pt x="617" y="879" on="0"/>
        <pt x="626" y="868" on="1"/>
        <pt x="689" y="794" on="1"/>
        <pt x="698" y="784" on="0"/>
        <pt x="698" y="771" on="0"/>
        <pt x="693" y="764" on="0"/>
        <pt x="649" y="726" on="1"/>
        <pt x="639" y="717" on="0"/>
        <pt x="623" y="714" on="1"/>
        <pt x="449" y="679" on="1"/>
        <pt x="408" y="736" on="1"/>
      </contour>
      <contour>
        <pt x="435" y="794" on="1"/>
        <pt x="75" y="833" on="1"/>
        <pt x="488" y="833" on="1"/>
      </contour>
      <contour>
        <pt x="324" y="713" on="1"/>
        <pt x="-36" y="752" on="1"/>
        <pt x="377" y="752" on="1"/>
      </contour>
    </TTGlyph>
    <TTGlyph name="Ecircumflex" xMin="-250" yMin="0" xMax="732" yMax="880">
      <contour>
        <pt x="625" y="236" on="1"/>
        <pt x="435" y="236" on="1"/>
        <pt x="422" y="160" on="1"/>
        <pt x="655" y="160" on="1"/>
        <pt x="627" y="0" on="1"/>
        <pt x="204" y="0" on="1"/>
        <pt x="314" y="625" on="1"/>
        <pt x="732" y="625" on="1"/>
        <pt x="680" y="465" on="1"/>
        <pt x="475" y="465" on="1"/>
        <pt x="461" y="381" on="1"/>
        <pt x="651" y="381" on="1"/>
      </contour>
      <contour>
        <pt x="174" y="3" on="1"/>
        <pt x="-250" y="48" on="1"/>
        <pt x="182" y="48" on="1"/>
      </contour>
      <contour>
        <pt x="208" y="196" on="1"/>
        <pt x="-216" y="241" on="1"/>
        <pt x="216" y="241" on="1"/>
      </contour>
      <contour>
        <pt x="225" y="292" on="1"/>
        <pt x="-199" y="337" on="1"/>
        <pt x="233" y="337" on="1"/>
      </contour>
      <contour>
        <pt x="242" y="388" on="1"/>
        <pt x="-182" y="433" on="1"/>
        <pt x="250" y="433" on="1"/>
      </contour>
      <contour>
        <pt x="259" y="484" on="1"/>
        <pt x="-165" y="529" on="1"/>
        <pt x="266" y="529" on="1"/>
      </contour>
      <contour>
        <pt x="191" y="100" on="1"/>
        <pt x="-233" y="145" on="1"/>
        <pt x="199" y="145" on="1"/>
      </contour>
      <contour>
        <pt x="275" y="580" on="1"/>
        <pt x="-148" y="625" on="1"/>
        <pt x="283" y="625" on="1"/>
      </contour>
      <contour>
        <pt x="538" y="880" on="1"/>
        <pt x="583" y="880" on="1"/>
        <pt x="591" y="880" on="0"/>
        <pt x="596" y="871" on="1"/>
        <pt x="679" y="726" on="1"/>
        <pt x="613" y="677" on="1"/>
        <pt x="535" y="740" on="1"/>
        <pt x="436" y="677" on="1"/>
        <pt x="388" y="726" on="1"/>
        <pt x="520" y="871" on="1"/>
        <pt x="528" y="880" on="0"/>
      </contour>
      <contour>
        <pt x="409" y="794" on="1"/>
        <pt x="86" y="833" on="1"/>
        <pt x="444" y="833" on="1"/>
      </contour>
      <contour>
        <pt x="335" y="713" on="1"/>
        <pt x="5" y="752" on="1"/>
        <pt x="371" y="752" on="1"/>
      </contour>
    </TTGlyph>
    <TTGlyph name="Edieresis" xMin="-250" yMin="0" xMax="732" yMax="848">
      <contour>
        <pt x="625" y="236" on="1"/>
        <pt x="435" y="236" on="1"/>
        <pt x="422" y="160" on="1"/>
        <pt x="655" y="160" on="1"/>
        <pt x="627" y="0" on="1"/>
        <pt x="204" y="0" on="1"/>
        <pt x="314" y="625" on="1"/>
        <pt x="732" y="625" on="1"/>
        <pt x="680" y="465" on="1"/>
        <pt x="475" y="465" on="1"/>
        <pt x="461" y="381" on="1"/>
        <pt x="651" y="381" on="1"/>
      </contour>
      <contour>
        <pt x="174" y="3" on="1"/>
        <pt x="-250" y="48" on="1"/>
        <pt x="182" y="48" on="1"/>
      </contour>
      <contour>
        <pt x="208" y="196" on="1"/>
        <pt x="-216" y="241" on="1"/>
        <pt x="216" y="241" on="1"/>
      </contour>
      <contour>
        <pt x="225" y="292" on="1"/>
        <pt x="-199" y="337" on="1"/>
        <pt x="233" y="337" on="1"/>
      </contour>
      <contour>
        <pt x="242" y="388" on="1"/>
        <pt x="-182" y="433" on="1"/>
        <pt x="250" y="433" on="1"/>
      </contour>
      <contour>
        <pt x="259" y="484" on="1"/>
        <pt x="-165" y="529" on="1"/>
        <pt x="266" y="529" on="1"/>
      </contour>
      <contour>
        <pt x="191" y="100" on="1"/>
        <pt x="-233" y="145" on="1"/>
        <pt x="199" y="145" on="1"/>
      </contour>
      <contour>
        <pt x="275" y="580" on="1"/>
        <pt x="-148" y="625" on="1"/>
        <pt x="283" y="625" on="1"/>
      </contour>
      <contour>
        <pt x="574" y="799" on="0"/>
        <pt x="615" y="848" on="0"/>
        <pt x="700" y="848" on="0"/>
        <pt x="729" y="826" on="0"/>
        <pt x="729" y="800" on="1"/>
        <pt x="729" y="741" on="0"/>
        <pt x="688" y="692" on="0"/>
        <pt x="603" y="692" on="0"/>
        <pt x="574" y="714" on="0"/>
        <pt x="574" y="740" on="1"/>
      </contour>
      <contour>
        <pt x="366" y="799" on="0"/>
        <pt x="407" y="848" on="0"/>
        <pt x="492" y="848" on="0"/>
        <pt x="521" y="826" on="0"/>
        <pt x="521" y="800" on="1"/>
        <pt x="521" y="741" on="0"/>
        <pt x="479" y="692" on="0"/>
        <pt x="395" y="692" on="0"/>
        <pt x="366" y="714" on="0"/>
        <pt x="366" y="740" on="1"/>
      </contour>
      <contour>
        <pt x="353" y="833" on="1"/>
        <pt x="344" y="816" on="0"/>
        <pt x="339" y="787" on="1"/>
        <pt x="37" y="833" on="1"/>
      </contour>
      <contour>
        <pt x="336" y="740" on="1"/>
        <pt x="336" y="722" on="0"/>
        <pt x="339" y="708" on="1"/>
        <pt x="37" y="754" on="1"/>
        <pt x="336" y="754" on="1"/>
      </contour>
    </TTGlyph>
    <TTGlyph name="Egrave" xMin="-250" yMin="0" xMax="732" yMax="879">
      <contour>
        <pt x="625" y="236" on="1"/>
        <pt x="435" y="236" on="1"/>
        <pt x="422" y="160" on="1"/>
        <pt x="655" y="160" on="1"/>
        <pt x="627" y="0" on="1"/>
        <pt x="204" y="0" on="1"/>
        <pt x="314" y="625" on="1"/>
        <pt x="732" y="625" on="1"/>
        <pt x="680" y="465" on="1"/>
        <pt x="475" y="465" on="1"/>
        <pt x="461" y="381" on="1"/>
        <pt x="651" y="381" on="1"/>
      </contour>
      <contour>
        <pt x="174" y="3" on="1"/>
        <pt x="-250" y="48" on="1"/>
        <pt x="182" y="48" on="1"/>
      </contour>
      <contour>
        <pt x="208" y="196" on="1"/>
        <pt x="-216" y="241" on="1"/>
        <pt x="216" y="241" on="1"/>
      </contour>
      <contour>
        <pt x="225" y="292" on="1"/>
        <pt x="-199" y="337" on="1"/>
        <pt x="233" y="337" on="1"/>
      </contour>
      <contour>
        <pt x="242" y="388" on="1"/>
        <pt x="-182" y="433" on="1"/>
        <pt x="250" y="433" on="1"/>
      </contour>
      <contour>
        <pt x="259" y="484" on="1"/>
        <pt x="-165" y="529" on="1"/>
        <pt x="266" y="529" on="1"/>
      </contour>
      <contour>
        <pt x="191" y="100" on="1"/>
        <pt x="-233" y="145" on="1"/>
        <pt x="199" y="145" on="1"/>
      </contour>
      <contour>
        <pt x="275" y="580" on="1"/>
        <pt x="-148" y="625" on="1"/>
        <pt x="283" y="625" on="1"/>
      </contour>
      <contour>
        <pt x="383" y="765" on="1"/>
        <pt x="379" y="769" on="0"/>
        <pt x="379" y="783" on="0"/>
        <pt x="388" y="794" on="1"/>
        <pt x="451" y="868" on="1"/>
        <pt x="460" y="879" on="0"/>
        <pt x="474" y="879" on="0"/>
        <pt x="480" y="875" on="1"/>
        <pt x="669" y="736" on="1"/>
        <pt x="628" y="679" on="1"/>
        <pt x="454" y="714" on="1"/>
        <pt x="438" y="717" on="0"/>
        <pt x="428" y="726" on="1"/>
      </contour>
      <contour>
        <pt x="353" y="794" on="1"/>
        <pt x="-42" y="833" on="1"/>
        <pt x="382" y="833" on="1"/>
        <pt x="379" y="829" on="0"/>
        <pt x="372" y="822" on="1"/>
        <pt x="359" y="807" on="0"/>
      </contour>
      <contour>
        <pt x="396" y="713" on="1"/>
        <pt x="-12" y="752" on="1"/>
        <pt x="355" y="752" on="1"/>
        <pt x="361" y="743" on="0"/>
      </contour>
    </TTGlyph>
    <TTGlyph name="Eth" xMin="-250" yMin="0" xMax="818" yMax="625">
      <contour>
        <pt x="471" y="255" on="1"/>
        <pt x="495" y="255" on="0"/>
        <pt x="520" y="267" on="0"/>
        <pt x="523" y="286" on="1"/>
        <pt x="537" y="363" on="1"/>
        <pt x="363" y="363" on="1"/>
        <pt x="344" y="255" on="1"/>
      </contour>
      <contour>
        <pt x="580" y="625" on="1"/>
        <pt x="709" y="625" on="0"/>
        <pt x="818" y="534" on="0"/>
        <pt x="818" y="432" on="1"/>
        <pt x="818" y="380" on="0"/>
        <pt x="806" y="312" on="1"/>
        <pt x="776" y="144" on="0"/>
        <pt x="631" y="0" on="0"/>
        <pt x="470" y="0" on="1"/>
        <pt x="204" y="0" on="1"/>
        <pt x="314" y="625" on="1"/>
      </contour>
      <contour>
        <pt x="554" y="465" on="1"/>
        <pt x="475" y="465" on="1"/>
        <pt x="422" y="160" on="1"/>
        <pt x="501" y="160" on="1"/>
        <pt x="540" y="160" on="0"/>
        <pt x="578" y="179" on="0"/>
        <pt x="584" y="213" on="1"/>
        <pt x="619" y="412" on="1"/>
        <pt x="620" y="418" on="0"/>
        <pt x="620" y="428" on="1"/>
        <pt x="620" y="451" on="0"/>
        <pt x="588" y="465" on="0"/>
      </contour>
      <contour>
        <pt x="174" y="3" on="1"/>
        <pt x="-250" y="48" on="1"/>
        <pt x="182" y="48" on="1"/>
      </contour>
      <contour>
        <pt x="208" y="196" on="1"/>
        <pt x="-216" y="241" on="1"/>
        <pt x="216" y="241" on="1"/>
      </contour>
      <contour>
        <pt x="225" y="292" on="1"/>
        <pt x="-199" y="337" on="1"/>
        <pt x="233" y="337" on="1"/>
      </contour>
      <contour>
        <pt x="242" y="388" on="1"/>
        <pt x="-182" y="433" on="1"/>
        <pt x="250" y="433" on="1"/>
      </contour>
      <contour>
        <pt x="259" y="484" on="1"/>
        <pt x="-165" y="529" on="1"/>
        <pt x="266" y="529" on="1"/>
      </contour>
      <contour>
        <pt x="191" y="100" on="1"/>
        <pt x="-233" y="145" on="1"/>
        <pt x="199" y="145" on="1"/>
      </contour>
      <contour>
        <pt x="275" y="580" on="1"/>
        <pt x="-148" y="625" on="1"/>
        <pt x="283" y="625" on="1"/>
      </contour>
    </TTGlyph>
    <TTGlyph name="Euro" xMin="-216" yMin="-15" xMax="793" yMax="640">
      <contour>
        <pt x="255" y="388" on="1"/>
        <pt x="-164" y="433" on="1"/>
        <pt x="267" y="433" on="1"/>
      </contour>
      <contour>
        <pt x="229" y="292" on="1"/>
        <pt x="-190" y="337" on="1"/>
        <pt x="241" y="337" on="1"/>
      </contour>
      <contour>
        <pt x="204" y="196" on="1"/>
        <pt x="-216" y="241" on="1"/>
        <pt x="216" y="241" on="1"/>
      </contour>
      <contour>
        <pt x="252" y="145" on="1"/>
        <pt x="253" y="127" on="0"/>
        <pt x="257" y="100" on="1"/>
        <pt x="-166" y="145" on="1"/>
      </contour>
      <contour>
        <pt x="349" y="529" on="1"/>
        <pt x="337" y="508" on="0"/>
        <pt x="327" y="485" on="1"/>
        <pt x="-81" y="529" on="1"/>
      </contour>
      <contour>
        <pt x="274" y="48" on="1"/>
        <pt x="288" y="21" on="0"/>
        <pt x="310" y="3" on="1"/>
        <pt x="-113" y="48" on="1"/>
      </contour>
      <contour>
        <pt x="443" y="625" on="1"/>
        <pt x="416" y="609" on="0"/>
        <pt x="392" y="584" on="1"/>
        <pt x="13" y="625" on="1"/>
      </contour>
      <contour>
        <pt x="550" y="145" on="1"/>
        <pt x="627" y="145" on="0"/>
        <pt x="694" y="169" on="1"/>
        <pt x="674" y="11" on="1"/>
        <pt x="610" y="-15" on="0"/>
        <pt x="386" y="-15" on="0"/>
        <pt x="282" y="67" on="0"/>
        <pt x="282" y="165" on="1"/>
        <pt x="282" y="176" on="0"/>
        <pt x="284" y="206" on="1"/>
        <pt x="237" y="206" on="1"/>
        <pt x="258" y="288" on="1"/>
        <pt x="661" y="288" on="1"/>
        <pt x="640" y="206" on="1"/>
        <pt x="488" y="206" on="1"/>
        <pt x="476" y="153" on="1"/>
        <pt x="512" y="145" on="0"/>
      </contour>
      <contour>
        <pt x="655" y="640" on="1"/>
        <pt x="723" y="640" on="0"/>
        <pt x="793" y="621" on="1"/>
        <pt x="740" y="475" on="1"/>
        <pt x="612" y="475" on="1"/>
        <pt x="593" y="475" on="0"/>
        <pt x="569" y="470" on="0"/>
        <pt x="557" y="458" on="1"/>
        <pt x="543" y="445" on="0"/>
        <pt x="539" y="420" on="1"/>
        <pt x="698" y="420" on="1"/>
        <pt x="676" y="338" on="1"/>
        <pt x="274" y="338" on="1"/>
        <pt x="295" y="420" on="1"/>
        <pt x="335" y="420" on="1"/>
        <pt x="373" y="539" on="0"/>
        <pt x="519" y="640" on="0"/>
      </contour>
    </TTGlyph>
    <TTGlyph name="F" xMin="-250" yMin="0" xMax="704" yMax="625">
      <contour>
        <pt x="596" y="232" on="1"/>
        <pt x="434" y="232" on="1"/>
        <pt x="394" y="0" on="1"/>
        <pt x="204" y="0" on="1"/>
        <pt x="314" y="625" on="1"/>
        <pt x="704" y="625" on="1"/>
        <pt x="651" y="465" on="1"/>
        <pt x="475" y="465" on="1"/>
        <pt x="461" y="381" on="1"/>
        <pt x="623" y="381" on="1"/>
      </contour>
      <contour>
        <pt x="174" y="3" on="1"/>
        <pt x="-250" y="48" on="1"/>
        <pt x="182" y="48" on="1"/>
      </contour>
      <contour>
        <pt x="208" y="196" on="1"/>
        <pt x="-216" y="241" on="1"/>
        <pt x="216" y="241" on="1"/>
      </contour>
      <contour>
        <pt x="225" y="292" on="1"/>
        <pt x="-199" y="337" on="1"/>
        <pt x="233" y="337" on="1"/>
      </contour>
      <contour>
        <pt x="242" y="388" on="1"/>
        <pt x="-182" y="433" on="1"/>
        <pt x="250" y="433" on="1"/>
      </contour>
      <contour>
        <pt x="259" y="484" on="1"/>
        <pt x="-165" y="529" on="1"/>
        <pt x="266" y="529" on="1"/>
      </contour>
      <contour>
        <pt x="191" y="100" on="1"/>
        <pt x="-233" y="145" on="1"/>
        <pt x="199" y="145" on="1"/>
      </contour>
      <contour>
        <pt x="275" y="580" on="1"/>
        <pt x="-148" y="625" on="1"/>
        <pt x="283" y="625" on="1"/>
      </contour>
    </TTGlyph>
    <TTGlyph name="G" xMin="-216" yMin="-15" xMax="757" yMax="640">
      <contour>
        <pt x="683" y="30" on="1"/>
        <pt x="561" y="-15" on="0"/>
        <pt x="315" y="-15" on="0"/>
        <pt x="206" y="83" on="0"/>
        <pt x="206" y="185" on="1"/>
        <pt x="206" y="228" on="0"/>
        <pt x="220" y="312" on="1"/>
        <pt x="250" y="486" on="0"/>
        <pt x="402" y="640" on="0"/>
        <pt x="578" y="640" on="1"/>
        <pt x="616" y="640" on="0"/>
        <pt x="730" y="624" on="0"/>
        <pt x="757" y="614" on="1"/>
        <pt x="702" y="461" on="1"/>
        <pt x="627" y="475" on="0"/>
        <pt x="502" y="475" on="0"/>
        <pt x="448" y="455" on="0"/>
        <pt x="443" y="425" on="1"/>
        <pt x="394" y="142" on="1"/>
        <pt x="457" y="142" on="1"/>
        <pt x="491" y="142" on="0"/>
        <pt x="524" y="157" on="0"/>
        <pt x="529" y="184" on="1"/>
        <pt x="534" y="211" on="1"/>
        <pt x="486" y="211" on="1"/>
        <pt x="513" y="364" on="1"/>
        <pt x="742" y="364" on="1"/>
      </contour>
      <contour>
        <pt x="192" y="317" on="1"/>
        <pt x="190" y="309" on="0"/>
        <pt x="188" y="295" on="1"/>
        <pt x="-205" y="337" on="1"/>
        <pt x="195" y="337" on="1"/>
      </contour>
      <contour>
        <pt x="181" y="241" on="1"/>
        <pt x="178" y="218" on="0"/>
        <pt x="178" y="199" on="1"/>
        <pt x="-216" y="241" on="1"/>
      </contour>
      <contour>
        <pt x="219" y="433" on="1"/>
        <pt x="207" y="392" on="1"/>
        <pt x="-181" y="433" on="1"/>
      </contour>
      <contour>
        <pt x="179" y="145" on="1"/>
        <pt x="183" y="117" on="0"/>
        <pt x="186" y="103" on="1"/>
        <pt x="-203" y="145" on="1"/>
      </contour>
      <contour>
        <pt x="260" y="529" on="1"/>
        <pt x="246" y="503" on="0"/>
        <pt x="240" y="489" on="1"/>
        <pt x="-134" y="529" on="1"/>
      </contour>
      <contour>
        <pt x="209" y="48" on="1"/>
        <pt x="222" y="25" on="0"/>
        <pt x="239" y="11" on="1"/>
        <pt x="-107" y="48" on="1"/>
      </contour>
      <contour>
        <pt x="355" y="625" on="1"/>
        <pt x="326" y="607" on="0"/>
        <pt x="310" y="592" on="1"/>
        <pt x="4" y="625" on="1"/>
      </contour>
    </TTGlyph>
    <TTGlyph name="H" xMin="-250" yMin="0" xMax="837" yMax="625">
      <contour>
        <pt x="537" y="0" on="1"/>
        <pt x="575" y="221" on="1"/>
        <pt x="432" y="221" on="1"/>
        <pt x="394" y="0" on="1"/>
        <pt x="204" y="0" on="1"/>
        <pt x="314" y="625" on="1"/>
        <pt x="504" y="625" on="1"/>
        <pt x="465" y="404" on="1"/>
        <pt x="608" y="404" on="1"/>
        <pt x="647" y="625" on="1"/>
        <pt x="837" y="625" on="1"/>
        <pt x="727" y="0" on="1"/>
      </contour>
      <contour>
        <pt x="174" y="3" on="1"/>
        <pt x="-250" y="48" on="1"/>
        <pt x="182" y="48" on="1"/>
      </contour>
      <contour>
        <pt x="208" y="196" on="1"/>
        <pt x="-216" y="241" on="1"/>
        <pt x="216" y="241" on="1"/>
      </contour>
      <contour>
        <pt x="225" y="292" on="1"/>
        <pt x="-199" y="337" on="1"/>
        <pt x="233" y="337" on="1"/>
      </contour>
      <contour>
        <pt x="242" y="388" on="1"/>
        <pt x="-182" y="433" on="1"/>
        <pt x="250" y="433" on="1"/>
      </contour>
      <contour>
        <pt x="259" y="484" on="1"/>
        <pt x="-165" y="529" on="1"/>
        <pt x="266" y="529" on="1"/>
      </contour>
      <contour>
        <pt x="191" y="100" on="1"/>
        <pt x="-233" y="145" on="1"/>
        <pt x="199" y="145" on="1"/>
      </contour>
      <contour>
        <pt x="275" y="580" on="1"/>
        <pt x="-148" y="625" on="1"/>
        <pt x="283" y="625" on="1"/>
      </contour>
    </TTGlyph>
    <TTGlyph name="I" xMin="-250" yMin="0" xMax="504" yMax="625">
      <contour>
        <pt x="204" y="0" on="1"/>
        <pt x="314" y="625" on="1"/>
        <pt x="504" y="625" on="1"/>
        <pt x="394" y="0" on="1"/>
      </contour>
      <contour>
        <pt x="174" y="3" on="1"/>
        <pt x="-250" y="48" on="1"/>
        <pt x="182" y="48" on="1"/>
      </contour>
      <contour>
        <pt x="208" y="196" on="1"/>
        <pt x="-216" y="241" on="1"/>
        <pt x="216" y="241" on="1"/>
      </contour>
      <contour>
        <pt x="225" y="292" on="1"/>
        <pt x="-199" y="337" on="1"/>
        <pt x="233" y="337" on="1"/>
      </contour>
      <contour>
        <pt x="242" y="388" on="1"/>
        <pt x="-182" y="433" on="1"/>
        <pt x="250" y="433" on="1"/>
      </contour>
      <contour>
        <pt x="259" y="484" on="1"/>
        <pt x="-165" y="529" on="1"/>
        <pt x="266" y="529" on="1"/>
      </contour>
      <contour>
        <pt x="191" y="100" on="1"/>
        <pt x="-233" y="145" on="1"/>
        <pt x="199" y="145" on="1"/>
      </contour>
      <contour>
        <pt x="275" y="580" on="1"/>
        <pt x="-148" y="625" on="1"/>
        <pt x="283" y="625" on="1"/>
      </contour>
    </TTGlyph>
    <TTGlyph name="Iacute" xMin="-250" yMin="0" xMax="587" yMax="879">
      <contour>
        <pt x="204" y="0" on="1"/>
        <pt x="314" y="625" on="1"/>
        <pt x="504" y="625" on="1"/>
        <pt x="394" y="0" on="1"/>
      </contour>
      <contour>
        <pt x="174" y="3" on="1"/>
        <pt x="-250" y="48" on="1"/>
        <pt x="182" y="48" on="1"/>
      </contour>
      <contour>
        <pt x="208" y="196" on="1"/>
        <pt x="-216" y="241" on="1"/>
        <pt x="216" y="241" on="1"/>
      </contour>
      <contour>
        <pt x="225" y="292" on="1"/>
        <pt x="-199" y="337" on="1"/>
        <pt x="233" y="337" on="1"/>
      </contour>
      <contour>
        <pt x="242" y="388" on="1"/>
        <pt x="-182" y="433" on="1"/>
        <pt x="250" y="433" on="1"/>
      </contour>
      <contour>
        <pt x="259" y="484" on="1"/>
        <pt x="-165" y="529" on="1"/>
        <pt x="266" y="529" on="1"/>
      </contour>
      <contour>
        <pt x="191" y="100" on="1"/>
        <pt x="-233" y="145" on="1"/>
        <pt x="199" y="145" on="1"/>
      </contour>
      <contour>
        <pt x="275" y="580" on="1"/>
        <pt x="-148" y="625" on="1"/>
        <pt x="283" y="625" on="1"/>
      </contour>
      <contour>
        <pt x="486" y="875" on="1"/>
        <pt x="492" y="879" on="0"/>
        <pt x="506" y="879" on="0"/>
        <pt x="515" y="868" on="1"/>
        <pt x="578" y="794" on="1"/>
        <pt x="587" y="784" on="0"/>
        <pt x="587" y="771" on="0"/>
        <pt x="582" y="764" on="0"/>
        <pt x="538" y="726" on="1"/>
        <pt x="528" y="717" on="0"/>
        <pt x="512" y="714" on="1"/>
        <pt x="338" y="679" on="1"/>
        <pt x="297" y="736" on="1"/>
      </contour>
      <contour>
        <pt x="324" y="794" on="1"/>
        <pt x="-36" y="833" on="1"/>
        <pt x="377" y="833" on="1"/>
      </contour>
      <contour>
        <pt x="213" y="713" on="1"/>
        <pt x="-147" y="752" on="1"/>
        <pt x="266" y="752" on="1"/>
      </contour>
    </TTGlyph>
    <TTGlyph name="Icircumflex" xMin="-250" yMin="0" xMax="568" yMax="880">
      <contour>
        <pt x="204" y="0" on="1"/>
        <pt x="314" y="625" on="1"/>
        <pt x="504" y="625" on="1"/>
        <pt x="394" y="0" on="1"/>
      </contour>
      <contour>
        <pt x="174" y="3" on="1"/>
        <pt x="-250" y="48" on="1"/>
        <pt x="182" y="48" on="1"/>
      </contour>
      <contour>
        <pt x="208" y="196" on="1"/>
        <pt x="-216" y="241" on="1"/>
        <pt x="216" y="241" on="1"/>
      </contour>
      <contour>
        <pt x="225" y="292" on="1"/>
        <pt x="-199" y="337" on="1"/>
        <pt x="233" y="337" on="1"/>
      </contour>
      <contour>
        <pt x="242" y="388" on="1"/>
        <pt x="-182" y="433" on="1"/>
        <pt x="250" y="433" on="1"/>
      </contour>
      <contour>
        <pt x="259" y="484" on="1"/>
        <pt x="-165" y="529" on="1"/>
        <pt x="266" y="529" on="1"/>
      </contour>
      <contour>
        <pt x="191" y="100" on="1"/>
        <pt x="-233" y="145" on="1"/>
        <pt x="199" y="145" on="1"/>
      </contour>
      <contour>
        <pt x="275" y="580" on="1"/>
        <pt x="-148" y="625" on="1"/>
        <pt x="283" y="625" on="1"/>
      </contour>
      <contour>
        <pt x="427" y="880" on="1"/>
        <pt x="472" y="880" on="1"/>
        <pt x="480" y="880" on="0"/>
        <pt x="485" y="871" on="1"/>
        <pt x="568" y="726" on="1"/>
        <pt x="502" y="677" on="1"/>
        <pt x="424" y="740" on="1"/>
        <pt x="325" y="677" on="1"/>
        <pt x="277" y="726" on="1"/>
        <pt x="409" y="871" on="1"/>
        <pt x="416" y="880" on="0"/>
      </contour>
      <contour>
        <pt x="298" y="794" on="1"/>
        <pt x="-25" y="833" on="1"/>
        <pt x="333" y="833" on="1"/>
      </contour>
      <contour>
        <pt x="224" y="713" on="1"/>
        <pt x="-106" y="752" on="1"/>
        <pt x="260" y="752" on="1"/>
      </contour>
    </TTGlyph>
    <TTGlyph name="Idieresis" xMin="-250" yMin="0" xMax="618" yMax="848">
      <contour>
        <pt x="204" y="0" on="1"/>
        <pt x="314" y="625" on="1"/>
        <pt x="504" y="625" on="1"/>
        <pt x="394" y="0" on="1"/>
      </contour>
      <contour>
        <pt x="174" y="3" on="1"/>
        <pt x="-250" y="48" on="1"/>
        <pt x="182" y="48" on="1"/>
      </contour>
      <contour>
        <pt x="208" y="196" on="1"/>
        <pt x="-216" y="241" on="1"/>
        <pt x="216" y="241" on="1"/>
      </contour>
      <contour>
        <pt x="225" y="292" on="1"/>
        <pt x="-199" y="337" on="1"/>
        <pt x="233" y="337" on="1"/>
      </contour>
      <contour>
        <pt x="242" y="388" on="1"/>
        <pt x="-182" y="433" on="1"/>
        <pt x="250" y="433" on="1"/>
      </contour>
      <contour>
        <pt x="259" y="484" on="1"/>
        <pt x="-165" y="529" on="1"/>
        <pt x="266" y="529" on="1"/>
      </contour>
      <contour>
        <pt x="191" y="100" on="1"/>
        <pt x="-233" y="145" on="1"/>
        <pt x="199" y="145" on="1"/>
      </contour>
      <contour>
        <pt x="275" y="580" on="1"/>
        <pt x="-148" y="625" on="1"/>
        <pt x="283" y="625" on="1"/>
      </contour>
      <contour>
        <pt x="463" y="799" on="0"/>
        <pt x="504" y="848" on="0"/>
        <pt x="589" y="848" on="0"/>
        <pt x="618" y="826" on="0"/>
        <pt x="618" y="800" on="1"/>
        <pt x="618" y="741" on="0"/>
        <pt x="577" y="692" on="0"/>
        <pt x="492" y="692" on="0"/>
        <pt x="463" y="714" on="0"/>
        <pt x="463" y="740" on="1"/>
      </contour>
      <contour>
        <pt x="255" y="799" on="0"/>
        <pt x="296" y="848" on="0"/>
        <pt x="381" y="848" on="0"/>
        <pt x="410" y="826" on="0"/>
        <pt x="410" y="800" on="1"/>
        <pt x="410" y="741" on="0"/>
        <pt x="368" y="692" on="0"/>
        <pt x="284" y="692" on="0"/>
        <pt x="255" y="714" on="0"/>
        <pt x="255" y="740" on="1"/>
      </contour>
      <contour>
        <pt x="242" y="833" on="1"/>
        <pt x="233" y="816" on="0"/>
        <pt x="228" y="787" on="1"/>
        <pt x="-74" y="833" on="1"/>
      </contour>
      <contour>
        <pt x="225" y="740" on="1"/>
        <pt x="225" y="722" on="0"/>
        <pt x="228" y="708" on="1"/>
        <pt x="-74" y="754" on="1"/>
        <pt x="225" y="754" on="1"/>
      </contour>
    </TTGlyph>
    <TTGlyph name="Igrave" xMin="-250" yMin="0" xMax="558" yMax="879">
      <contour>
        <pt x="204" y="0" on="1"/>
        <pt x="314" y="625" on="1"/>
        <pt x="504" y="625" on="1"/>
        <pt x="394" y="0" on="1"/>
      </contour>
      <contour>
        <pt x="174" y="3" on="1"/>
        <pt x="-250" y="48" on="1"/>
        <pt x="182" y="48" on="1"/>
      </contour>
      <contour>
        <pt x="208" y="196" on="1"/>
        <pt x="-216" y="241" on="1"/>
        <pt x="216" y="241" on="1"/>
      </contour>
      <contour>
        <pt x="225" y="292" on="1"/>
        <pt x="-199" y="337" on="1"/>
        <pt x="233" y="337" on="1"/>
      </contour>
      <contour>
        <pt x="242" y="388" on="1"/>
        <pt x="-182" y="433" on="1"/>
        <pt x="250" y="433" on="1"/>
      </contour>
      <contour>
        <pt x="259" y="484" on="1"/>
        <pt x="-165" y="529" on="1"/>
        <pt x="266" y="529" on="1"/>
      </contour>
      <contour>
        <pt x="191" y="100" on="1"/>
        <pt x="-233" y="145" on="1"/>
        <pt x="199" y="145" on="1"/>
      </contour>
      <contour>
        <pt x="275" y="580" on="1"/>
        <pt x="-148" y="625" on="1"/>
        <pt x="283" y="625" on="1"/>
      </contour>
      <contour>
        <pt x="272" y="765" on="1"/>
        <pt x="268" y="769" on="0"/>
        <pt x="268" y="783" on="0"/>
        <pt x="277" y="794" on="1"/>
        <pt x="340" y="868" on="1"/>
        <pt x="349" y="879" on="0"/>
        <pt x="363" y="879" on="0"/>
        <pt x="369" y="875" on="1"/>
        <pt x="558" y="736" on="1"/>
        <pt x="517" y="679" on="1"/>
        <pt x="343" y="714" on="1"/>
        <pt x="327" y="717" on="0"/>
        <pt x="317" y="726" on="1"/>
      </contour>
      <contour>
        <pt x="242" y="794" on="1"/>
        <pt x="-153" y="833" on="1"/>
        <pt x="271" y="833" on="1"/>
        <pt x="268" y="829" on="0"/>
        <pt x="261" y="822" on="1"/>
        <pt x="248" y="807" on="0"/>
      </contour>
      <contour>
        <pt x="285" y="713" on="1"/>
        <pt x="-123" y="752" on="1"/>
        <pt x="244" y="752" on="1"/>
        <pt x="250" y="743" on="0"/>
      </contour>
    </TTGlyph>
    <TTGlyph name="J" xMin="-277" yMin="0" xMax="582" yMax="625">
      <contour>
        <pt x="265" y="160" on="1"/>
        <pt x="294" y="160" on="0"/>
        <pt x="313" y="177" on="0"/>
        <pt x="315" y="190" on="1"/>
        <pt x="363" y="465" on="1"/>
        <pt x="285" y="465" on="1"/>
        <pt x="314" y="625" on="1"/>
        <pt x="582" y="625" on="1"/>
        <pt x="501" y="165" on="1"/>
        <pt x="487" y="84" on="0"/>
        <pt x="396" y="0" on="0"/>
        <pt x="325" y="0" on="1"/>
        <pt x="177" y="0" on="1"/>
        <pt x="206" y="160" on="1"/>
      </contour>
      <contour>
        <pt x="147" y="3" on="1"/>
        <pt x="-277" y="48" on="1"/>
        <pt x="155" y="48" on="1"/>
      </contour>
      <contour>
        <pt x="285" y="196" on="1"/>
        <pt x="-139" y="241" on="1"/>
        <pt x="293" y="241" on="1"/>
      </contour>
      <contour>
        <pt x="302" y="292" on="1"/>
        <pt x="-122" y="337" on="1"/>
        <pt x="310" y="337" on="1"/>
      </contour>
      <contour>
        <pt x="319" y="388" on="1"/>
        <pt x="-105" y="433" on="1"/>
        <pt x="327" y="433" on="1"/>
      </contour>
      <contour>
        <pt x="257" y="484" on="1"/>
        <pt x="-167" y="529" on="1"/>
        <pt x="264" y="529" on="1"/>
      </contour>
      <contour>
        <pt x="164" y="100" on="1"/>
        <pt x="-260" y="145" on="1"/>
        <pt x="172" y="145" on="1"/>
      </contour>
      <contour>
        <pt x="275" y="580" on="1"/>
        <pt x="-148" y="625" on="1"/>
        <pt x="283" y="625" on="1"/>
      </contour>
    </TTGlyph>
    <TTGlyph name="K" xMin="-250" yMin="0" xMax="816" yMax="625">
      <contour>
        <pt x="448" y="253" on="1"/>
        <pt x="449" y="272" on="1"/>
        <pt x="441" y="272" on="1"/>
        <pt x="394" y="0" on="1"/>
        <pt x="204" y="0" on="1"/>
        <pt x="314" y="625" on="1"/>
        <pt x="504" y="625" on="1"/>
        <pt x="459" y="370" on="1"/>
        <pt x="467" y="370" on="1"/>
        <pt x="475" y="402" on="0"/>
        <pt x="485" y="418" on="1"/>
        <pt x="611" y="625" on="1"/>
        <pt x="816" y="625" on="1"/>
        <pt x="620" y="318" on="1"/>
        <pt x="711" y="0" on="1"/>
        <pt x="506" y="0" on="1"/>
        <pt x="451" y="224" on="1"/>
        <pt x="448" y="234" on="0"/>
      </contour>
      <contour>
        <pt x="174" y="3" on="1"/>
        <pt x="-250" y="48" on="1"/>
        <pt x="182" y="48" on="1"/>
      </contour>
      <contour>
        <pt x="208" y="196" on="1"/>
        <pt x="-216" y="241" on="1"/>
        <pt x="216" y="241" on="1"/>
      </contour>
      <contour>
        <pt x="225" y="292" on="1"/>
        <pt x="-199" y="337" on="1"/>
        <pt x="233" y="337" on="1"/>
      </contour>
      <contour>
        <pt x="242" y="388" on="1"/>
        <pt x="-182" y="433" on="1"/>
        <pt x="250" y="433" on="1"/>
      </contour>
      <contour>
        <pt x="259" y="484" on="1"/>
        <pt x="-165" y="529" on="1"/>
        <pt x="266" y="529" on="1"/>
      </contour>
      <contour>
        <pt x="191" y="100" on="1"/>
        <pt x="-233" y="145" on="1"/>
        <pt x="199" y="145" on="1"/>
      </contour>
      <contour>
        <pt x="275" y="580" on="1"/>
        <pt x="-148" y="625" on="1"/>
        <pt x="283" y="625" on="1"/>
      </contour>
    </TTGlyph>
    <TTGlyph name="L" xMin="-250" yMin="0" xMax="612" yMax="625">
      <contour>
        <pt x="584" y="0" on="1"/>
        <pt x="204" y="0" on="1"/>
        <pt x="314" y="625" on="1"/>
        <pt x="504" y="625" on="1"/>
        <pt x="422" y="160" on="1"/>
        <pt x="612" y="160" on="1"/>
      </contour>
      <contour>
        <pt x="174" y="3" on="1"/>
        <pt x="-250" y="48" on="1"/>
        <pt x="182" y="48" on="1"/>
      </contour>
      <contour>
        <pt x="208" y="196" on="1"/>
        <pt x="-216" y="241" on="1"/>
        <pt x="216" y="241" on="1"/>
      </contour>
      <contour>
        <pt x="225" y="292" on="1"/>
        <pt x="-199" y="337" on="1"/>
        <pt x="233" y="337" on="1"/>
      </contour>
      <contour>
        <pt x="242" y="388" on="1"/>
        <pt x="-182" y="433" on="1"/>
        <pt x="250" y="433" on="1"/>
      </contour>
      <contour>
        <pt x="259" y="484" on="1"/>
        <pt x="-165" y="529" on="1"/>
        <pt x="266" y="529" on="1"/>
      </contour>
      <contour>
        <pt x="191" y="100" on="1"/>
        <pt x="-233" y="145" on="1"/>
        <pt x="199" y="145" on="1"/>
      </contour>
      <contour>
        <pt x="275" y="580" on="1"/>
        <pt x="-148" y="625" on="1"/>
        <pt x="283" y="625" on="1"/>
      </contour>
    </TTGlyph>
    <TTGlyph name="Lslash" xMin="-250" yMin="0" xMax="612" yMax="625">
      <contour>
        <pt x="564" y="478" on="1"/>
        <pt x="281" y="384" on="1"/>
        <pt x="254" y="234" on="1"/>
        <pt x="546" y="330" on="1"/>
        <pt x="596" y="346" on="0"/>
        <pt x="596" y="366" on="1"/>
        <pt x="596" y="377" on="0"/>
      </contour>
      <contour>
        <pt x="584" y="0" on="1"/>
        <pt x="204" y="0" on="1"/>
        <pt x="314" y="625" on="1"/>
        <pt x="504" y="625" on="1"/>
        <pt x="422" y="160" on="1"/>
        <pt x="612" y="160" on="1"/>
      </contour>
      <contour>
        <pt x="174" y="3" on="1"/>
        <pt x="-250" y="48" on="1"/>
        <pt x="182" y="48" on="1"/>
      </contour>
      <contour>
        <pt x="208" y="196" on="1"/>
        <pt x="-216" y="241" on="1"/>
        <pt x="216" y="241" on="1"/>
      </contour>
      <contour>
        <pt x="225" y="292" on="1"/>
        <pt x="-199" y="337" on="1"/>
        <pt x="233" y="337" on="1"/>
      </contour>
      <contour>
        <pt x="242" y="388" on="1"/>
        <pt x="-182" y="433" on="1"/>
        <pt x="250" y="433" on="1"/>
      </contour>
      <contour>
        <pt x="259" y="484" on="1"/>
        <pt x="-165" y="529" on="1"/>
        <pt x="266" y="529" on="1"/>
      </contour>
      <contour>
        <pt x="191" y="100" on="1"/>
        <pt x="-233" y="145" on="1"/>
        <pt x="199" y="145" on="1"/>
      </contour>
      <contour>
        <pt x="275" y="580" on="1"/>
        <pt x="-148" y="625" on="1"/>
        <pt x="283" y="625" on="1"/>
      </contour>
    </TTGlyph>
    <TTGlyph name="M" xMin="-250" yMin="0" xMax="999" yMax="625">
      <contour>
        <pt x="172" y="3" on="1"/>
        <pt x="-250" y="48" on="1"/>
        <pt x="182" y="48" on="1"/>
      </contour>
      <contour>
        <pt x="194" y="100" on="1"/>
        <pt x="-227" y="145" on="1"/>
        <pt x="205" y="145" on="1"/>
      </contour>
      <contour>
        <pt x="217" y="196" on="1"/>
        <pt x="-204" y="241" on="1"/>
        <pt x="227" y="241" on="1"/>
      </contour>
      <contour>
        <pt x="239" y="292" on="1"/>
        <pt x="-181" y="337" on="1"/>
        <pt x="250" y="337" on="1"/>
      </contour>
      <contour>
        <pt x="262" y="388" on="1"/>
        <pt x="-158" y="433" on="1"/>
        <pt x="272" y="433" on="1"/>
      </contour>
      <contour>
        <pt x="284" y="484" on="1"/>
        <pt x="-135" y="529" on="1"/>
        <pt x="295" y="529" on="1"/>
      </contour>
      <contour>
        <pt x="307" y="580" on="1"/>
        <pt x="-112" y="625" on="1"/>
        <pt x="317" y="625" on="1"/>
      </contour>
      <contour>
        <pt x="400" y="0" on="1"/>
        <pt x="202" y="0" on="1"/>
        <pt x="348" y="625" on="1"/>
        <pt x="596" y="625" on="1"/>
        <pt x="614" y="307" on="1"/>
        <pt x="621" y="307" on="1"/>
        <pt x="751" y="625" on="1"/>
        <pt x="999" y="625" on="1"/>
        <pt x="925" y="0" on="1"/>
        <pt x="726" y="0" on="1"/>
        <pt x="768" y="303" on="1"/>
        <pt x="761" y="303" on="1"/>
        <pt x="636" y="0" on="1"/>
        <pt x="491" y="0" on="1"/>
        <pt x="470" y="303" on="1"/>
        <pt x="465" y="303" on="1"/>
      </contour>
    </TTGlyph>
    <TTGlyph name="N" xMin="-250" yMin="0" xMax="842" yMax="625">
      <contour>
        <pt x="451" y="222" on="1"/>
        <pt x="447" y="229" on="0"/>
        <pt x="447" y="254" on="0"/>
        <pt x="449" y="270" on="1"/>
        <pt x="441" y="270" on="1"/>
        <pt x="394" y="0" on="1"/>
        <pt x="204" y="0" on="1"/>
        <pt x="314" y="625" on="1"/>
        <pt x="493" y="625" on="1"/>
        <pt x="595" y="403" on="1"/>
        <pt x="598" y="396" on="0"/>
        <pt x="598" y="371" on="0"/>
        <pt x="596" y="355" on="1"/>
        <pt x="604" y="355" on="1"/>
        <pt x="652" y="625" on="1"/>
        <pt x="842" y="625" on="1"/>
        <pt x="732" y="0" on="1"/>
        <pt x="553" y="0" on="1"/>
      </contour>
      <contour>
        <pt x="174" y="3" on="1"/>
        <pt x="-250" y="48" on="1"/>
        <pt x="182" y="48" on="1"/>
      </contour>
      <contour>
        <pt x="208" y="196" on="1"/>
        <pt x="-216" y="241" on="1"/>
        <pt x="216" y="241" on="1"/>
      </contour>
      <contour>
        <pt x="225" y="292" on="1"/>
        <pt x="-199" y="337" on="1"/>
        <pt x="233" y="337" on="1"/>
      </contour>
      <contour>
        <pt x="242" y="388" on="1"/>
        <pt x="-182" y="433" on="1"/>
        <pt x="250" y="433" on="1"/>
      </contour>
      <contour>
        <pt x="259" y="484" on="1"/>
        <pt x="-165" y="529" on="1"/>
        <pt x="266" y="529" on="1"/>
      </contour>
      <contour>
        <pt x="191" y="100" on="1"/>
        <pt x="-233" y="145" on="1"/>
        <pt x="199" y="145" on="1"/>
      </contour>
      <contour>
        <pt x="275" y="580" on="1"/>
        <pt x="-148" y="625" on="1"/>
        <pt x="283" y="625" on="1"/>
      </contour>
    </TTGlyph>
    <TTGlyph name="Ntilde" xMin="-250" yMin="0" xMax="842" yMax="861">
      <contour>
        <pt x="451" y="222" on="1"/>
        <pt x="447" y="229" on="0"/>
        <pt x="447" y="254" on="0"/>
        <pt x="449" y="270" on="1"/>
        <pt x="441" y="270" on="1"/>
        <pt x="394" y="0" on="1"/>
        <pt x="204" y="0" on="1"/>
        <pt x="314" y="625" on="1"/>
        <pt x="493" y="625" on="1"/>
        <pt x="595" y="403" on="1"/>
        <pt x="598" y="396" on="0"/>
        <pt x="598" y="371" on="0"/>
        <pt x="596" y="355" on="1"/>
        <pt x="604" y="355" on="1"/>
        <pt x="652" y="625" on="1"/>
        <pt x="842" y="625" on="1"/>
        <pt x="732" y="0" on="1"/>
        <pt x="553" y="0" on="1"/>
      </contour>
      <contour>
        <pt x="174" y="3" on="1"/>
        <pt x="-250" y="48" on="1"/>
        <pt x="182" y="48" on="1"/>
      </contour>
      <contour>
        <pt x="208" y="196" on="1"/>
        <pt x="-216" y="241" on="1"/>
        <pt x="216" y="241" on="1"/>
      </contour>
      <contour>
        <pt x="225" y="292" on="1"/>
        <pt x="-199" y="337" on="1"/>
        <pt x="233" y="337" on="1"/>
      </contour>
      <contour>
        <pt x="242" y="388" on="1"/>
        <pt x="-182" y="433" on="1"/>
        <pt x="250" y="433" on="1"/>
      </contour>
      <contour>
        <pt x="259" y="484" on="1"/>
        <pt x="-165" y="529" on="1"/>
        <pt x="266" y="529" on="1"/>
      </contour>
      <contour>
        <pt x="191" y="100" on="1"/>
        <pt x="-233" y="145" on="1"/>
        <pt x="199" y="145" on="1"/>
      </contour>
      <contour>
        <pt x="275" y="580" on="1"/>
        <pt x="-148" y="625" on="1"/>
        <pt x="283" y="625" on="1"/>
      </contour>
      <contour>
        <pt x="650" y="816" on="1"/>
        <pt x="736" y="856" on="1"/>
        <pt x="769" y="775" on="1"/>
        <pt x="640" y="694" on="0"/>
        <pt x="611" y="683" on="0"/>
        <pt x="586" y="683" on="0"/>
        <pt x="570" y="687" on="0"/>
        <pt x="554" y="698" on="0"/>
        <pt x="549" y="702" on="1"/>
        <pt x="541" y="707" on="0"/>
        <pt x="520" y="728" on="1"/>
        <pt x="435" y="688" on="1"/>
        <pt x="401" y="769" on="1"/>
        <pt x="530" y="850" on="0"/>
        <pt x="559" y="861" on="0"/>
        <pt x="584" y="861" on="0"/>
        <pt x="600" y="857" on="0"/>
        <pt x="616" y="846" on="0"/>
        <pt x="621" y="842" on="1"/>
        <pt x="629" y="837" on="0"/>
      </contour>
      <contour>
        <pt x="447" y="833" on="1"/>
        <pt x="375" y="787" on="1"/>
        <pt x="81" y="833" on="1"/>
      </contour>
      <contour>
        <pt x="375" y="754" on="1"/>
        <pt x="394" y="708" on="1"/>
        <pt x="81" y="754" on="1"/>
      </contour>
    </TTGlyph>
    <TTGlyph name="O" xMin="-216" yMin="-15" xMax="792" yMax="640">
      <contour>
        <pt x="475" y="156" on="1"/>
        <pt x="514" y="156" on="0"/>
        <pt x="552" y="175" on="0"/>
        <pt x="558" y="209" on="1"/>
        <pt x="604" y="469" on="1"/>
        <pt x="524" y="469" on="1"/>
        <pt x="486" y="469" on="0"/>
        <pt x="448" y="450" on="0"/>
        <pt x="442" y="416" on="1"/>
        <pt x="396" y="156" on="1"/>
      </contour>
      <contour>
        <pt x="557" y="640" on="1"/>
        <pt x="684" y="640" on="0"/>
        <pt x="792" y="541" on="0"/>
        <pt x="792" y="335" on="0"/>
        <pt x="727" y="110" on="0"/>
        <pt x="586" y="-15" on="0"/>
        <pt x="315" y="-15" on="0"/>
        <pt x="207" y="84" on="0"/>
        <pt x="207" y="187" on="1"/>
        <pt x="207" y="236" on="0"/>
        <pt x="235" y="397" on="0"/>
        <pt x="281" y="514" on="0"/>
        <pt x="320" y="557" on="1"/>
        <pt x="395" y="640" on="0"/>
      </contour>
      <contour>
        <pt x="192" y="317" on="1"/>
        <pt x="190" y="309" on="0"/>
        <pt x="188" y="295" on="1"/>
        <pt x="-205" y="337" on="1"/>
        <pt x="195" y="337" on="1"/>
      </contour>
      <contour>
        <pt x="181" y="241" on="1"/>
        <pt x="178" y="218" on="0"/>
        <pt x="178" y="199" on="1"/>
        <pt x="-216" y="241" on="1"/>
      </contour>
      <contour>
        <pt x="219" y="433" on="1"/>
        <pt x="207" y="392" on="1"/>
        <pt x="-181" y="433" on="1"/>
      </contour>
      <contour>
        <pt x="179" y="145" on="1"/>
        <pt x="183" y="117" on="0"/>
        <pt x="186" y="103" on="1"/>
        <pt x="-203" y="145" on="1"/>
      </contour>
      <contour>
        <pt x="260" y="529" on="1"/>
        <pt x="246" y="503" on="0"/>
        <pt x="240" y="489" on="1"/>
        <pt x="-134" y="529" on="1"/>
      </contour>
      <contour>
        <pt x="209" y="48" on="1"/>
        <pt x="222" y="25" on="0"/>
        <pt x="239" y="11" on="1"/>
        <pt x="-107" y="48" on="1"/>
      </contour>
      <contour>
        <pt x="355" y="625" on="1"/>
        <pt x="326" y="607" on="0"/>
        <pt x="310" y="592" on="1"/>
        <pt x="4" y="625" on="1"/>
      </contour>
    </TTGlyph>
    <TTGlyph name="OE" xMin="-247" yMin="-15" xMax="1030" yMax="640">
      <contour>
        <pt x="441" y="-15" on="1"/>
        <pt x="314" y="-15" on="0"/>
        <pt x="206" y="84" on="0"/>
        <pt x="206" y="187" on="1"/>
        <pt x="206" y="236" on="0"/>
        <pt x="234" y="397" on="0"/>
        <pt x="280" y="514" on="0"/>
        <pt x="319" y="557" on="1"/>
        <pt x="394" y="640" on="0"/>
        <pt x="556" y="640" on="1"/>
        <pt x="626" y="640" on="0"/>
        <pt x="674" y="625" on="1"/>
        <pt x="1030" y="625" on="1"/>
        <pt x="977" y="465" on="1"/>
        <pt x="792" y="465" on="1"/>
        <pt x="778" y="381" on="1"/>
        <pt x="949" y="381" on="1"/>
        <pt x="923" y="236" on="1"/>
        <pt x="752" y="236" on="1"/>
        <pt x="739" y="160" on="1"/>
        <pt x="953" y="160" on="1"/>
        <pt x="925" y="0" on="1"/>
        <pt x="564" y="0" on="1"/>
        <pt x="512" y="-15" on="0"/>
      </contour>
      <contour>
        <pt x="474" y="156" on="1"/>
        <pt x="530" y="156" on="0"/>
        <pt x="545" y="176" on="1"/>
        <pt x="552" y="186" on="0"/>
        <pt x="556" y="202" on="1"/>
        <pt x="603" y="469" on="1"/>
        <pt x="523" y="469" on="1"/>
        <pt x="485" y="469" on="0"/>
        <pt x="447" y="450" on="0"/>
        <pt x="441" y="416" on="1"/>
        <pt x="395" y="156" on="1"/>
      </contour>
      <contour>
        <pt x="354" y="625" on="1"/>
        <pt x="324" y="607" on="0"/>
        <pt x="301" y="584" on="1"/>
        <pt x="-148" y="625" on="1"/>
      </contour>
      <contour>
        <pt x="186" y="292" on="1"/>
        <pt x="-238" y="337" on="1"/>
        <pt x="193" y="337" on="1"/>
        <pt x="190" y="317" on="1"/>
        <pt x="188" y="308" on="0"/>
      </contour>
      <contour>
        <pt x="-215" y="433" on="1"/>
        <pt x="217" y="433" on="1"/>
        <pt x="215" y="426" on="0"/>
        <pt x="205" y="388" on="1"/>
      </contour>
      <contour>
        <pt x="177" y="196" on="1"/>
        <pt x="-247" y="241" on="1"/>
        <pt x="179" y="241" on="1"/>
        <pt x="177" y="209" on="0"/>
      </contour>
      <contour>
        <pt x="187" y="100" on="1"/>
        <pt x="-237" y="145" on="1"/>
        <pt x="179" y="145" on="1"/>
        <pt x="180" y="123" on="0"/>
      </contour>
      <contour>
        <pt x="259" y="529" on="1"/>
        <pt x="241" y="496" on="0"/>
        <pt x="237" y="485" on="1"/>
        <pt x="-165" y="529" on="1"/>
      </contour>
      <contour>
        <pt x="247" y="3" on="1"/>
        <pt x="-177" y="48" on="1"/>
        <pt x="208" y="48" on="1"/>
        <pt x="223" y="22" on="0"/>
      </contour>
    </TTGlyph>
    <TTGlyph name="Oacute" xMin="-216" yMin="-15" xMax="792" yMax="879">
      <contour>
        <pt x="475" y="156" on="1"/>
        <pt x="514" y="156" on="0"/>
        <pt x="552" y="175" on="0"/>
        <pt x="558" y="209" on="1"/>
        <pt x="604" y="469" on="1"/>
        <pt x="524" y="469" on="1"/>
        <pt x="486" y="469" on="0"/>
        <pt x="448" y="450" on="0"/>
        <pt x="442" y="416" on="1"/>
        <pt x="396" y="156" on="1"/>
      </contour>
      <contour>
        <pt x="557" y="640" on="1"/>
        <pt x="684" y="640" on="0"/>
        <pt x="792" y="541" on="0"/>
        <pt x="792" y="335" on="0"/>
        <pt x="727" y="110" on="0"/>
        <pt x="586" y="-15" on="0"/>
        <pt x="315" y="-15" on="0"/>
        <pt x="207" y="84" on="0"/>
        <pt x="207" y="187" on="1"/>
        <pt x="207" y="236" on="0"/>
        <pt x="235" y="397" on="0"/>
        <pt x="281" y="514" on="0"/>
        <pt x="320" y="557" on="1"/>
        <pt x="395" y="640" on="0"/>
      </contour>
      <contour>
        <pt x="192" y="317" on="1"/>
        <pt x="190" y="309" on="0"/>
        <pt x="188" y="295" on="1"/>
        <pt x="-205" y="337" on="1"/>
        <pt x="195" y="337" on="1"/>
      </contour>
      <contour>
        <pt x="181" y="241" on="1"/>
        <pt x="178" y="218" on="0"/>
        <pt x="178" y="199" on="1"/>
        <pt x="-216" y="241" on="1"/>
      </contour>
      <contour>
        <pt x="219" y="433" on="1"/>
        <pt x="207" y="392" on="1"/>
        <pt x="-181" y="433" on="1"/>
      </contour>
      <contour>
        <pt x="179" y="145" on="1"/>
        <pt x="183" y="117" on="0"/>
        <pt x="186" y="103" on="1"/>
        <pt x="-203" y="145" on="1"/>
      </contour>
      <contour>
        <pt x="260" y="529" on="1"/>
        <pt x="246" y="503" on="0"/>
        <pt x="240" y="489" on="1"/>
        <pt x="-134" y="529" on="1"/>
      </contour>
      <contour>
        <pt x="209" y="48" on="1"/>
        <pt x="222" y="25" on="0"/>
        <pt x="239" y="11" on="1"/>
        <pt x="-107" y="48" on="1"/>
      </contour>
      <contour>
        <pt x="355" y="625" on="1"/>
        <pt x="326" y="607" on="0"/>
        <pt x="310" y="592" on="1"/>
        <pt x="4" y="625" on="1"/>
      </contour>
      <contour>
        <pt x="642" y="875" on="1"/>
        <pt x="648" y="879" on="0"/>
        <pt x="662" y="879" on="0"/>
        <pt x="671" y="868" on="1"/>
        <pt x="734" y="794" on="1"/>
        <pt x="743" y="784" on="0"/>
        <pt x="743" y="771" on="0"/>
        <pt x="738" y="764" on="0"/>
        <pt x="694" y="726" on="1"/>
        <pt x="684" y="717" on="0"/>
        <pt x="668" y="714" on="1"/>
        <pt x="494" y="679" on="1"/>
        <pt x="453" y="736" on="1"/>
      </contour>
      <contour>
        <pt x="480" y="794" on="1"/>
        <pt x="120" y="833" on="1"/>
        <pt x="533" y="833" on="1"/>
      </contour>
      <contour>
        <pt x="369" y="713" on="1"/>
        <pt x="9" y="752" on="1"/>
        <pt x="422" y="752" on="1"/>
      </contour>
    </TTGlyph>
    <TTGlyph name="Ocircumflex" xMin="-216" yMin="-15" xMax="792" yMax="880">
      <contour>
        <pt x="475" y="156" on="1"/>
        <pt x="514" y="156" on="0"/>
        <pt x="552" y="175" on="0"/>
        <pt x="558" y="209" on="1"/>
        <pt x="604" y="469" on="1"/>
        <pt x="524" y="469" on="1"/>
        <pt x="486" y="469" on="0"/>
        <pt x="448" y="450" on="0"/>
        <pt x="442" y="416" on="1"/>
        <pt x="396" y="156" on="1"/>
      </contour>
      <contour>
        <pt x="557" y="640" on="1"/>
        <pt x="684" y="640" on="0"/>
        <pt x="792" y="541" on="0"/>
        <pt x="792" y="335" on="0"/>
        <pt x="727" y="110" on="0"/>
        <pt x="586" y="-15" on="0"/>
        <pt x="315" y="-15" on="0"/>
        <pt x="207" y="84" on="0"/>
        <pt x="207" y="187" on="1"/>
        <pt x="207" y="236" on="0"/>
        <pt x="235" y="397" on="0"/>
        <pt x="281" y="514" on="0"/>
        <pt x="320" y="557" on="1"/>
        <pt x="395" y="640" on="0"/>
      </contour>
      <contour>
        <pt x="192" y="317" on="1"/>
        <pt x="190" y="309" on="0"/>
        <pt x="188" y="295" on="1"/>
        <pt x="-205" y="337" on="1"/>
        <pt x="195" y="337" on="1"/>
      </contour>
      <contour>
        <pt x="181" y="241" on="1"/>
        <pt x="178" y="218" on="0"/>
        <pt x="178" y="199" on="1"/>
        <pt x="-216" y="241" on="1"/>
      </contour>
      <contour>
        <pt x="219" y="433" on="1"/>
        <pt x="207" y="392" on="1"/>
        <pt x="-181" y="433" on="1"/>
      </contour>
      <contour>
        <pt x="179" y="145" on="1"/>
        <pt x="183" y="117" on="0"/>
        <pt x="186" y="103" on="1"/>
        <pt x="-203" y="145" on="1"/>
      </contour>
      <contour>
        <pt x="260" y="529" on="1"/>
        <pt x="246" y="503" on="0"/>
        <pt x="240" y="489" on="1"/>
        <pt x="-134" y="529" on="1"/>
      </contour>
      <contour>
        <pt x="209" y="48" on="1"/>
        <pt x="222" y="25" on="0"/>
        <pt x="239" y="11" on="1"/>
        <pt x="-107" y="48" on="1"/>
      </contour>
      <contour>
        <pt x="355" y="625" on="1"/>
        <pt x="326" y="607" on="0"/>
        <pt x="310" y="592" on="1"/>
        <pt x="4" y="625" on="1"/>
      </contour>
      <contour>
        <pt x="573" y="880" on="1"/>
        <pt x="618" y="880" on="1"/>
        <pt x="626" y="880" on="0"/>
        <pt x="631" y="871" on="1"/>
        <pt x="714" y="726" on="1"/>
        <pt x="648" y="677" on="1"/>
        <pt x="570" y="740" on="1"/>
        <pt x="471" y="677" on="1"/>
        <pt x="423" y="726" on="1"/>
        <pt x="555" y="871" on="1"/>
        <pt x="562" y="880" on="0"/>
      </contour>
      <contour>
        <pt x="444" y="794" on="1"/>
        <pt x="121" y="833" on="1"/>
        <pt x="479" y="833" on="1"/>
      </contour>
      <contour>
        <pt x="370" y="713" on="1"/>
        <pt x="40" y="752" on="1"/>
        <pt x="406" y="752" on="1"/>
      </contour>
    </TTGlyph>
    <TTGlyph name="Odieresis" xMin="-216" yMin="-15" xMax="792" yMax="848">
      <contour>
        <pt x="475" y="156" on="1"/>
        <pt x="514" y="156" on="0"/>
        <pt x="552" y="175" on="0"/>
        <pt x="558" y="209" on="1"/>
        <pt x="604" y="469" on="1"/>
        <pt x="524" y="469" on="1"/>
        <pt x="486" y="469" on="0"/>
        <pt x="448" y="450" on="0"/>
        <pt x="442" y="416" on="1"/>
        <pt x="396" y="156" on="1"/>
      </contour>
      <contour>
        <pt x="557" y="640" on="1"/>
        <pt x="684" y="640" on="0"/>
        <pt x="792" y="541" on="0"/>
        <pt x="792" y="335" on="0"/>
        <pt x="727" y="110" on="0"/>
        <pt x="586" y="-15" on="0"/>
        <pt x="315" y="-15" on="0"/>
        <pt x="207" y="84" on="0"/>
        <pt x="207" y="187" on="1"/>
        <pt x="207" y="236" on="0"/>
        <pt x="235" y="397" on="0"/>
        <pt x="281" y="514" on="0"/>
        <pt x="320" y="557" on="1"/>
        <pt x="395" y="640" on="0"/>
      </contour>
      <contour>
        <pt x="192" y="317" on="1"/>
        <pt x="190" y="309" on="0"/>
        <pt x="188" y="295" on="1"/>
        <pt x="-205" y="337" on="1"/>
        <pt x="195" y="337" on="1"/>
      </contour>
      <contour>
        <pt x="181" y="241" on="1"/>
        <pt x="178" y="218" on="0"/>
        <pt x="178" y="199" on="1"/>
        <pt x="-216" y="241" on="1"/>
      </contour>
      <contour>
        <pt x="219" y="433" on="1"/>
        <pt x="207" y="392" on="1"/>
        <pt x="-181" y="433" on="1"/>
      </contour>
      <contour>
        <pt x="179" y="145" on="1"/>
        <pt x="183" y="117" on="0"/>
        <pt x="186" y="103" on="1"/>
        <pt x="-203" y="145" on="1"/>
      </contour>
      <contour>
        <pt x="260" y="529" on="1"/>
        <pt x="246" y="503" on="0"/>
        <pt x="240" y="489" on="1"/>
        <pt x="-134" y="529" on="1"/>
      </contour>
      <contour>
        <pt x="209" y="48" on="1"/>
        <pt x="222" y="25" on="0"/>
        <pt x="239" y="11" on="1"/>
        <pt x="-107" y="48" on="1"/>
      </contour>
      <contour>
        <pt x="355" y="625" on="1"/>
        <pt x="326" y="607" on="0"/>
        <pt x="310" y="592" on="1"/>
        <pt x="4" y="625" on="1"/>
      </contour>
      <contour>
        <pt x="618" y="799" on="0"/>
        <pt x="659" y="848" on="0"/>
        <pt x="744" y="848" on="0"/>
        <pt x="773" y="826" on="0"/>
        <pt x="773" y="800" on="1"/>
        <pt x="773" y="741" on="0"/>
        <pt x="732" y="692" on="0"/>
        <pt x="647" y="692" on="0"/>
        <pt x="618" y="714" on="0"/>
        <pt x="618" y="740" on="1"/>
      </contour>
      <contour>
        <pt x="410" y="799" on="0"/>
        <pt x="451" y="848" on="0"/>
        <pt x="536" y="848" on="0"/>
        <pt x="565" y="826" on="0"/>
        <pt x="565" y="800" on="1"/>
        <pt x="565" y="741" on="0"/>
        <pt x="523" y="692" on="0"/>
        <pt x="439" y="692" on="0"/>
        <pt x="410" y="714" on="0"/>
        <pt x="410" y="740" on="1"/>
      </contour>
      <contour>
        <pt x="397" y="833" on="1"/>
        <pt x="388" y="816" on="0"/>
        <pt x="383" y="787" on="1"/>
        <pt x="81" y="833" on="1"/>
      </contour>
      <contour>
        <pt x="380" y="740" on="1"/>
        <pt x="380" y="722" on="0"/>
        <pt x="383" y="708" on="1"/>
        <pt x="81" y="754" on="1"/>
        <pt x="380" y="754" on="1"/>
      </contour>
    </TTGlyph>
    <TTGlyph name="Ograve" xMin="-216" yMin="-15" xMax="792" yMax="879">
      <contour>
        <pt x="475" y="156" on="1"/>
        <pt x="514" y="156" on="0"/>
        <pt x="552" y="175" on="0"/>
        <pt x="558" y="209" on="1"/>
        <pt x="604" y="469" on="1"/>
        <pt x="524" y="469" on="1"/>
        <pt x="486" y="469" on="0"/>
        <pt x="448" y="450" on="0"/>
        <pt x="442" y="416" on="1"/>
        <pt x="396" y="156" on="1"/>
      </contour>
      <contour>
        <pt x="557" y="640" on="1"/>
        <pt x="684" y="640" on="0"/>
        <pt x="792" y="541" on="0"/>
        <pt x="792" y="335" on="0"/>
        <pt x="727" y="110" on="0"/>
        <pt x="586" y="-15" on="0"/>
        <pt x="315" y="-15" on="0"/>
        <pt x="207" y="84" on="0"/>
        <pt x="207" y="187" on="1"/>
        <pt x="207" y="236" on="0"/>
        <pt x="235" y="397" on="0"/>
        <pt x="281" y="514" on="0"/>
        <pt x="320" y="557" on="1"/>
        <pt x="395" y="640" on="0"/>
      </contour>
      <contour>
        <pt x="192" y="317" on="1"/>
        <pt x="190" y="309" on="0"/>
        <pt x="188" y="295" on="1"/>
        <pt x="-205" y="337" on="1"/>
        <pt x="195" y="337" on="1"/>
      </contour>
      <contour>
        <pt x="181" y="241" on="1"/>
        <pt x="178" y="218" on="0"/>
        <pt x="178" y="199" on="1"/>
        <pt x="-216" y="241" on="1"/>
      </contour>
      <contour>
        <pt x="219" y="433" on="1"/>
        <pt x="207" y="392" on="1"/>
        <pt x="-181" y="433" on="1"/>
      </contour>
      <contour>
        <pt x="179" y="145" on="1"/>
        <pt x="183" y="117" on="0"/>
        <pt x="186" y="103" on="1"/>
        <pt x="-203" y="145" on="1"/>
      </contour>
      <contour>
        <pt x="260" y="529" on="1"/>
        <pt x="246" y="503" on="0"/>
        <pt x="240" y="489" on="1"/>
        <pt x="-134" y="529" on="1"/>
      </contour>
      <contour>
        <pt x="209" y="48" on="1"/>
        <pt x="222" y="25" on="0"/>
        <pt x="239" y="11" on="1"/>
        <pt x="-107" y="48" on="1"/>
      </contour>
      <contour>
        <pt x="355" y="625" on="1"/>
        <pt x="326" y="607" on="0"/>
        <pt x="310" y="592" on="1"/>
        <pt x="4" y="625" on="1"/>
      </contour>
      <contour>
        <pt x="427" y="765" on="1"/>
        <pt x="423" y="769" on="0"/>
        <pt x="423" y="783" on="0"/>
        <pt x="432" y="794" on="1"/>
        <pt x="495" y="868" on="1"/>
        <pt x="504" y="879" on="0"/>
        <pt x="518" y="879" on="0"/>
        <pt x="524" y="875" on="1"/>
        <pt x="713" y="736" on="1"/>
        <pt x="672" y="679" on="1"/>
        <pt x="498" y="714" on="1"/>
        <pt x="482" y="717" on="0"/>
        <pt x="472" y="726" on="1"/>
      </contour>
      <contour>
        <pt x="397" y="794" on="1"/>
        <pt x="2" y="833" on="1"/>
        <pt x="426" y="833" on="1"/>
        <pt x="423" y="829" on="0"/>
        <pt x="416" y="822" on="1"/>
        <pt x="403" y="807" on="0"/>
      </contour>
      <contour>
        <pt x="440" y="713" on="1"/>
        <pt x="32" y="752" on="1"/>
        <pt x="399" y="752" on="1"/>
        <pt x="405" y="743" on="0"/>
      </contour>
    </TTGlyph>
    <TTGlyph name="Omega" xMin="-24" yMin="0" xMax="678" yMax="640">
      <contour>
        <pt x="50" y="313" on="1"/>
        <pt x="50" y="471" on="0"/>
        <pt x="233" y="640" on="0"/>
        <pt x="409" y="640" on="1"/>
        <pt x="556" y="640" on="0"/>
        <pt x="678" y="538" on="0"/>
        <pt x="678" y="447" on="1"/>
        <pt x="678" y="227" on="0"/>
        <pt x="495" y="164" on="1"/>
        <pt x="499" y="152" on="1"/>
        <pt x="641" y="143" on="1"/>
        <pt x="616" y="0" on="1"/>
        <pt x="356" y="0" on="1"/>
        <pt x="386" y="250" on="1"/>
        <pt x="410" y="250" on="0"/>
        <pt x="436" y="254" on="0"/>
        <pt x="460" y="274" on="0"/>
        <pt x="463" y="293" on="1"/>
        <pt x="496" y="480" on="1"/>
        <pt x="334" y="480" on="1"/>
        <pt x="297" y="480" on="0"/>
        <pt x="260" y="462" on="0"/>
        <pt x="255" y="430" on="1"/>
        <pt x="232" y="300" on="1"/>
        <pt x="231" y="295" on="0"/>
        <pt x="231" y="286" on="1"/>
        <pt x="231" y="263" on="0"/>
        <pt x="261" y="250" on="0"/>
        <pt x="294" y="250" on="1"/>
        <pt x="236" y="0" on="1"/>
        <pt x="-24" y="0" on="1"/>
        <pt x="1" y="143" on="1"/>
        <pt x="145" y="152" on="1"/>
        <pt x="153" y="166" on="1"/>
        <pt x="50" y="207" on="0"/>
      </contour>
    </TTGlyph>
    <TTGlyph name="Oslash" xMin="-216" yMin="-79" xMax="792" yMax="704">
      <contour>
        <pt x="697" y="704" on="1"/>
        <pt x="747" y="704" on="1"/>
        <pt x="303" y="-79" on="1"/>
        <pt x="251" y="-79" on="1"/>
      </contour>
      <contour>
        <pt x="475" y="156" on="1"/>
        <pt x="514" y="156" on="0"/>
        <pt x="552" y="175" on="0"/>
        <pt x="558" y="209" on="1"/>
        <pt x="604" y="469" on="1"/>
        <pt x="524" y="469" on="1"/>
        <pt x="486" y="469" on="0"/>
        <pt x="448" y="450" on="0"/>
        <pt x="442" y="416" on="1"/>
        <pt x="396" y="156" on="1"/>
      </contour>
      <contour>
        <pt x="557" y="640" on="1"/>
        <pt x="684" y="640" on="0"/>
        <pt x="792" y="541" on="0"/>
        <pt x="792" y="335" on="0"/>
        <pt x="727" y="110" on="0"/>
        <pt x="586" y="-15" on="0"/>
        <pt x="315" y="-15" on="0"/>
        <pt x="207" y="84" on="0"/>
        <pt x="207" y="187" on="1"/>
        <pt x="207" y="236" on="0"/>
        <pt x="235" y="397" on="0"/>
        <pt x="281" y="514" on="0"/>
        <pt x="320" y="557" on="1"/>
        <pt x="395" y="640" on="0"/>
      </contour>
      <contour>
        <pt x="192" y="317" on="1"/>
        <pt x="190" y="309" on="0"/>
        <pt x="188" y="295" on="1"/>
        <pt x="-205" y="337" on="1"/>
        <pt x="195" y="337" on="1"/>
      </contour>
      <contour>
        <pt x="181" y="241" on="1"/>
        <pt x="178" y="218" on="0"/>
        <pt x="178" y="199" on="1"/>
        <pt x="-216" y="241" on="1"/>
      </contour>
      <contour>
        <pt x="219" y="433" on="1"/>
        <pt x="207" y="392" on="1"/>
        <pt x="-181" y="433" on="1"/>
      </contour>
      <contour>
        <pt x="179" y="145" on="1"/>
        <pt x="183" y="117" on="0"/>
        <pt x="186" y="103" on="1"/>
        <pt x="-203" y="145" on="1"/>
      </contour>
      <contour>
        <pt x="260" y="529" on="1"/>
        <pt x="246" y="503" on="0"/>
        <pt x="240" y="489" on="1"/>
        <pt x="-134" y="529" on="1"/>
      </contour>
      <contour>
        <pt x="209" y="48" on="1"/>
        <pt x="222" y="25" on="0"/>
        <pt x="239" y="11" on="1"/>
        <pt x="-107" y="48" on="1"/>
      </contour>
      <contour>
        <pt x="355" y="625" on="1"/>
        <pt x="326" y="607" on="0"/>
        <pt x="310" y="592" on="1"/>
        <pt x="4" y="625" on="1"/>
      </contour>
    </TTGlyph>
    <TTGlyph name="Otilde" xMin="-216" yMin="-15" xMax="792" yMax="861">
      <contour>
        <pt x="475" y="156" on="1"/>
        <pt x="514" y="156" on="0"/>
        <pt x="552" y="175" on="0"/>
        <pt x="558" y="209" on="1"/>
        <pt x="604" y="469" on="1"/>
        <pt x="524" y="469" on="1"/>
        <pt x="486" y="469" on="0"/>
        <pt x="448" y="450" on="0"/>
        <pt x="442" y="416" on="1"/>
        <pt x="396" y="156" on="1"/>
      </contour>
      <contour>
        <pt x="557" y="640" on="1"/>
        <pt x="684" y="640" on="0"/>
        <pt x="792" y="541" on="0"/>
        <pt x="792" y="335" on="0"/>
        <pt x="727" y="110" on="0"/>
        <pt x="586" y="-15" on="0"/>
        <pt x="315" y="-15" on="0"/>
        <pt x="207" y="84" on="0"/>
        <pt x="207" y="187" on="1"/>
        <pt x="207" y="236" on="0"/>
        <pt x="235" y="397" on="0"/>
        <pt x="281" y="514" on="0"/>
        <pt x="320" y="557" on="1"/>
        <pt x="395" y="640" on="0"/>
      </contour>
      <contour>
        <pt x="192" y="317" on="1"/>
        <pt x="190" y="309" on="0"/>
        <pt x="188" y="295" on="1"/>
        <pt x="-205" y="337" on="1"/>
        <pt x="195" y="337" on="1"/>
      </contour>
      <contour>
        <pt x="181" y="241" on="1"/>
        <pt x="178" y="218" on="0"/>
        <pt x="178" y="199" on="1"/>
        <pt x="-216" y="241" on="1"/>
      </contour>
      <contour>
        <pt x="219" y="433" on="1"/>
        <pt x="207" y="392" on="1"/>
        <pt x="-181" y="433" on="1"/>
      </contour>
      <contour>
        <pt x="179" y="145" on="1"/>
        <pt x="183" y="117" on="0"/>
        <pt x="186" y="103" on="1"/>
        <pt x="-203" y="145" on="1"/>
      </contour>
      <contour>
        <pt x="260" y="529" on="1"/>
        <pt x="246" y="503" on="0"/>
        <pt x="240" y="489" on="1"/>
        <pt x="-134" y="529" on="1"/>
      </contour>
      <contour>
        <pt x="209" y="48" on="1"/>
        <pt x="222" y="25" on="0"/>
        <pt x="239" y="11" on="1"/>
        <pt x="-107" y="48" on="1"/>
      </contour>
      <contour>
        <pt x="355" y="625" on="1"/>
        <pt x="326" y="607" on="0"/>
        <pt x="310" y="592" on="1"/>
        <pt x="4" y="625" on="1"/>
      </contour>
      <contour>
        <pt x="647" y="816" on="1"/>
        <pt x="733" y="856" on="1"/>
        <pt x="766" y="775" on="1"/>
        <pt x="637" y="694" on="0"/>
        <pt x="608" y="683" on="0"/>
        <pt x="583" y="683" on="0"/>
        <pt x="567" y="687" on="0"/>
        <pt x="551" y="698" on="0"/>
        <pt x="546" y="702" on="1"/>
        <pt x="538" y="707" on="0"/>
        <pt x="517" y="728" on="1"/>
        <pt x="432" y="688" on="1"/>
        <pt x="398" y="769" on="1"/>
        <pt x="527" y="850" on="0"/>
        <pt x="556" y="861" on="0"/>
        <pt x="581" y="861" on="0"/>
        <pt x="597" y="857" on="0"/>
        <pt x="613" y="846" on="0"/>
        <pt x="618" y="842" on="1"/>
        <pt x="626" y="837" on="0"/>
      </contour>
      <contour>
        <pt x="444" y="833" on="1"/>
        <pt x="372" y="787" on="1"/>
        <pt x="78" y="833" on="1"/>
      </contour>
      <contour>
        <pt x="372" y="754" on="1"/>
        <pt x="391" y="708" on="1"/>
        <pt x="78" y="754" on="1"/>
      </contour>
    </TTGlyph>
    <TTGlyph name="P" xMin="-250" yMin="0" xMax="784" yMax="625">
      <contour>
        <pt x="544" y="151" on="1"/>
        <pt x="420" y="151" on="1"/>
        <pt x="394" y="0" on="1"/>
        <pt x="204" y="0" on="1"/>
        <pt x="314" y="625" on="1"/>
        <pt x="614" y="625" on="1"/>
        <pt x="784" y="625" on="0"/>
        <pt x="784" y="467" on="1"/>
        <pt x="784" y="392" on="0"/>
        <pt x="742" y="271" on="0"/>
        <pt x="691" y="200" on="0"/>
        <pt x="602" y="151" on="0"/>
      </contour>
      <contour>
        <pt x="492" y="311" on="1"/>
        <pt x="526" y="311" on="0"/>
        <pt x="561" y="326" on="0"/>
        <pt x="566" y="353" on="1"/>
        <pt x="579" y="427" on="0"/>
        <pt x="579" y="434" on="1"/>
        <pt x="579" y="453" on="0"/>
        <pt x="549" y="465" on="0"/>
        <pt x="519" y="465" on="1"/>
        <pt x="475" y="465" on="1"/>
        <pt x="448" y="311" on="1"/>
      </contour>
      <contour>
        <pt x="174" y="3" on="1"/>
        <pt x="-250" y="48" on="1"/>
        <pt x="182" y="48" on="1"/>
      </contour>
      <contour>
        <pt x="208" y="196" on="1"/>
        <pt x="-216" y="241" on="1"/>
        <pt x="216" y="241" on="1"/>
      </contour>
      <contour>
        <pt x="241" y="388" on="1"/>
        <pt x="-182" y="433" on="1"/>
        <pt x="249" y="433" on="1"/>
      </contour>
      <contour>
        <pt x="258" y="484" on="1"/>
        <pt x="-165" y="529" on="1"/>
        <pt x="266" y="529" on="1"/>
      </contour>
      <contour>
        <pt x="191" y="100" on="1"/>
        <pt x="-233" y="145" on="1"/>
        <pt x="199" y="145" on="1"/>
      </contour>
      <contour>
        <pt x="275" y="580" on="1"/>
        <pt x="-148" y="625" on="1"/>
        <pt x="283" y="625" on="1"/>
      </contour>
      <contour>
        <pt x="224" y="292" on="1"/>
        <pt x="-199" y="337" on="1"/>
        <pt x="232" y="337" on="1"/>
      </contour>
    </TTGlyph>
    <TTGlyph name="Q" xMin="-216" yMin="-50" xMax="792" yMax="640">
      <contour>
        <pt x="207" y="187" on="1"/>
        <pt x="207" y="236" on="0"/>
        <pt x="235" y="397" on="0"/>
        <pt x="281" y="514" on="0"/>
        <pt x="320" y="557" on="1"/>
        <pt x="395" y="640" on="0"/>
        <pt x="557" y="640" on="1"/>
        <pt x="683" y="640" on="0"/>
        <pt x="792" y="539" on="0"/>
        <pt x="792" y="339" on="0"/>
        <pt x="734" y="156" on="0"/>
        <pt x="693" y="107" on="1"/>
        <pt x="755" y="65" on="1"/>
        <pt x="685" y="-50" on="1"/>
        <pt x="509" y="-15" on="1"/>
        <pt x="516" y="23" on="1"/>
        <pt x="431" y="0" on="1"/>
        <pt x="310" y="0" on="0"/>
        <pt x="207" y="97" on="0"/>
      </contour>
      <contour>
        <pt x="475" y="156" on="1"/>
        <pt x="514" y="156" on="0"/>
        <pt x="552" y="175" on="0"/>
        <pt x="558" y="209" on="1"/>
        <pt x="604" y="469" on="1"/>
        <pt x="524" y="469" on="1"/>
        <pt x="486" y="469" on="0"/>
        <pt x="448" y="450" on="0"/>
        <pt x="442" y="416" on="1"/>
        <pt x="396" y="156" on="1"/>
      </contour>
      <contour>
        <pt x="195" y="337" on="1"/>
        <pt x="188" y="295" on="1"/>
        <pt x="-205" y="337" on="1"/>
      </contour>
      <contour>
        <pt x="181" y="241" on="1"/>
        <pt x="178" y="218" on="0"/>
        <pt x="178" y="199" on="1"/>
        <pt x="-216" y="241" on="1"/>
      </contour>
      <contour>
        <pt x="219" y="433" on="1"/>
        <pt x="207" y="392" on="1"/>
        <pt x="-181" y="433" on="1"/>
      </contour>
      <contour>
        <pt x="179" y="145" on="1"/>
        <pt x="181" y="128" on="0"/>
        <pt x="187" y="103" on="1"/>
        <pt x="-203" y="145" on="1"/>
      </contour>
      <contour>
        <pt x="260" y="529" on="1"/>
        <pt x="246" y="503" on="0"/>
        <pt x="240" y="489" on="1"/>
        <pt x="-134" y="529" on="1"/>
      </contour>
      <contour>
        <pt x="215" y="48" on="1"/>
        <pt x="229" y="33" on="0"/>
        <pt x="255" y="11" on="1"/>
        <pt x="-107" y="48" on="1"/>
      </contour>
      <contour>
        <pt x="355" y="625" on="1"/>
        <pt x="326" y="607" on="0"/>
        <pt x="310" y="592" on="1"/>
        <pt x="4" y="625" on="1"/>
      </contour>
    </TTGlyph>
    <TTGlyph name="R" xMin="-250" yMin="0" xMax="785" yMax="625">
      <contour>
        <pt x="614" y="625" on="1"/>
        <pt x="785" y="625" on="0"/>
        <pt x="785" y="472" on="1"/>
        <pt x="785" y="409" on="0"/>
        <pt x="766" y="352" on="1"/>
        <pt x="731" y="244" on="0"/>
        <pt x="656" y="208" on="1"/>
        <pt x="722" y="0" on="1"/>
        <pt x="513" y="0" on="1"/>
        <pt x="467" y="186" on="1"/>
        <pt x="426" y="186" on="1"/>
        <pt x="394" y="0" on="1"/>
        <pt x="204" y="0" on="1"/>
        <pt x="314" y="625" on="1"/>
      </contour>
      <contour>
        <pt x="497" y="340" on="1"/>
        <pt x="531" y="340" on="0"/>
        <pt x="566" y="355" on="0"/>
        <pt x="579" y="426" on="0"/>
        <pt x="579" y="434" on="1"/>
        <pt x="579" y="454" on="0"/>
        <pt x="548" y="465" on="0"/>
        <pt x="513" y="465" on="1"/>
        <pt x="475" y="465" on="1"/>
        <pt x="453" y="340" on="1"/>
      </contour>
      <contour>
        <pt x="174" y="3" on="1"/>
        <pt x="-250" y="48" on="1"/>
        <pt x="182" y="48" on="1"/>
      </contour>
      <contour>
        <pt x="208" y="196" on="1"/>
        <pt x="-216" y="241" on="1"/>
        <pt x="216" y="241" on="1"/>
      </contour>
      <contour>
        <pt x="241" y="388" on="1"/>
        <pt x="-182" y="433" on="1"/>
        <pt x="249" y="433" on="1"/>
      </contour>
      <contour>
        <pt x="258" y="484" on="1"/>
        <pt x="-165" y="529" on="1"/>
        <pt x="266" y="529" on="1"/>
      </contour>
      <contour>
        <pt x="191" y="100" on="1"/>
        <pt x="-233" y="145" on="1"/>
        <pt x="199" y="145" on="1"/>
      </contour>
      <contour>
        <pt x="275" y="580" on="1"/>
        <pt x="-148" y="625" on="1"/>
        <pt x="283" y="625" on="1"/>
      </contour>
      <contour>
        <pt x="224" y="292" on="1"/>
        <pt x="-199" y="337" on="1"/>
        <pt x="232" y="337" on="1"/>
      </contour>
    </TTGlyph>
    <TTGlyph name="S" xMin="-166" yMin="-15" xMax="788" yMax="640">
      <contour>
        <pt x="258" y="388" on="1"/>
        <pt x="-166" y="433" on="1"/>
        <pt x="265" y="433" on="1"/>
        <pt x="260" y="413" on="0"/>
      </contour>
      <contour>
        <pt x="292" y="529" on="1"/>
        <pt x="277" y="485" on="1"/>
        <pt x="-138" y="529" on="1"/>
      </contour>
      <contour>
        <pt x="258" y="337" on="1"/>
        <pt x="260" y="310" on="0"/>
        <pt x="266" y="292" on="1"/>
        <pt x="-157" y="337" on="1"/>
      </contour>
      <contour>
        <pt x="398" y="196" on="1"/>
        <pt x="-131" y="241" on="1"/>
        <pt x="300" y="241" on="1"/>
        <pt x="333" y="209" on="0"/>
      </contour>
      <contour>
        <pt x="367" y="625" on="1"/>
        <pt x="344" y="610" on="0"/>
        <pt x="323" y="584" on="1"/>
        <pt x="-63" y="625" on="1"/>
      </contour>
      <contour>
        <pt x="-148" y="145" on="1"/>
        <pt x="226" y="145" on="1"/>
        <pt x="211" y="101" on="1"/>
      </contour>
      <contour>
        <pt x="-165" y="48" on="1"/>
        <pt x="194" y="48" on="1"/>
        <pt x="179" y="4" on="1"/>
      </contour>
      <contour>
        <pt x="269" y="176" on="1"/>
        <pt x="353" y="153" on="0"/>
        <pt x="492" y="153" on="0"/>
        <pt x="536" y="159" on="1"/>
        <pt x="544" y="209" on="1"/>
        <pt x="461" y="217" on="1"/>
        <pt x="366" y="226" on="0"/>
        <pt x="287" y="294" on="0"/>
        <pt x="287" y="356" on="1"/>
        <pt x="287" y="383" on="0"/>
        <pt x="293" y="416" on="1"/>
        <pt x="316" y="544" on="0"/>
        <pt x="438" y="640" on="0"/>
        <pt x="691" y="640" on="0"/>
        <pt x="788" y="615" on="1"/>
        <pt x="736" y="455" on="1"/>
        <pt x="649" y="470" on="0"/>
        <pt x="544" y="470" on="0"/>
        <pt x="506" y="465" on="1"/>
        <pt x="498" y="416" on="1"/>
        <pt x="565" y="409" on="1"/>
        <pt x="667" y="398" on="0"/>
        <pt x="753" y="323" on="0"/>
        <pt x="753" y="260" on="1"/>
        <pt x="753" y="196" on="0"/>
        <pt x="726" y="128" on="1"/>
        <pt x="711" y="93" on="0"/>
        <pt x="678" y="46" on="0"/>
        <pt x="627" y="13" on="0"/>
        <pt x="585" y="-4" on="0"/>
        <pt x="552" y="-8" on="1"/>
        <pt x="506" y="-15" on="0"/>
        <pt x="438" y="-15" on="1"/>
        <pt x="314" y="-15" on="0"/>
        <pt x="213" y="11" on="1"/>
      </contour>
    </TTGlyph>
    <TTGlyph name="Scaron" xMin="-166" yMin="-15" xMax="788" yMax="880">
      <contour>
        <pt x="258" y="388" on="1"/>
        <pt x="-166" y="433" on="1"/>
        <pt x="265" y="433" on="1"/>
        <pt x="260" y="413" on="0"/>
      </contour>
      <contour>
        <pt x="292" y="529" on="1"/>
        <pt x="277" y="485" on="1"/>
        <pt x="-138" y="529" on="1"/>
      </contour>
      <contour>
        <pt x="258" y="337" on="1"/>
        <pt x="260" y="310" on="0"/>
        <pt x="266" y="292" on="1"/>
        <pt x="-157" y="337" on="1"/>
      </contour>
      <contour>
        <pt x="398" y="196" on="1"/>
        <pt x="-131" y="241" on="1"/>
        <pt x="300" y="241" on="1"/>
        <pt x="333" y="209" on="0"/>
      </contour>
      <contour>
        <pt x="367" y="625" on="1"/>
        <pt x="344" y="610" on="0"/>
        <pt x="323" y="584" on="1"/>
        <pt x="-63" y="625" on="1"/>
      </contour>
      <contour>
        <pt x="-148" y="145" on="1"/>
        <pt x="226" y="145" on="1"/>
        <pt x="211" y="101" on="1"/>
      </contour>
      <contour>
        <pt x="-165" y="48" on="1"/>
        <pt x="194" y="48" on="1"/>
        <pt x="179" y="4" on="1"/>
      </contour>
      <contour>
        <pt x="269" y="176" on="1"/>
        <pt x="353" y="153" on="0"/>
        <pt x="492" y="153" on="0"/>
        <pt x="536" y="159" on="1"/>
        <pt x="544" y="209" on="1"/>
        <pt x="461" y="217" on="1"/>
        <pt x="366" y="226" on="0"/>
        <pt x="287" y="294" on="0"/>
        <pt x="287" y="356" on="1"/>
        <pt x="287" y="383" on="0"/>
        <pt x="293" y="416" on="1"/>
        <pt x="316" y="544" on="0"/>
        <pt x="438" y="640" on="0"/>
        <pt x="691" y="640" on="0"/>
        <pt x="788" y="615" on="1"/>
        <pt x="736" y="455" on="1"/>
        <pt x="649" y="470" on="0"/>
        <pt x="544" y="470" on="0"/>
        <pt x="506" y="465" on="1"/>
        <pt x="498" y="416" on="1"/>
        <pt x="565" y="409" on="1"/>
        <pt x="667" y="398" on="0"/>
        <pt x="753" y="323" on="0"/>
        <pt x="753" y="260" on="1"/>
        <pt x="753" y="196" on="0"/>
        <pt x="726" y="128" on="1"/>
        <pt x="711" y="93" on="0"/>
        <pt x="678" y="46" on="0"/>
        <pt x="627" y="13" on="0"/>
        <pt x="585" y="-4" on="0"/>
        <pt x="552" y="-8" on="1"/>
        <pt x="506" y="-15" on="0"/>
        <pt x="438" y="-15" on="1"/>
        <pt x="314" y="-15" on="0"/>
        <pt x="213" y="11" on="1"/>
      </contour>
      <contour>
        <pt x="588" y="677" on="1"/>
        <pt x="543" y="677" on="1"/>
        <pt x="535" y="677" on="0"/>
        <pt x="530" y="686" on="1"/>
        <pt x="447" y="831" on="1"/>
        <pt x="513" y="880" on="1"/>
        <pt x="591" y="817" on="1"/>
        <pt x="690" y="880" on="1"/>
        <pt x="738" y="831" on="1"/>
        <pt x="606" y="686" on="1"/>
        <pt x="598" y="677" on="0"/>
      </contour>
      <contour>
        <pt x="433" y="794" on="1"/>
        <pt x="32" y="833" on="1"/>
        <pt x="410" y="833" on="1"/>
      </contour>
      <contour>
        <pt x="479" y="713" on="1"/>
        <pt x="71" y="752" on="1"/>
        <pt x="457" y="752" on="1"/>
      </contour>
    </TTGlyph>
    <TTGlyph name="T" xMin="-180" yMin="0" xMax="765" yMax="625">
      <contour>
        <pt x="736" y="465" on="1"/>
        <pt x="598" y="465" on="1"/>
        <pt x="517" y="0" on="1"/>
        <pt x="327" y="0" on="1"/>
        <pt x="408" y="465" on="1"/>
        <pt x="271" y="465" on="1"/>
        <pt x="300" y="625" on="1"/>
        <pt x="765" y="625" on="1"/>
      </contour>
      <contour>
        <pt x="296" y="3" on="1"/>
        <pt x="-128" y="48" on="1"/>
        <pt x="304" y="48" on="1"/>
      </contour>
      <contour>
        <pt x="330" y="196" on="1"/>
        <pt x="-94" y="241" on="1"/>
        <pt x="338" y="241" on="1"/>
      </contour>
      <contour>
        <pt x="347" y="292" on="1"/>
        <pt x="-77" y="337" on="1"/>
        <pt x="355" y="337" on="1"/>
      </contour>
      <contour>
        <pt x="364" y="388" on="1"/>
        <pt x="-60" y="433" on="1"/>
        <pt x="372" y="433" on="1"/>
      </contour>
      <contour>
        <pt x="313" y="100" on="1"/>
        <pt x="-111" y="145" on="1"/>
        <pt x="321" y="145" on="1"/>
      </contour>
      <contour>
        <pt x="244" y="484" on="1"/>
        <pt x="-180" y="529" on="1"/>
        <pt x="251" y="529" on="1"/>
      </contour>
      <contour>
        <pt x="260" y="580" on="1"/>
        <pt x="-163" y="625" on="1"/>
        <pt x="268" y="625" on="1"/>
      </contour>
    </TTGlyph>
    <TTGlyph name="Thorn" xMin="-250" yMin="0" xMax="771" yMax="625">
      <contour>
        <pt x="174" y="3" on="1"/>
        <pt x="-250" y="48" on="1"/>
        <pt x="182" y="48" on="1"/>
      </contour>
      <contour>
        <pt x="208" y="196" on="1"/>
        <pt x="-216" y="241" on="1"/>
        <pt x="216" y="241" on="1"/>
      </contour>
      <contour>
        <pt x="241" y="388" on="1"/>
        <pt x="-182" y="433" on="1"/>
        <pt x="249" y="433" on="1"/>
      </contour>
      <contour>
        <pt x="258" y="484" on="1"/>
        <pt x="-165" y="529" on="1"/>
        <pt x="266" y="529" on="1"/>
      </contour>
      <contour>
        <pt x="191" y="100" on="1"/>
        <pt x="-233" y="145" on="1"/>
        <pt x="199" y="145" on="1"/>
      </contour>
      <contour>
        <pt x="275" y="580" on="1"/>
        <pt x="-148" y="625" on="1"/>
        <pt x="283" y="625" on="1"/>
      </contour>
      <contour>
        <pt x="224" y="292" on="1"/>
        <pt x="-199" y="337" on="1"/>
        <pt x="232" y="337" on="1"/>
      </contour>
      <contour>
        <pt x="531" y="76" on="1"/>
        <pt x="407" y="76" on="1"/>
        <pt x="394" y="0" on="1"/>
        <pt x="204" y="0" on="1"/>
        <pt x="314" y="625" on="1"/>
        <pt x="504" y="625" on="1"/>
        <pt x="490" y="550" on="1"/>
        <pt x="600" y="550" on="1"/>
        <pt x="771" y="550" on="0"/>
        <pt x="771" y="391" on="1"/>
        <pt x="771" y="315" on="0"/>
        <pt x="728" y="196" on="0"/>
        <pt x="678" y="125" on="0"/>
        <pt x="588" y="76" on="0"/>
      </contour>
      <contour>
        <pt x="479" y="236" on="1"/>
        <pt x="513" y="236" on="0"/>
        <pt x="548" y="251" on="0"/>
        <pt x="553" y="278" on="1"/>
        <pt x="565" y="348" on="1"/>
        <pt x="566" y="352" on="0"/>
        <pt x="566" y="359" on="1"/>
        <pt x="566" y="378" on="0"/>
        <pt x="536" y="390" on="0"/>
        <pt x="506" y="390" on="1"/>
        <pt x="462" y="390" on="1"/>
        <pt x="435" y="236" on="1"/>
      </contour>
    </TTGlyph>
    <TTGlyph name="U" xMin="-216" yMin="-15" xMax="821" yMax="625">
      <contour>
        <pt x="238" y="388" on="1"/>
        <pt x="-186" y="433" on="1"/>
        <pt x="246" y="433" on="1"/>
      </contour>
      <contour>
        <pt x="221" y="292" on="1"/>
        <pt x="-202" y="337" on="1"/>
        <pt x="229" y="337" on="1"/>
      </contour>
      <contour>
        <pt x="272" y="580" on="1"/>
        <pt x="-151" y="625" on="1"/>
        <pt x="280" y="625" on="1"/>
      </contour>
      <contour>
        <pt x="-168" y="529" on="1"/>
        <pt x="263" y="529" on="1"/>
        <pt x="255" y="484" on="1"/>
      </contour>
      <contour>
        <pt x="212" y="241" on="1"/>
        <pt x="208" y="208" on="0"/>
        <pt x="207" y="196" on="1"/>
        <pt x="-216" y="241" on="1"/>
      </contour>
      <contour>
        <pt x="205" y="145" on="1"/>
        <pt x="205" y="121" on="0"/>
        <pt x="208" y="100" on="1"/>
        <pt x="-215" y="145" on="1"/>
      </contour>
      <contour>
        <pt x="222" y="48" on="1"/>
        <pt x="235" y="20" on="0"/>
        <pt x="254" y="3" on="1"/>
        <pt x="-169" y="48" on="1"/>
      </contour>
      <contour>
        <pt x="486" y="156" on="1"/>
        <pt x="521" y="156" on="0"/>
        <pt x="551" y="175" on="0"/>
        <pt x="557" y="209" on="1"/>
        <pt x="631" y="625" on="1"/>
        <pt x="821" y="625" on="1"/>
        <pt x="759" y="274" on="1"/>
        <pt x="744" y="189" on="0"/>
        <pt x="705" y="85" on="0"/>
        <pt x="635" y="13" on="0"/>
        <pt x="532" y="-15" on="0"/>
        <pt x="453" y="-15" on="1"/>
        <pt x="332" y="-15" on="0"/>
        <pt x="235" y="58" on="0"/>
        <pt x="235" y="147" on="1"/>
        <pt x="235" y="196" on="0"/>
        <pt x="249" y="274" on="1"/>
        <pt x="311" y="625" on="1"/>
        <pt x="501" y="625" on="1"/>
        <pt x="418" y="156" on="1"/>
      </contour>
    </TTGlyph>
    <TTGlyph name="Uacute" xMin="-216" yMin="-15" xMax="821" yMax="879">
      <contour>
        <pt x="238" y="388" on="1"/>
        <pt x="-186" y="433" on="1"/>
        <pt x="246" y="433" on="1"/>
      </contour>
      <contour>
        <pt x="221" y="292" on="1"/>
        <pt x="-202" y="337" on="1"/>
        <pt x="229" y="337" on="1"/>
      </contour>
      <contour>
        <pt x="272" y="580" on="1"/>
        <pt x="-151" y="625" on="1"/>
        <pt x="280" y="625" on="1"/>
      </contour>
      <contour>
        <pt x="-168" y="529" on="1"/>
        <pt x="263" y="529" on="1"/>
        <pt x="255" y="484" on="1"/>
      </contour>
      <contour>
        <pt x="212" y="241" on="1"/>
        <pt x="208" y="208" on="0"/>
        <pt x="207" y="196" on="1"/>
        <pt x="-216" y="241" on="1"/>
      </contour>
      <contour>
        <pt x="205" y="145" on="1"/>
        <pt x="205" y="121" on="0"/>
        <pt x="208" y="100" on="1"/>
        <pt x="-215" y="145" on="1"/>
      </contour>
      <contour>
        <pt x="222" y="48" on="1"/>
        <pt x="235" y="20" on="0"/>
        <pt x="254" y="3" on="1"/>
        <pt x="-169" y="48" on="1"/>
      </contour>
      <contour>
        <pt x="486" y="156" on="1"/>
        <pt x="521" y="156" on="0"/>
        <pt x="551" y="175" on="0"/>
        <pt x="557" y="209" on="1"/>
        <pt x="631" y="625" on="1"/>
        <pt x="821" y="625" on="1"/>
        <pt x="759" y="274" on="1"/>
        <pt x="744" y="189" on="0"/>
        <pt x="705" y="85" on="0"/>
        <pt x="635" y="13" on="0"/>
        <pt x="532" y="-15" on="0"/>
        <pt x="453" y="-15" on="1"/>
        <pt x="332" y="-15" on="0"/>
        <pt x="235" y="58" on="0"/>
        <pt x="235" y="147" on="1"/>
        <pt x="235" y="196" on="0"/>
        <pt x="249" y="274" on="1"/>
        <pt x="311" y="625" on="1"/>
        <pt x="501" y="625" on="1"/>
        <pt x="418" y="156" on="1"/>
      </contour>
      <contour>
        <pt x="641" y="875" on="1"/>
        <pt x="647" y="879" on="0"/>
        <pt x="661" y="879" on="0"/>
        <pt x="670" y="868" on="1"/>
        <pt x="733" y="794" on="1"/>
        <pt x="742" y="784" on="0"/>
        <pt x="742" y="771" on="0"/>
        <pt x="737" y="764" on="0"/>
        <pt x="693" y="726" on="1"/>
        <pt x="683" y="717" on="0"/>
        <pt x="667" y="714" on="1"/>
        <pt x="493" y="679" on="1"/>
        <pt x="452" y="736" on="1"/>
      </contour>
      <contour>
        <pt x="479" y="794" on="1"/>
        <pt x="119" y="833" on="1"/>
        <pt x="532" y="833" on="1"/>
      </contour>
      <contour>
        <pt x="368" y="713" on="1"/>
        <pt x="8" y="752" on="1"/>
        <pt x="421" y="752" on="1"/>
      </contour>
    </TTGlyph>
    <TTGlyph name="Ucircumflex" xMin="-216" yMin="-15" xMax="821" yMax="880">
      <contour>
        <pt x="238" y="388" on="1"/>
        <pt x="-186" y="433" on="1"/>
        <pt x="246" y="433" on="1"/>
      </contour>
      <contour>
        <pt x="221" y="292" on="1"/>
        <pt x="-202" y="337" on="1"/>
        <pt x="229" y="337" on="1"/>
      </contour>
      <contour>
        <pt x="272" y="580" on="1"/>
        <pt x="-151" y="625" on="1"/>
        <pt x="280" y="625" on="1"/>
      </contour>
      <contour>
        <pt x="-168" y="529" on="1"/>
        <pt x="263" y="529" on="1"/>
        <pt x="255" y="484" on="1"/>
      </contour>
      <contour>
        <pt x="212" y="241" on="1"/>
        <pt x="208" y="208" on="0"/>
        <pt x="207" y="196" on="1"/>
        <pt x="-216" y="241" on="1"/>
      </contour>
      <contour>
        <pt x="205" y="145" on="1"/>
        <pt x="205" y="121" on="0"/>
        <pt x="208" y="100" on="1"/>
        <pt x="-215" y="145" on="1"/>
      </contour>
      <contour>
        <pt x="222" y="48" on="1"/>
        <pt x="235" y="20" on="0"/>
        <pt x="254" y="3" on="1"/>
        <pt x="-169" y="48" on="1"/>
      </contour>
      <contour>
        <pt x="486" y="156" on="1"/>
        <pt x="521" y="156" on="0"/>
        <pt x="551" y="175" on="0"/>
        <pt x="557" y="209" on="1"/>
        <pt x="631" y="625" on="1"/>
        <pt x="821" y="625" on="1"/>
        <pt x="759" y="274" on="1"/>
        <pt x="744" y="189" on="0"/>
        <pt x="705" y="85" on="0"/>
        <pt x="635" y="13" on="0"/>
        <pt x="532" y="-15" on="0"/>
        <pt x="453" y="-15" on="1"/>
        <pt x="332" y="-15" on="0"/>
        <pt x="235" y="58" on="0"/>
        <pt x="235" y="147" on="1"/>
        <pt x="235" y="196" on="0"/>
        <pt x="249" y="274" on="1"/>
        <pt x="311" y="625" on="1"/>
        <pt x="501" y="625" on="1"/>
        <pt x="418" y="156" on="1"/>
      </contour>
      <contour>
        <pt x="582" y="880" on="1"/>
        <pt x="627" y="880" on="1"/>
        <pt x="635" y="880" on="0"/>
        <pt x="640" y="871" on="1"/>
        <pt x="723" y="726" on="1"/>
        <pt x="657" y="677" on="1"/>
        <pt x="579" y="740" on="1"/>
        <pt x="480" y="677" on="1"/>
        <pt x="432" y="726" on="1"/>
        <pt x="564" y="871" on="1"/>
        <pt x="572" y="880" on="0"/>
      </contour>
      <contour>
        <pt x="453" y="794" on="1"/>
        <pt x="130" y="833" on="1"/>
        <pt x="488" y="833" on="1"/>
      </contour>
      <contour>
        <pt x="379" y="713" on="1"/>
        <pt x="49" y="752" on="1"/>
        <pt x="415" y="752" on="1"/>
      </contour>
    </TTGlyph>
    <TTGlyph name="Udieresis" xMin="-216" yMin="-15" xMax="821" yMax="848">
      <contour>
        <pt x="238" y="388" on="1"/>
        <pt x="-186" y="433" on="1"/>
        <pt x="246" y="433" on="1"/>
      </contour>
      <contour>
        <pt x="221" y="292" on="1"/>
        <pt x="-202" y="337" on="1"/>
        <pt x="229" y="337" on="1"/>
      </contour>
      <contour>
        <pt x="272" y="580" on="1"/>
        <pt x="-151" y="625" on="1"/>
        <pt x="280" y="625" on="1"/>
      </contour>
      <contour>
        <pt x="-168" y="529" on="1"/>
        <pt x="263" y="529" on="1"/>
        <pt x="255" y="484" on="1"/>
      </contour>
      <contour>
        <pt x="212" y="241" on="1"/>
        <pt x="208" y="208" on="0"/>
        <pt x="207" y="196" on="1"/>
        <pt x="-216" y="241" on="1"/>
      </contour>
      <contour>
        <pt x="205" y="145" on="1"/>
        <pt x="205" y="121" on="0"/>
        <pt x="208" y="100" on="1"/>
        <pt x="-215" y="145" on="1"/>
      </contour>
      <contour>
        <pt x="222" y="48" on="1"/>
        <pt x="235" y="20" on="0"/>
        <pt x="254" y="3" on="1"/>
        <pt x="-169" y="48" on="1"/>
      </contour>
      <contour>
        <pt x="486" y="156" on="1"/>
        <pt x="521" y="156" on="0"/>
        <pt x="551" y="175" on="0"/>
        <pt x="557" y="209" on="1"/>
        <pt x="631" y="625" on="1"/>
        <pt x="821" y="625" on="1"/>
        <pt x="759" y="274" on="1"/>
        <pt x="744" y="189" on="0"/>
        <pt x="705" y="85" on="0"/>
        <pt x="635" y="13" on="0"/>
        <pt x="532" y="-15" on="0"/>
        <pt x="453" y="-15" on="1"/>
        <pt x="332" y="-15" on="0"/>
        <pt x="235" y="58" on="0"/>
        <pt x="235" y="147" on="1"/>
        <pt x="235" y="196" on="0"/>
        <pt x="249" y="274" on="1"/>
        <pt x="311" y="625" on="1"/>
        <pt x="501" y="625" on="1"/>
        <pt x="418" y="156" on="1"/>
      </contour>
      <contour>
        <pt x="618" y="799" on="0"/>
        <pt x="659" y="848" on="0"/>
        <pt x="744" y="848" on="0"/>
        <pt x="773" y="826" on="0"/>
        <pt x="773" y="800" on="1"/>
        <pt x="773" y="741" on="0"/>
        <pt x="732" y="692" on="0"/>
        <pt x="647" y="692" on="0"/>
        <pt x="618" y="714" on="0"/>
        <pt x="618" y="740" on="1"/>
      </contour>
      <contour>
        <pt x="410" y="799" on="0"/>
        <pt x="451" y="848" on="0"/>
        <pt x="536" y="848" on="0"/>
        <pt x="565" y="826" on="0"/>
        <pt x="565" y="800" on="1"/>
        <pt x="565" y="741" on="0"/>
        <pt x="523" y="692" on="0"/>
        <pt x="439" y="692" on="0"/>
        <pt x="410" y="714" on="0"/>
        <pt x="410" y="740" on="1"/>
      </contour>
      <contour>
        <pt x="397" y="833" on="1"/>
        <pt x="388" y="816" on="0"/>
        <pt x="383" y="787" on="1"/>
        <pt x="81" y="833" on="1"/>
      </contour>
      <contour>
        <pt x="380" y="740" on="1"/>
        <pt x="380" y="722" on="0"/>
        <pt x="383" y="708" on="1"/>
        <pt x="81" y="754" on="1"/>
        <pt x="380" y="754" on="1"/>
      </contour>
    </TTGlyph>
    <TTGlyph name="Ugrave" xMin="-216" yMin="-15" xMax="821" yMax="879">
      <contour>
        <pt x="238" y="388" on="1"/>
        <pt x="-186" y="433" on="1"/>
        <pt x="246" y="433" on="1"/>
      </contour>
      <contour>
        <pt x="221" y="292" on="1"/>
        <pt x="-202" y="337" on="1"/>
        <pt x="229" y="337" on="1"/>
      </contour>
      <contour>
        <pt x="272" y="580" on="1"/>
        <pt x="-151" y="625" on="1"/>
        <pt x="280" y="625" on="1"/>
      </contour>
      <contour>
        <pt x="-168" y="529" on="1"/>
        <pt x="263" y="529" on="1"/>
        <pt x="255" y="484" on="1"/>
      </contour>
      <contour>
        <pt x="212" y="241" on="1"/>
        <pt x="208" y="208" on="0"/>
        <pt x="207" y="196" on="1"/>
        <pt x="-216" y="241" on="1"/>
      </contour>
      <contour>
        <pt x="205" y="145" on="1"/>
        <pt x="205" y="121" on="0"/>
        <pt x="208" y="100" on="1"/>
        <pt x="-215" y="145" on="1"/>
      </contour>
      <contour>
        <pt x="222" y="48" on="1"/>
        <pt x="235" y="20" on="0"/>
        <pt x="254" y="3" on="1"/>
        <pt x="-169" y="48" on="1"/>
      </contour>
      <contour>
        <pt x="486" y="156" on="1"/>
        <pt x="521" y="156" on="0"/>
        <pt x="551" y="175" on="0"/>
        <pt x="557" y="209" on="1"/>
        <pt x="631" y="625" on="1"/>
        <pt x="821" y="625" on="1"/>
        <pt x="759" y="274" on="1"/>
        <pt x="744" y="189" on="0"/>
        <pt x="705" y="85" on="0"/>
        <pt x="635" y="13" on="0"/>
        <pt x="532" y="-15" on="0"/>
        <pt x="453" y="-15" on="1"/>
        <pt x="332" y="-15" on="0"/>
        <pt x="235" y="58" on="0"/>
        <pt x="235" y="147" on="1"/>
        <pt x="235" y="196" on="0"/>
        <pt x="249" y="274" on="1"/>
        <pt x="311" y="625" on="1"/>
        <pt x="501" y="625" on="1"/>
        <pt x="418" y="156" on="1"/>
      </contour>
      <contour>
        <pt x="427" y="765" on="1"/>
        <pt x="423" y="769" on="0"/>
        <pt x="423" y="783" on="0"/>
        <pt x="432" y="794" on="1"/>
        <pt x="495" y="868" on="1"/>
        <pt x="504" y="879" on="0"/>
        <pt x="518" y="879" on="0"/>
        <pt x="524" y="875" on="1"/>
        <pt x="713" y="736" on="1"/>
        <pt x="672" y="679" on="1"/>
        <pt x="498" y="714" on="1"/>
        <pt x="482" y="717" on="0"/>
        <pt x="472" y="726" on="1"/>
      </contour>
      <contour>
        <pt x="397" y="794" on="1"/>
        <pt x="2" y="833" on="1"/>
        <pt x="426" y="833" on="1"/>
        <pt x="423" y="829" on="0"/>
        <pt x="416" y="822" on="1"/>
        <pt x="403" y="807" on="0"/>
      </contour>
      <contour>
        <pt x="440" y="713" on="1"/>
        <pt x="32" y="752" on="1"/>
        <pt x="399" y="752" on="1"/>
        <pt x="405" y="743" on="0"/>
      </contour>
    </TTGlyph>
    <TTGlyph name="V" xMin="-180" yMin="0" xMax="843" yMax="625">
      <contour>
        <pt x="-146" y="48" on="1"/>
        <pt x="275" y="48" on="1"/>
        <pt x="278" y="3" on="1"/>
      </contour>
      <contour>
        <pt x="-152" y="145" on="1"/>
        <pt x="269" y="145" on="1"/>
        <pt x="272" y="100" on="1"/>
      </contour>
      <contour>
        <pt x="-175" y="529" on="1"/>
        <pt x="246" y="529" on="1"/>
        <pt x="249" y="484" on="1"/>
      </contour>
      <contour>
        <pt x="-169" y="433" on="1"/>
        <pt x="252" y="433" on="1"/>
        <pt x="254" y="388" on="1"/>
      </contour>
      <contour>
        <pt x="-180" y="625" on="1"/>
        <pt x="241" y="625" on="1"/>
        <pt x="243" y="580" on="1"/>
      </contour>
      <contour>
        <pt x="-163" y="337" on="1"/>
        <pt x="257" y="337" on="1"/>
        <pt x="260" y="292" on="1"/>
      </contour>
      <contour>
        <pt x="-157" y="241" on="1"/>
        <pt x="263" y="241" on="1"/>
        <pt x="266" y="196" on="1"/>
      </contour>
      <contour>
        <pt x="482" y="625" on="1"/>
        <pt x="482" y="228" on="1"/>
        <pt x="491" y="228" on="1"/>
        <pt x="642" y="625" on="1"/>
        <pt x="843" y="625" on="1"/>
        <pt x="586" y="0" on="1"/>
        <pt x="308" y="0" on="1"/>
        <pt x="271" y="625" on="1"/>
      </contour>
    </TTGlyph>
    <TTGlyph name="W" xMin="-170" yMin="0" xMax="1033" yMax="625">
      <contour>
        <pt x="223" y="625" on="1"/>
        <pt x="223" y="580" on="1"/>
        <pt x="-170" y="625" on="1"/>
      </contour>
      <contour>
        <pt x="223" y="529" on="1"/>
        <pt x="223" y="484" on="1"/>
        <pt x="-170" y="529" on="1"/>
      </contour>
      <contour>
        <pt x="223" y="433" on="1"/>
        <pt x="223" y="388" on="1"/>
        <pt x="-170" y="433" on="1"/>
      </contour>
      <contour>
        <pt x="223" y="337" on="1"/>
        <pt x="223" y="292" on="1"/>
        <pt x="-170" y="337" on="1"/>
      </contour>
      <contour>
        <pt x="223" y="241" on="1"/>
        <pt x="223" y="196" on="1"/>
        <pt x="-170" y="241" on="1"/>
      </contour>
      <contour>
        <pt x="223" y="145" on="1"/>
        <pt x="223" y="100" on="1"/>
        <pt x="-170" y="145" on="1"/>
      </contour>
      <contour>
        <pt x="223" y="48" on="1"/>
        <pt x="223" y="3" on="1"/>
        <pt x="-170" y="48" on="1"/>
      </contour>
      <contour>
        <pt x="578" y="0" on="1"/>
        <pt x="578" y="230" on="1"/>
        <pt x="567" y="230" on="1"/>
        <pt x="484" y="0" on="1"/>
        <pt x="253" y="0" on="1"/>
        <pt x="253" y="625" on="1"/>
        <pt x="452" y="625" on="1"/>
        <pt x="434" y="276" on="1"/>
        <pt x="440" y="276" on="1"/>
        <pt x="570" y="625" on="1"/>
        <pt x="721" y="625" on="1"/>
        <pt x="721" y="276" on="1"/>
        <pt x="727" y="276" on="1"/>
        <pt x="834" y="625" on="1"/>
        <pt x="1033" y="625" on="1"/>
        <pt x="830" y="0" on="1"/>
      </contour>
    </TTGlyph>
    <TTGlyph name="X" xMin="-289" yMin="0" xMax="822" yMax="625">
      <contour>
        <pt x="284" y="293" on="1"/>
        <pt x="-127" y="337" on="1"/>
        <pt x="299" y="337" on="1"/>
        <pt x="302" y="324" on="1"/>
      </contour>
      <contour>
        <pt x="-289" y="48" on="1"/>
        <pt x="143" y="48" on="1"/>
        <pt x="118" y="5" on="1"/>
      </contour>
      <contour>
        <pt x="286" y="388" on="1"/>
        <pt x="-137" y="433" on="1"/>
        <pt x="275" y="433" on="1"/>
      </contour>
      <contour>
        <pt x="229" y="198" on="1"/>
        <pt x="-177" y="241" on="1"/>
        <pt x="254" y="241" on="1"/>
      </contour>
      <contour>
        <pt x="263" y="484" on="1"/>
        <pt x="-160" y="529" on="1"/>
        <pt x="252" y="529" on="1"/>
        <pt x="255" y="514" on="0"/>
      </contour>
      <contour>
        <pt x="240" y="580" on="1"/>
        <pt x="-183" y="625" on="1"/>
        <pt x="229" y="625" on="1"/>
        <pt x="232" y="610" on="0"/>
      </contour>
      <contour>
        <pt x="174" y="102" on="1"/>
        <pt x="-232" y="145" on="1"/>
        <pt x="199" y="145" on="1"/>
      </contour>
      <contour>
        <pt x="476" y="625" on="1"/>
        <pt x="511" y="458" on="1"/>
        <pt x="521" y="458" on="1"/>
        <pt x="616" y="625" on="1"/>
        <pt x="822" y="625" on="1"/>
        <pt x="636" y="323" on="1"/>
        <pt x="712" y="0" on="1"/>
        <pt x="501" y="0" on="1"/>
        <pt x="461" y="180" on="1"/>
        <pt x="453" y="180" on="1"/>
        <pt x="351" y="0" on="1"/>
        <pt x="150" y="0" on="1"/>
        <pt x="334" y="317" on="1"/>
        <pt x="260" y="625" on="1"/>
      </contour>
    </TTGlyph>
    <TTGlyph name="Y" xMin="-241" yMin="0" xMax="735" yMax="625">
      <contour>
        <pt x="233" y="3" on="1"/>
        <pt x="-190" y="48" on="1"/>
        <pt x="241" y="48" on="1"/>
      </contour>
      <contour>
        <pt x="250" y="100" on="1"/>
        <pt x="-173" y="145" on="1"/>
        <pt x="257" y="145" on="1"/>
      </contour>
      <contour>
        <pt x="257" y="196" on="1"/>
        <pt x="-167" y="241" on="1"/>
        <pt x="248" y="241" on="1"/>
      </contour>
      <contour>
        <pt x="238" y="292" on="1"/>
        <pt x="-186" y="337" on="1"/>
        <pt x="229" y="337" on="1"/>
      </contour>
      <contour>
        <pt x="191" y="529" on="1"/>
        <pt x="200" y="484" on="1"/>
        <pt x="-223" y="529" on="1"/>
      </contour>
      <contour>
        <pt x="210" y="433" on="1"/>
        <pt x="219" y="388" on="1"/>
        <pt x="-204" y="433" on="1"/>
      </contour>
      <contour>
        <pt x="182" y="580" on="1"/>
        <pt x="-241" y="625" on="1"/>
        <pt x="173" y="625" on="1"/>
      </contour>
      <contour>
        <pt x="413" y="625" on="1"/>
        <pt x="426" y="405" on="1"/>
        <pt x="433" y="405" on="1"/>
        <pt x="525" y="625" on="1"/>
        <pt x="735" y="625" on="1"/>
        <pt x="483" y="170" on="1"/>
        <pt x="454" y="0" on="1"/>
        <pt x="264" y="0" on="1"/>
        <pt x="293" y="170" on="1"/>
        <pt x="203" y="625" on="1"/>
      </contour>
    </TTGlyph>
    <TTGlyph name="Yacute" xMin="-241" yMin="0" xMax="735" yMax="879">
      <contour>
        <pt x="233" y="3" on="1"/>
        <pt x="-190" y="48" on="1"/>
        <pt x="241" y="48" on="1"/>
      </contour>
      <contour>
        <pt x="250" y="100" on="1"/>
        <pt x="-173" y="145" on="1"/>
        <pt x="257" y="145" on="1"/>
      </contour>
      <contour>
        <pt x="257" y="196" on="1"/>
        <pt x="-167" y="241" on="1"/>
        <pt x="248" y="241" on="1"/>
      </contour>
      <contour>
        <pt x="238" y="292" on="1"/>
        <pt x="-186" y="337" on="1"/>
        <pt x="229" y="337" on="1"/>
      </contour>
      <contour>
        <pt x="191" y="529" on="1"/>
        <pt x="200" y="484" on="1"/>
        <pt x="-223" y="529" on="1"/>
      </contour>
      <contour>
        <pt x="210" y="433" on="1"/>
        <pt x="219" y="388" on="1"/>
        <pt x="-204" y="433" on="1"/>
      </contour>
      <contour>
        <pt x="182" y="580" on="1"/>
        <pt x="-241" y="625" on="1"/>
        <pt x="173" y="625" on="1"/>
      </contour>
      <contour>
        <pt x="413" y="625" on="1"/>
        <pt x="426" y="405" on="1"/>
        <pt x="433" y="405" on="1"/>
        <pt x="525" y="625" on="1"/>
        <pt x="735" y="625" on="1"/>
        <pt x="483" y="170" on="1"/>
        <pt x="454" y="0" on="1"/>
        <pt x="264" y="0" on="1"/>
        <pt x="293" y="170" on="1"/>
        <pt x="203" y="625" on="1"/>
      </contour>
      <contour>
        <pt x="523" y="875" on="1"/>
        <pt x="529" y="879" on="0"/>
        <pt x="543" y="879" on="0"/>
        <pt x="552" y="868" on="1"/>
        <pt x="615" y="794" on="1"/>
        <pt x="624" y="784" on="0"/>
        <pt x="624" y="771" on="0"/>
        <pt x="619" y="764" on="0"/>
        <pt x="575" y="726" on="1"/>
        <pt x="565" y="717" on="0"/>
        <pt x="549" y="714" on="1"/>
        <pt x="375" y="679" on="1"/>
        <pt x="334" y="736" on="1"/>
      </contour>
      <contour>
        <pt x="361" y="794" on="1"/>
        <pt x="1" y="833" on="1"/>
        <pt x="414" y="833" on="1"/>
      </contour>
      <contour>
        <pt x="250" y="713" on="1"/>
        <pt x="-110" y="752" on="1"/>
        <pt x="303" y="752" on="1"/>
      </contour>
    </TTGlyph>
    <TTGlyph name="Ydieresis" xMin="-241" yMin="0" xMax="735" yMax="848">
      <contour>
        <pt x="233" y="3" on="1"/>
        <pt x="-190" y="48" on="1"/>
        <pt x="241" y="48" on="1"/>
      </contour>
      <contour>
        <pt x="250" y="100" on="1"/>
        <pt x="-173" y="145" on="1"/>
        <pt x="257" y="145" on="1"/>
      </contour>
      <contour>
        <pt x="257" y="196" on="1"/>
        <pt x="-167" y="241" on="1"/>
        <pt x="248" y="241" on="1"/>
      </contour>
      <contour>
        <pt x="238" y="292" on="1"/>
        <pt x="-186" y="337" on="1"/>
        <pt x="229" y="337" on="1"/>
      </contour>
      <contour>
        <pt x="191" y="529" on="1"/>
        <pt x="200" y="484" on="1"/>
        <pt x="-223" y="529" on="1"/>
      </contour>
      <contour>
        <pt x="210" y="433" on="1"/>
        <pt x="219" y="388" on="1"/>
        <pt x="-204" y="433" on="1"/>
      </contour>
      <contour>
        <pt x="182" y="580" on="1"/>
        <pt x="-241" y="625" on="1"/>
        <pt x="173" y="625" on="1"/>
      </contour>
      <contour>
        <pt x="413" y="625" on="1"/>
        <pt x="426" y="405" on="1"/>
        <pt x="433" y="405" on="1"/>
        <pt x="525" y="625" on="1"/>
        <pt x="735" y="625" on="1"/>
        <pt x="483" y="170" on="1"/>
        <pt x="454" y="0" on="1"/>
        <pt x="264" y="0" on="1"/>
        <pt x="293" y="170" on="1"/>
        <pt x="203" y="625" on="1"/>
      </contour>
      <contour>
        <pt x="518" y="799" on="0"/>
        <pt x="559" y="848" on="0"/>
        <pt x="644" y="848" on="0"/>
        <pt x="673" y="826" on="0"/>
        <pt x="673" y="800" on="1"/>
        <pt x="673" y="741" on="0"/>
        <pt x="632" y="692" on="0"/>
        <pt x="547" y="692" on="0"/>
        <pt x="518" y="714" on="0"/>
        <pt x="518" y="740" on="1"/>
      </contour>
      <contour>
        <pt x="310" y="799" on="0"/>
        <pt x="351" y="848" on="0"/>
        <pt x="436" y="848" on="0"/>
        <pt x="465" y="826" on="0"/>
        <pt x="465" y="800" on="1"/>
        <pt x="465" y="741" on="0"/>
        <pt x="423" y="692" on="0"/>
        <pt x="339" y="692" on="0"/>
        <pt x="310" y="714" on="0"/>
        <pt x="310" y="740" on="1"/>
      </contour>
      <contour>
        <pt x="297" y="833" on="1"/>
        <pt x="288" y="816" on="0"/>
        <pt x="283" y="787" on="1"/>
        <pt x="-19" y="833" on="1"/>
      </contour>
      <contour>
        <pt x="280" y="740" on="1"/>
        <pt x="280" y="722" on="0"/>
        <pt x="283" y="708" on="1"/>
        <pt x="-19" y="754" on="1"/>
        <pt x="280" y="754" on="1"/>
      </contour>
    </TTGlyph>
    <TTGlyph name="Z" xMin="-563" yMin="0" xMax="768" yMax="625">
      <contour>
        <pt x="119" y="3" on="1"/>
        <pt x="-563" y="48" on="1"/>
        <pt x="127" y="48" on="1"/>
      </contour>
      <contour>
        <pt x="136" y="100" on="1"/>
        <pt x="-288" y="145" on="1"/>
        <pt x="144" y="145" on="1"/>
      </contour>
      <contour>
        <pt x="243" y="484" on="1"/>
        <pt x="-181" y="529" on="1"/>
        <pt x="246" y="529" on="1"/>
      </contour>
      <contour>
        <pt x="250" y="580" on="1"/>
        <pt x="-173" y="625" on="1"/>
        <pt x="253" y="625" on="1"/>
      </contour>
      <contour>
        <pt x="-109" y="337" on="1"/>
        <pt x="323" y="337" on="1"/>
        <pt x="285" y="295" on="1"/>
      </contour>
      <contour>
        <pt x="-196" y="241" on="1"/>
        <pt x="236" y="241" on="1"/>
        <pt x="198" y="199" on="1"/>
      </contour>
      <contour>
        <pt x="-23" y="433" on="1"/>
        <pt x="409" y="433" on="1"/>
        <pt x="371" y="391" on="1"/>
      </contour>
      <contour>
        <pt x="662" y="0" on="1"/>
        <pt x="150" y="0" on="1"/>
        <pt x="172" y="125" on="1"/>
        <pt x="473" y="459" on="1"/>
        <pt x="471" y="465" on="1"/>
        <pt x="272" y="465" on="1"/>
        <pt x="283" y="625" on="1"/>
        <pt x="768" y="625" on="1"/>
        <pt x="746" y="500" on="1"/>
        <pt x="447" y="166" on="1"/>
        <pt x="448" y="160" on="1"/>
        <pt x="690" y="160" on="1"/>
      </contour>
    </TTGlyph>
    <TTGlyph name="Zcaron" xMin="-563" yMin="0" xMax="768" yMax="880">
      <contour>
        <pt x="119" y="3" on="1"/>
        <pt x="-563" y="48" on="1"/>
        <pt x="127" y="48" on="1"/>
      </contour>
      <contour>
        <pt x="136" y="100" on="1"/>
        <pt x="-288" y="145" on="1"/>
        <pt x="144" y="145" on="1"/>
      </contour>
      <contour>
        <pt x="243" y="484" on="1"/>
        <pt x="-181" y="529" on="1"/>
        <pt x="246" y="529" on="1"/>
      </contour>
      <contour>
        <pt x="250" y="580" on="1"/>
        <pt x="-173" y="625" on="1"/>
        <pt x="253" y="625" on="1"/>
      </contour>
      <contour>
        <pt x="-109" y="337" on="1"/>
        <pt x="323" y="337" on="1"/>
        <pt x="285" y="295" on="1"/>
      </contour>
      <contour>
        <pt x="-196" y="241" on="1"/>
        <pt x="236" y="241" on="1"/>
        <pt x="198" y="199" on="1"/>
      </contour>
      <contour>
        <pt x="-23" y="433" on="1"/>
        <pt x="409" y="433" on="1"/>
        <pt x="371" y="391" on="1"/>
      </contour>
      <contour>
        <pt x="662" y="0" on="1"/>
        <pt x="150" y="0" on="1"/>
        <pt x="172" y="125" on="1"/>
        <pt x="473" y="459" on="1"/>
        <pt x="471" y="465" on="1"/>
        <pt x="272" y="465" on="1"/>
        <pt x="283" y="625" on="1"/>
        <pt x="768" y="625" on="1"/>
        <pt x="746" y="500" on="1"/>
        <pt x="447" y="166" on="1"/>
        <pt x="448" y="160" on="1"/>
        <pt x="690" y="160" on="1"/>
      </contour>
      <contour>
        <pt x="548" y="677" on="1"/>
        <pt x="503" y="677" on="1"/>
        <pt x="495" y="677" on="0"/>
        <pt x="490" y="686" on="1"/>
        <pt x="407" y="831" on="1"/>
        <pt x="473" y="880" on="1"/>
        <pt x="551" y="817" on="1"/>
        <pt x="650" y="880" on="1"/>
        <pt x="698" y="831" on="1"/>
        <pt x="566" y="686" on="1"/>
        <pt x="558" y="677" on="0"/>
      </contour>
      <contour>
        <pt x="393" y="794" on="1"/>
        <pt x="-8" y="833" on="1"/>
        <pt x="370" y="833" on="1"/>
      </contour>
      <contour>
        <pt x="439" y="713" on="1"/>
        <pt x="31" y="752" on="1"/>
        <pt x="417" y="752" on="1"/>
      </contour>
    </TTGlyph>
    <TTGlyph name="a" xMin="-250" yMin="0" xMax="701" yMax="529">
      <contour>
        <pt x="526" y="0" on="1"/>
        <pt x="522" y="81" on="1"/>
        <pt x="396" y="81" on="1"/>
        <pt x="365" y="0" on="1"/>
        <pt x="192" y="0" on="1"/>
        <pt x="414" y="529" on="1"/>
        <pt x="662" y="529" on="1"/>
        <pt x="701" y="0" on="1"/>
      </contour>
      <contour>
        <pt x="522" y="224" on="1"/>
        <pt x="522" y="376" on="1"/>
        <pt x="508" y="376" on="1"/>
        <pt x="449" y="224" on="1"/>
      </contour>
      <contour>
        <pt x="160" y="4" on="1"/>
        <pt x="-250" y="48" on="1"/>
        <pt x="179" y="48" on="1"/>
      </contour>
      <contour>
        <pt x="201" y="101" on="1"/>
        <pt x="-209" y="145" on="1"/>
        <pt x="220" y="145" on="1"/>
      </contour>
      <contour>
        <pt x="242" y="197" on="1"/>
        <pt x="-168" y="241" on="1"/>
        <pt x="260" y="241" on="1"/>
      </contour>
      <contour>
        <pt x="282" y="293" on="1"/>
        <pt x="-127" y="337" on="1"/>
        <pt x="301" y="337" on="1"/>
      </contour>
      <contour>
        <pt x="323" y="389" on="1"/>
        <pt x="-86" y="433" on="1"/>
        <pt x="341" y="433" on="1"/>
      </contour>
      <contour>
        <pt x="363" y="486" on="1"/>
        <pt x="-45" y="529" on="1"/>
        <pt x="381" y="529" on="1"/>
      </contour>
    </TTGlyph>
    <TTGlyph name="aacute" xMin="-250" yMin="0" xMax="744" yMax="769">
      <contour>
        <pt x="526" y="0" on="1"/>
        <pt x="522" y="81" on="1"/>
        <pt x="396" y="81" on="1"/>
        <pt x="365" y="0" on="1"/>
        <pt x="192" y="0" on="1"/>
        <pt x="414" y="529" on="1"/>
        <pt x="662" y="529" on="1"/>
        <pt x="701" y="0" on="1"/>
      </contour>
      <contour>
        <pt x="522" y="224" on="1"/>
        <pt x="522" y="376" on="1"/>
        <pt x="508" y="376" on="1"/>
        <pt x="449" y="224" on="1"/>
      </contour>
      <contour>
        <pt x="160" y="4" on="1"/>
        <pt x="-250" y="48" on="1"/>
        <pt x="179" y="48" on="1"/>
      </contour>
      <contour>
        <pt x="201" y="101" on="1"/>
        <pt x="-209" y="145" on="1"/>
        <pt x="220" y="145" on="1"/>
      </contour>
      <contour>
        <pt x="242" y="197" on="1"/>
        <pt x="-168" y="241" on="1"/>
        <pt x="260" y="241" on="1"/>
      </contour>
      <contour>
        <pt x="282" y="293" on="1"/>
        <pt x="-127" y="337" on="1"/>
        <pt x="301" y="337" on="1"/>
      </contour>
      <contour>
        <pt x="323" y="389" on="1"/>
        <pt x="-86" y="433" on="1"/>
        <pt x="341" y="433" on="1"/>
      </contour>
      <contour>
        <pt x="363" y="486" on="1"/>
        <pt x="-45" y="529" on="1"/>
        <pt x="381" y="529" on="1"/>
      </contour>
      <contour>
        <pt x="643" y="765" on="1"/>
        <pt x="649" y="769" on="0"/>
        <pt x="663" y="769" on="0"/>
        <pt x="672" y="758" on="1"/>
        <pt x="735" y="684" on="1"/>
        <pt x="744" y="674" on="0"/>
        <pt x="744" y="661" on="0"/>
        <pt x="739" y="654" on="0"/>
        <pt x="695" y="616" on="1"/>
        <pt x="685" y="607" on="0"/>
        <pt x="669" y="604" on="1"/>
        <pt x="495" y="569" on="1"/>
        <pt x="454" y="626" on="1"/>
      </contour>
      <contour>
        <pt x="481" y="684" on="1"/>
        <pt x="121" y="723" on="1"/>
        <pt x="534" y="723" on="1"/>
      </contour>
      <contour>
        <pt x="370" y="603" on="1"/>
        <pt x="10" y="642" on="1"/>
        <pt x="423" y="642" on="1"/>
      </contour>
    </TTGlyph>
    <TTGlyph name="acircumflex" xMin="-250" yMin="0" xMax="715" yMax="770">
      <contour>
        <pt x="526" y="0" on="1"/>
        <pt x="522" y="81" on="1"/>
        <pt x="396" y="81" on="1"/>
        <pt x="365" y="0" on="1"/>
        <pt x="192" y="0" on="1"/>
        <pt x="414" y="529" on="1"/>
        <pt x="662" y="529" on="1"/>
        <pt x="701" y="0" on="1"/>
      </contour>
      <contour>
        <pt x="522" y="224" on="1"/>
        <pt x="522" y="376" on="1"/>
        <pt x="508" y="376" on="1"/>
        <pt x="449" y="224" on="1"/>
      </contour>
      <contour>
        <pt x="160" y="4" on="1"/>
        <pt x="-250" y="48" on="1"/>
        <pt x="179" y="48" on="1"/>
      </contour>
      <contour>
        <pt x="201" y="101" on="1"/>
        <pt x="-209" y="145" on="1"/>
        <pt x="220" y="145" on="1"/>
      </contour>
      <contour>
        <pt x="242" y="197" on="1"/>
        <pt x="-168" y="241" on="1"/>
        <pt x="260" y="241" on="1"/>
      </contour>
      <contour>
        <pt x="282" y="293" on="1"/>
        <pt x="-127" y="337" on="1"/>
        <pt x="301" y="337" on="1"/>
      </contour>
      <contour>
        <pt x="323" y="389" on="1"/>
        <pt x="-86" y="433" on="1"/>
        <pt x="341" y="433" on="1"/>
      </contour>
      <contour>
        <pt x="363" y="486" on="1"/>
        <pt x="-45" y="529" on="1"/>
        <pt x="381" y="529" on="1"/>
      </contour>
      <contour>
        <pt x="574" y="770" on="1"/>
        <pt x="619" y="770" on="1"/>
        <pt x="627" y="770" on="0"/>
        <pt x="632" y="761" on="1"/>
        <pt x="715" y="616" on="1"/>
        <pt x="649" y="567" on="1"/>
        <pt x="571" y="630" on="1"/>
        <pt x="472" y="567" on="1"/>
        <pt x="424" y="616" on="1"/>
        <pt x="556" y="761" on="1"/>
        <pt x="564" y="770" on="0"/>
      </contour>
      <contour>
        <pt x="445" y="684" on="1"/>
        <pt x="122" y="723" on="1"/>
        <pt x="480" y="723" on="1"/>
      </contour>
      <contour>
        <pt x="371" y="603" on="1"/>
        <pt x="41" y="642" on="1"/>
        <pt x="407" y="642" on="1"/>
      </contour>
    </TTGlyph>
    <TTGlyph name="acute" xMin="-404" yMin="569" xMax="330" yMax="769">
      <contour>
        <pt x="229" y="765" on="1"/>
        <pt x="235" y="769" on="0"/>
        <pt x="249" y="769" on="0"/>
        <pt x="258" y="758" on="1"/>
        <pt x="321" y="684" on="1"/>
        <pt x="330" y="674" on="0"/>
        <pt x="330" y="661" on="0"/>
        <pt x="325" y="654" on="0"/>
        <pt x="281" y="616" on="1"/>
        <pt x="271" y="607" on="0"/>
        <pt x="255" y="604" on="1"/>
        <pt x="81" y="569" on="1"/>
        <pt x="40" y="626" on="1"/>
      </contour>
      <contour>
        <pt x="67" y="684" on="1"/>
        <pt x="-293" y="723" on="1"/>
        <pt x="120" y="723" on="1"/>
      </contour>
      <contour>
        <pt x="-44" y="603" on="1"/>
        <pt x="-404" y="642" on="1"/>
        <pt x="9" y="642" on="1"/>
      </contour>
    </TTGlyph>
    <TTGlyph name="acute.case" xMin="-404" yMin="679" xMax="330" yMax="879">
      <contour>
        <pt x="229" y="875" on="1"/>
        <pt x="235" y="879" on="0"/>
        <pt x="249" y="879" on="0"/>
        <pt x="258" y="868" on="1"/>
        <pt x="321" y="794" on="1"/>
        <pt x="330" y="784" on="0"/>
        <pt x="330" y="771" on="0"/>
        <pt x="325" y="764" on="0"/>
        <pt x="281" y="726" on="1"/>
        <pt x="271" y="717" on="0"/>
        <pt x="255" y="714" on="1"/>
        <pt x="81" y="679" on="1"/>
        <pt x="40" y="736" on="1"/>
      </contour>
      <contour>
        <pt x="67" y="794" on="1"/>
        <pt x="-293" y="833" on="1"/>
        <pt x="120" y="833" on="1"/>
      </contour>
      <contour>
        <pt x="-44" y="713" on="1"/>
        <pt x="-404" y="752" on="1"/>
        <pt x="9" y="752" on="1"/>
      </contour>
    </TTGlyph>
    <TTGlyph name="adieresis" xMin="-250" yMin="0" xMax="754" yMax="738">
      <contour>
        <pt x="526" y="0" on="1"/>
        <pt x="522" y="81" on="1"/>
        <pt x="396" y="81" on="1"/>
        <pt x="365" y="0" on="1"/>
        <pt x="192" y="0" on="1"/>
        <pt x="414" y="529" on="1"/>
        <pt x="662" y="529" on="1"/>
        <pt x="701" y="0" on="1"/>
      </contour>
      <contour>
        <pt x="522" y="224" on="1"/>
        <pt x="522" y="376" on="1"/>
        <pt x="508" y="376" on="1"/>
        <pt x="449" y="224" on="1"/>
      </contour>
      <contour>
        <pt x="160" y="4" on="1"/>
        <pt x="-250" y="48" on="1"/>
        <pt x="179" y="48" on="1"/>
      </contour>
      <contour>
        <pt x="201" y="101" on="1"/>
        <pt x="-209" y="145" on="1"/>
        <pt x="220" y="145" on="1"/>
      </contour>
      <contour>
        <pt x="242" y="197" on="1"/>
        <pt x="-168" y="241" on="1"/>
        <pt x="260" y="241" on="1"/>
      </contour>
      <contour>
        <pt x="282" y="293" on="1"/>
        <pt x="-127" y="337" on="1"/>
        <pt x="301" y="337" on="1"/>
      </contour>
      <contour>
        <pt x="323" y="389" on="1"/>
        <pt x="-86" y="433" on="1"/>
        <pt x="341" y="433" on="1"/>
      </contour>
      <contour>
        <pt x="363" y="486" on="1"/>
        <pt x="-45" y="529" on="1"/>
        <pt x="381" y="529" on="1"/>
      </contour>
      <contour>
        <pt x="599" y="689" on="0"/>
        <pt x="640" y="738" on="0"/>
        <pt x="725" y="738" on="0"/>
        <pt x="754" y="716" on="0"/>
        <pt x="754" y="690" on="1"/>
        <pt x="754" y="631" on="0"/>
        <pt x="713" y="582" on="0"/>
        <pt x="628" y="582" on="0"/>
        <pt x="599" y="604" on="0"/>
        <pt x="599" y="630" on="1"/>
      </contour>
      <contour>
        <pt x="391" y="689" on="0"/>
        <pt x="432" y="738" on="0"/>
        <pt x="517" y="738" on="0"/>
        <pt x="546" y="716" on="0"/>
        <pt x="546" y="690" on="1"/>
        <pt x="546" y="631" on="0"/>
        <pt x="504" y="582" on="0"/>
        <pt x="420" y="582" on="0"/>
        <pt x="391" y="604" on="0"/>
        <pt x="391" y="630" on="1"/>
      </contour>
      <contour>
        <pt x="378" y="723" on="1"/>
        <pt x="369" y="706" on="0"/>
        <pt x="364" y="677" on="1"/>
        <pt x="62" y="723" on="1"/>
      </contour>
      <contour>
        <pt x="361" y="630" on="1"/>
        <pt x="361" y="612" on="0"/>
        <pt x="364" y="598" on="1"/>
        <pt x="62" y="644" on="1"/>
        <pt x="361" y="644" on="1"/>
      </contour>
    </TTGlyph>
    <TTGlyph name="ae" xMin="-250" yMin="0" xMax="927" yMax="529">
      <contour>
        <pt x="838" y="215" on="1"/>
        <pt x="685" y="215" on="1"/>
        <pt x="690" y="147" on="1"/>
        <pt x="862" y="147" on="1"/>
        <pt x="836" y="0" on="1"/>
        <pt x="526" y="0" on="1"/>
        <pt x="522" y="81" on="1"/>
        <pt x="396" y="81" on="1"/>
        <pt x="365" y="0" on="1"/>
        <pt x="192" y="0" on="1"/>
        <pt x="414" y="529" on="1"/>
        <pt x="927" y="529" on="1"/>
        <pt x="880" y="379" on="1"/>
        <pt x="673" y="379" on="1"/>
        <pt x="678" y="311" on="1"/>
        <pt x="855" y="311" on="1"/>
      </contour>
      <contour>
        <pt x="160" y="4" on="1"/>
        <pt x="-250" y="48" on="1"/>
        <pt x="179" y="48" on="1"/>
      </contour>
      <contour>
        <pt x="201" y="101" on="1"/>
        <pt x="-209" y="145" on="1"/>
        <pt x="220" y="145" on="1"/>
      </contour>
      <contour>
        <pt x="282" y="293" on="1"/>
        <pt x="-127" y="337" on="1"/>
        <pt x="301" y="337" on="1"/>
      </contour>
      <contour>
        <pt x="242" y="197" on="1"/>
        <pt x="-168" y="241" on="1"/>
        <pt x="260" y="241" on="1"/>
      </contour>
      <contour>
        <pt x="323" y="389" on="1"/>
        <pt x="-86" y="433" on="1"/>
        <pt x="341" y="433" on="1"/>
      </contour>
      <contour>
        <pt x="363" y="486" on="1"/>
        <pt x="-45" y="529" on="1"/>
        <pt x="381" y="529" on="1"/>
      </contour>
      <contour>
        <pt x="522" y="224" on="1"/>
        <pt x="522" y="376" on="1"/>
        <pt x="508" y="376" on="1"/>
        <pt x="449" y="224" on="1"/>
      </contour>
    </TTGlyph>
    <TTGlyph name="agrave" xMin="-250" yMin="0" xMax="701" yMax="769">
      <contour>
        <pt x="526" y="0" on="1"/>
        <pt x="522" y="81" on="1"/>
        <pt x="396" y="81" on="1"/>
        <pt x="365" y="0" on="1"/>
        <pt x="192" y="0" on="1"/>
        <pt x="414" y="529" on="1"/>
        <pt x="662" y="529" on="1"/>
        <pt x="701" y="0" on="1"/>
      </contour>
      <contour>
        <pt x="522" y="224" on="1"/>
        <pt x="522" y="376" on="1"/>
        <pt x="508" y="376" on="1"/>
        <pt x="449" y="224" on="1"/>
      </contour>
      <contour>
        <pt x="160" y="4" on="1"/>
        <pt x="-250" y="48" on="1"/>
        <pt x="179" y="48" on="1"/>
      </contour>
      <contour>
        <pt x="201" y="101" on="1"/>
        <pt x="-209" y="145" on="1"/>
        <pt x="220" y="145" on="1"/>
      </contour>
      <contour>
        <pt x="242" y="197" on="1"/>
        <pt x="-168" y="241" on="1"/>
        <pt x="260" y="241" on="1"/>
      </contour>
      <contour>
        <pt x="282" y="293" on="1"/>
        <pt x="-127" y="337" on="1"/>
        <pt x="301" y="337" on="1"/>
      </contour>
      <contour>
        <pt x="323" y="389" on="1"/>
        <pt x="-86" y="433" on="1"/>
        <pt x="341" y="433" on="1"/>
      </contour>
      <contour>
        <pt x="363" y="486" on="1"/>
        <pt x="-45" y="529" on="1"/>
        <pt x="381" y="529" on="1"/>
      </contour>
      <contour>
        <pt x="389" y="655" on="1"/>
        <pt x="385" y="659" on="0"/>
        <pt x="385" y="673" on="0"/>
        <pt x="394" y="684" on="1"/>
        <pt x="457" y="758" on="1"/>
        <pt x="466" y="769" on="0"/>
        <pt x="480" y="769" on="0"/>
        <pt x="486" y="765" on="1"/>
        <pt x="675" y="626" on="1"/>
        <pt x="634" y="569" on="1"/>
        <pt x="460" y="604" on="1"/>
        <pt x="444" y="607" on="0"/>
        <pt x="434" y="616" on="1"/>
      </contour>
      <contour>
        <pt x="359" y="684" on="1"/>
        <pt x="-36" y="723" on="1"/>
        <pt x="388" y="723" on="1"/>
        <pt x="385" y="719" on="0"/>
        <pt x="378" y="712" on="1"/>
        <pt x="365" y="697" on="0"/>
      </contour>
      <contour>
        <pt x="402" y="603" on="1"/>
        <pt x="-6" y="642" on="1"/>
        <pt x="361" y="642" on="1"/>
        <pt x="367" y="633" on="0"/>
      </contour>
    </TTGlyph>
    <TTGlyph name="ampersand" xMin="-250" yMin="-115" xMax="823" yMax="625">
      <contour>
        <pt x="261" y="433" on="1"/>
        <pt x="252" y="388" on="1"/>
        <pt x="-171" y="433" on="1"/>
      </contour>
      <contour>
        <pt x="191" y="241" on="1"/>
        <pt x="180" y="199" on="0"/>
        <pt x="180" y="196" on="1"/>
        <pt x="-241" y="241" on="1"/>
      </contour>
      <contour>
        <pt x="173" y="145" on="1"/>
        <pt x="173" y="100" on="1"/>
        <pt x="-250" y="145" on="1"/>
      </contour>
      <contour>
        <pt x="-136" y="529" on="1"/>
        <pt x="295" y="529" on="1"/>
        <pt x="284" y="506" on="0"/>
        <pt x="277" y="485" on="1"/>
      </contour>
      <contour>
        <pt x="246" y="337" on="1"/>
        <pt x="227" y="316" on="0"/>
        <pt x="215" y="294" on="1"/>
        <pt x="-186" y="337" on="1"/>
      </contour>
      <contour>
        <pt x="183" y="48" on="1"/>
        <pt x="191" y="23" on="0"/>
        <pt x="208" y="3" on="1"/>
        <pt x="-215" y="48" on="1"/>
      </contour>
      <contour>
        <pt x="376" y="625" on="1"/>
        <pt x="351" y="609" on="0"/>
        <pt x="329" y="584" on="1"/>
        <pt x="-54" y="625" on="1"/>
      </contour>
      <contour>
        <pt x="341" y="-15" on="1"/>
        <pt x="203" y="-15" on="0"/>
        <pt x="203" y="119" on="1"/>
        <pt x="203" y="198" on="0"/>
        <pt x="235" y="268" on="1"/>
        <pt x="252" y="305" on="0"/>
        <pt x="316" y="357" on="0"/>
        <pt x="360" y="363" on="1"/>
        <pt x="360" y="367" on="1"/>
        <pt x="284" y="396" on="1"/>
        <pt x="308" y="529" on="0"/>
        <pt x="415" y="625" on="0"/>
        <pt x="593" y="625" on="0"/>
        <pt x="684" y="604" on="1"/>
        <pt x="630" y="462" on="1"/>
        <pt x="546" y="462" on="1"/>
        <pt x="515" y="462" on="0"/>
        <pt x="485" y="445" on="0"/>
        <pt x="481" y="420" on="1"/>
        <pt x="475" y="382" on="1"/>
        <pt x="823" y="382" on="1"/>
        <pt x="777" y="242" on="1"/>
        <pt x="711" y="242" on="1"/>
        <pt x="651" y="-100" on="1"/>
        <pt x="531" y="-115" on="1"/>
        <pt x="531" y="21" on="1"/>
        <pt x="410" y="-15" on="0"/>
      </contour>
      <contour>
        <pt x="461" y="143" on="1"/>
        <pt x="497" y="143" on="0"/>
        <pt x="531" y="148" on="1"/>
        <pt x="531" y="242" on="1"/>
        <pt x="420" y="242" on="1"/>
        <pt x="409" y="202" on="0"/>
        <pt x="409" y="180" on="1"/>
        <pt x="409" y="143" on="0"/>
      </contour>
    </TTGlyph>
    <TTGlyph name="apple" xMin="100" yMin="-114" xMax="823" yMax="608">
      <contour>
        <pt x="589" y="-89" on="1"/>
        <pt x="566" y="-88" on="1"/>
        <pt x="552" y="-88" on="0"/>
        <pt x="517" y="-112" on="0"/>
        <pt x="508" y="-112" on="1"/>
        <pt x="462" y="-102" on="1"/>
        <pt x="454" y="-102" on="0"/>
        <pt x="423" y="-114" on="0"/>
        <pt x="406" y="-114" on="0"/>
        <pt x="374" y="-89" on="0"/>
        <pt x="361" y="-89" on="1"/>
        <pt x="337" y="-91" on="1"/>
        <pt x="322" y="-91" on="0"/>
        <pt x="304" y="-74" on="1"/>
        <pt x="286" y="-55" on="1"/>
        <pt x="274" y="-49" on="0"/>
        <pt x="248" y="-47" on="0"/>
        <pt x="230" y="-36" on="0"/>
        <pt x="216" y="-1" on="0"/>
        <pt x="205" y="8" on="0"/>
        <pt x="177" y="19" on="0"/>
        <pt x="171" y="28" on="1"/>
        <pt x="166" y="37" on="0"/>
        <pt x="162" y="66" on="0"/>
        <pt x="154" y="79" on="0"/>
        <pt x="144" y="86" on="1"/>
        <pt x="122" y="104" on="0"/>
        <pt x="122" y="124" on="1"/>
        <pt x="125" y="149" on="1"/>
        <pt x="125" y="158" on="0"/>
        <pt x="100" y="193" on="0"/>
        <pt x="100" y="211" on="0"/>
        <pt x="112" y="240" on="0"/>
        <pt x="112" y="257" on="0"/>
        <pt x="100" y="283" on="0"/>
        <pt x="100" y="301" on="0"/>
        <pt x="125" y="342" on="0"/>
        <pt x="125" y="351" on="1"/>
        <pt x="124" y="376" on="1"/>
        <pt x="124" y="391" on="0"/>
        <pt x="157" y="420" on="0"/>
        <pt x="162" y="430" on="0"/>
        <pt x="166" y="462" on="0"/>
        <pt x="174" y="474" on="0"/>
        <pt x="205" y="486" on="0"/>
        <pt x="215" y="496" on="0"/>
        <pt x="229" y="527" on="0"/>
        <pt x="242" y="538" on="0"/>
        <pt x="280" y="546" on="0"/>
        <pt x="291" y="552" on="0"/>
        <pt x="321" y="586" on="0"/>
        <pt x="335" y="587" on="1"/>
        <pt x="361" y="585" on="1"/>
        <pt x="374" y="585" on="0"/>
        <pt x="405" y="608" on="0"/>
        <pt x="416" y="608" on="1"/>
        <pt x="460" y="596" on="1"/>
        <pt x="505" y="608" on="1"/>
        <pt x="518" y="608" on="0"/>
        <pt x="550" y="583" on="0"/>
        <pt x="562" y="583" on="1"/>
        <pt x="590" y="586" on="1"/>
        <pt x="606" y="586" on="0"/>
        <pt x="632" y="553" on="0"/>
        <pt x="645" y="546" on="0"/>
        <pt x="675" y="540" on="0"/>
        <pt x="690" y="530" on="0"/>
        <pt x="700" y="502" on="0"/>
        <pt x="711" y="492" on="0"/>
        <pt x="751" y="471" on="0"/>
        <pt x="760" y="455" on="0"/>
        <pt x="761" y="423" on="0"/>
        <pt x="766" y="414" on="0"/>
        <pt x="800" y="385" on="0"/>
        <pt x="800" y="369" on="1"/>
        <pt x="799" y="344" on="1"/>
        <pt x="799" y="331" on="0"/>
        <pt x="823" y="294" on="0"/>
        <pt x="823" y="276" on="0"/>
        <pt x="812" y="250" on="0"/>
        <pt x="812" y="236" on="0"/>
        <pt x="823" y="207" on="0"/>
        <pt x="822" y="191" on="0"/>
        <pt x="798" y="166" on="0"/>
        <pt x="798" y="152" on="1"/>
        <pt x="800" y="120" on="1"/>
        <pt x="800" y="104" on="0"/>
        <pt x="768" y="78" on="0"/>
        <pt x="763" y="68" on="0"/>
        <pt x="754" y="30" on="0"/>
        <pt x="743" y="17" on="0"/>
        <pt x="718" y="6" on="0"/>
        <pt x="708" y="-4" on="0"/>
        <pt x="690" y="-37" on="0"/>
        <pt x="676" y="-47" on="0"/>
        <pt x="641" y="-56" on="0"/>
        <pt x="631" y="-62" on="0"/>
        <pt x="604" y="-89" on="0"/>
      </contour>
      <contour>
        <pt x="462" y="-6" on="1"/>
        <pt x="495" y="-13" on="1"/>
        <pt x="501" y="-13" on="0"/>
        <pt x="512" y="-6" on="1"/>
        <pt x="527" y="4" on="0"/>
        <pt x="539" y="4" on="1"/>
        <pt x="554" y="3" on="1"/>
        <pt x="566" y="3" on="0"/>
        <pt x="584" y="23" on="0"/>
        <pt x="591" y="27" on="0"/>
        <pt x="617" y="34" on="0"/>
        <pt x="628" y="42" on="0"/>
        <pt x="641" y="65" on="0"/>
        <pt x="648" y="72" on="0"/>
        <pt x="666" y="80" on="0"/>
        <pt x="674" y="89" on="0"/>
        <pt x="680" y="117" on="0"/>
        <pt x="685" y="125" on="0"/>
        <pt x="707" y="143" on="0"/>
        <pt x="707" y="157" on="1"/>
        <pt x="706" y="177" on="1"/>
        <pt x="706" y="188" on="0"/>
        <pt x="723" y="207" on="0"/>
        <pt x="724" y="213" on="1"/>
        <pt x="716" y="245" on="1"/>
        <pt x="724" y="273" on="1"/>
        <pt x="724" y="281" on="0"/>
        <pt x="706" y="309" on="0"/>
        <pt x="706" y="318" on="1"/>
        <pt x="707" y="335" on="1"/>
        <pt x="707" y="347" on="0"/>
        <pt x="683" y="367" on="0"/>
        <pt x="679" y="375" on="0"/>
        <pt x="678" y="398" on="0"/>
        <pt x="672" y="409" on="0"/>
        <pt x="643" y="424" on="0"/>
        <pt x="635" y="432" on="0"/>
        <pt x="627" y="452" on="0"/>
        <pt x="617" y="460" on="0"/>
        <pt x="595" y="464" on="0"/>
        <pt x="585" y="469" on="0"/>
        <pt x="567" y="493" on="0"/>
        <pt x="555" y="493" on="1"/>
        <pt x="535" y="491" on="1"/>
        <pt x="526" y="491" on="0"/>
        <pt x="504" y="509" on="0"/>
        <pt x="494" y="509" on="1"/>
        <pt x="461" y="500" on="1"/>
        <pt x="429" y="509" on="1"/>
        <pt x="421" y="509" on="0"/>
        <pt x="397" y="492" on="0"/>
        <pt x="387" y="492" on="1"/>
        <pt x="370" y="493" on="1"/>
        <pt x="359" y="493" on="0"/>
        <pt x="338" y="468" on="0"/>
        <pt x="329" y="463" on="0"/>
        <pt x="303" y="458" on="0"/>
        <pt x="293" y="450" on="0"/>
        <pt x="283" y="428" on="0"/>
        <pt x="275" y="420" on="0"/>
        <pt x="254" y="412" on="0"/>
        <pt x="250" y="407" on="1"/>
        <pt x="248" y="403" on="0"/>
        <pt x="244" y="380" on="0"/>
        <pt x="240" y="372" on="0"/>
        <pt x="216" y="351" on="0"/>
        <pt x="216" y="340" on="1"/>
        <pt x="217" y="324" on="1"/>
        <pt x="217" y="316" on="0"/>
        <pt x="200" y="286" on="0"/>
        <pt x="200" y="278" on="1"/>
        <pt x="208" y="248" on="1"/>
        <pt x="200" y="215" on="1"/>
        <pt x="200" y="207" on="0"/>
        <pt x="217" y="182" on="0"/>
        <pt x="217" y="174" on="1"/>
        <pt x="215" y="158" on="1"/>
        <pt x="215" y="147" on="0"/>
        <pt x="240" y="124" on="0"/>
        <pt x="244" y="116" on="0"/>
        <pt x="247" y="95" on="0"/>
        <pt x="255" y="82" on="0"/>
        <pt x="275" y="74" on="0"/>
        <pt x="283" y="67" on="0"/>
        <pt x="294" y="41" on="0"/>
        <pt x="306" y="33" on="0"/>
        <pt x="325" y="33" on="0"/>
        <pt x="337" y="27" on="0"/>
        <pt x="360" y="2" on="0"/>
        <pt x="371" y="2" on="1"/>
        <pt x="386" y="3" on="1"/>
        <pt x="396" y="3" on="0"/>
        <pt x="420" y="-14" on="0"/>
        <pt x="426" y="-15" on="1"/>
      </contour>
      <contour>
        <pt x="392" y="417" on="0"/>
        <pt x="532" y="417" on="0"/>
        <pt x="632" y="318" on="0"/>
        <pt x="632" y="176" on="0"/>
        <pt x="532" y="77" on="0"/>
        <pt x="392" y="77" on="0"/>
        <pt x="292" y="176" on="0"/>
        <pt x="292" y="318" on="0"/>
      </contour>
      <contour>
        <pt x="505" y="292" on="1"/>
        <pt x="557" y="292" on="1"/>
        <pt x="557" y="360" on="1"/>
        <pt x="366" y="360" on="1"/>
        <pt x="366" y="292" on="1"/>
        <pt x="420" y="292" on="1"/>
        <pt x="420" y="117" on="1"/>
        <pt x="505" y="117" on="1"/>
      </contour>
    </TTGlyph>
    <TTGlyph name="approxequal" xMin="50" yMin="83" xMax="550" yMax="540">
      <contour>
        <pt x="75" y="265" on="1"/>
        <pt x="110" y="227" on="0"/>
        <pt x="202" y="227" on="0"/>
        <pt x="382" y="302" on="0"/>
        <pt x="472" y="302" on="0"/>
        <pt x="508" y="265" on="1"/>
        <pt x="483" y="121" on="1"/>
        <pt x="447" y="158" on="0"/>
        <pt x="356" y="158" on="0"/>
        <pt x="176" y="83" on="0"/>
        <pt x="85" y="83" on="0"/>
        <pt x="50" y="121" on="1"/>
      </contour>
      <contour>
        <pt x="117" y="503" on="1"/>
        <pt x="152" y="465" on="0"/>
        <pt x="244" y="465" on="0"/>
        <pt x="424" y="540" on="0"/>
        <pt x="514" y="540" on="0"/>
        <pt x="550" y="503" on="1"/>
        <pt x="525" y="359" on="1"/>
        <pt x="489" y="396" on="0"/>
        <pt x="398" y="396" on="0"/>
        <pt x="218" y="321" on="0"/>
        <pt x="127" y="321" on="0"/>
        <pt x="92" y="359" on="1"/>
      </contour>
    </TTGlyph>
    <TTGlyph name="aring" xMin="-250" yMin="0" xMax="701" yMax="788">
      <contour>
        <pt x="526" y="0" on="1"/>
        <pt x="522" y="81" on="1"/>
        <pt x="396" y="81" on="1"/>
        <pt x="365" y="0" on="1"/>
        <pt x="192" y="0" on="1"/>
        <pt x="414" y="529" on="1"/>
        <pt x="662" y="529" on="1"/>
        <pt x="701" y="0" on="1"/>
      </contour>
      <contour>
        <pt x="522" y="224" on="1"/>
        <pt x="522" y="376" on="1"/>
        <pt x="508" y="376" on="1"/>
        <pt x="449" y="224" on="1"/>
      </contour>
      <contour>
        <pt x="160" y="4" on="1"/>
        <pt x="-250" y="48" on="1"/>
        <pt x="179" y="48" on="1"/>
      </contour>
      <contour>
        <pt x="201" y="101" on="1"/>
        <pt x="-209" y="145" on="1"/>
        <pt x="220" y="145" on="1"/>
      </contour>
      <contour>
        <pt x="242" y="197" on="1"/>
        <pt x="-168" y="241" on="1"/>
        <pt x="260" y="241" on="1"/>
      </contour>
      <contour>
        <pt x="282" y="293" on="1"/>
        <pt x="-127" y="337" on="1"/>
        <pt x="301" y="337" on="1"/>
      </contour>
      <contour>
        <pt x="323" y="389" on="1"/>
        <pt x="-86" y="433" on="1"/>
        <pt x="341" y="433" on="1"/>
      </contour>
      <contour>
        <pt x="363" y="486" on="1"/>
        <pt x="-45" y="529" on="1"/>
        <pt x="381" y="529" on="1"/>
      </contour>
      <contour>
        <pt x="557" y="626" on="1"/>
        <pt x="584" y="626" on="0"/>
        <pt x="599" y="640" on="0"/>
        <pt x="601" y="652" on="1"/>
        <pt x="613" y="719" on="1"/>
        <pt x="576" y="719" on="1"/>
        <pt x="547" y="719" on="0"/>
        <pt x="531" y="705" on="0"/>
        <pt x="529" y="694" on="1"/>
        <pt x="517" y="626" on="1"/>
      </contour>
      <contour>
        <pt x="586" y="788" on="1"/>
        <pt x="679" y="788" on="0"/>
        <pt x="679" y="708" on="1"/>
        <pt x="679" y="634" on="0"/>
        <pt x="609" y="557" on="0"/>
        <pt x="545" y="557" on="1"/>
        <pt x="452" y="557" on="0"/>
        <pt x="452" y="637" on="1"/>
        <pt x="452" y="711" on="0"/>
        <pt x="522" y="788" on="0"/>
      </contour>
      <contour>
        <pt x="425" y="677" on="1"/>
        <pt x="127" y="723" on="1"/>
        <pt x="435" y="723" on="1"/>
        <pt x="427" y="697" on="0"/>
      </contour>
      <contour>
        <pt x="422" y="637" on="1"/>
        <pt x="422" y="616" on="0"/>
        <pt x="427" y="598" on="1"/>
        <pt x="129" y="644" on="1"/>
        <pt x="422" y="644" on="1"/>
      </contour>
    </TTGlyph>
    <TTGlyph name="asciicircum" xMin="62" yMin="218" xMax="528" yMax="587">
      <contour>
        <pt x="528" y="262" on="1"/>
        <pt x="392" y="218" on="1"/>
        <pt x="329" y="442" on="1"/>
        <pt x="323" y="442" on="1"/>
        <pt x="181" y="218" on="1"/>
        <pt x="62" y="262" on="1"/>
        <pt x="265" y="587" on="1"/>
        <pt x="438" y="587" on="1"/>
      </contour>
    </TTGlyph>
    <TTGlyph name="asciitilde" xMin="23" yMin="202" xMax="578" yMax="423">
      <contour>
        <pt x="383" y="203" on="1"/>
        <pt x="348" y="203" on="0"/>
        <pt x="282" y="236" on="0"/>
        <pt x="231" y="268" on="0"/>
        <pt x="212" y="268" on="1"/>
        <pt x="174" y="268" on="0"/>
        <pt x="108" y="202" on="1"/>
        <pt x="23" y="293" on="1"/>
        <pt x="107" y="390" on="0"/>
        <pt x="163" y="412" on="1"/>
        <pt x="189" y="423" on="0"/>
        <pt x="251" y="423" on="0"/>
        <pt x="360" y="354" on="0"/>
        <pt x="389" y="354" on="1"/>
        <pt x="435" y="354" on="0"/>
        <pt x="492" y="420" on="1"/>
        <pt x="578" y="330" on="1"/>
        <pt x="488" y="203" on="0"/>
      </contour>
    </TTGlyph>
    <TTGlyph name="asterisk" xMin="-180" yMin="196" xMax="603" yMax="665">
      <contour>
        <pt x="129" y="485" on="1"/>
        <pt x="-180" y="529" on="1"/>
        <pt x="150" y="529" on="1"/>
      </contour>
      <contour>
        <pt x="162" y="337" on="1"/>
        <pt x="153" y="325" on="1"/>
        <pt x="137" y="302" on="0"/>
        <pt x="135" y="294" on="1"/>
        <pt x="-169" y="337" on="1"/>
      </contour>
      <contour>
        <pt x="207" y="196" on="1"/>
        <pt x="-114" y="241" on="1"/>
        <pt x="157" y="241" on="1"/>
        <pt x="158" y="239" on="0"/>
      </contour>
      <contour>
        <pt x="148" y="394" on="1"/>
        <pt x="162" y="388" on="1"/>
        <pt x="-157" y="433" on="1"/>
        <pt x="115" y="433" on="1"/>
        <pt x="118" y="405" on="0"/>
      </contour>
      <contour>
        <pt x="569" y="565" on="1"/>
        <pt x="587" y="565" on="0"/>
        <pt x="592" y="538" on="1"/>
        <pt x="602" y="467" on="1"/>
        <pt x="603" y="462" on="0"/>
        <pt x="603" y="453" on="1"/>
        <pt x="603" y="427" on="0"/>
        <pt x="582" y="422" on="1"/>
        <pt x="525" y="406" on="1"/>
        <pt x="435" y="406" on="1"/>
        <pt x="499" y="351" on="1"/>
        <pt x="523" y="304" on="1"/>
        <pt x="525" y="300" on="0"/>
        <pt x="525" y="276" on="0"/>
        <pt x="501" y="260" on="1"/>
        <pt x="437" y="216" on="1"/>
        <pt x="420" y="204" on="0"/>
        <pt x="399" y="204" on="0"/>
        <pt x="392" y="215" on="1"/>
        <pt x="361" y="263" on="1"/>
        <pt x="354" y="345" on="1"/>
        <pt x="315" y="262" on="1"/>
        <pt x="275" y="216" on="1"/>
        <pt x="266" y="205" on="0"/>
        <pt x="243" y="205" on="0"/>
        <pt x="231" y="216" on="1"/>
        <pt x="180" y="260" on="1"/>
        <pt x="165" y="272" on="0"/>
        <pt x="165" y="295" on="0"/>
        <pt x="174" y="304" on="1"/>
        <pt x="215" y="351" on="1"/>
        <pt x="294" y="404" on="1"/>
        <pt x="208" y="404" on="1"/>
        <pt x="159" y="422" on="1"/>
        <pt x="145" y="427" on="0"/>
        <pt x="145" y="450" on="0"/>
        <pt x="153" y="466" on="1"/>
        <pt x="187" y="538" on="1"/>
        <pt x="201" y="567" on="0"/>
        <pt x="217" y="567" on="1"/>
        <pt x="219" y="567" on="0"/>
        <pt x="227" y="565" on="1"/>
        <pt x="278" y="547" on="1"/>
        <pt x="338" y="492" on="1"/>
        <pt x="326" y="580" on="1"/>
        <pt x="336" y="638" on="1"/>
        <pt x="340" y="665" on="0"/>
        <pt x="377" y="665" on="1"/>
        <pt x="449" y="665" on="1"/>
        <pt x="479" y="665" on="0"/>
        <pt x="479" y="644" on="1"/>
        <pt x="479" y="640" on="0"/>
        <pt x="469" y="580" on="1"/>
        <pt x="425" y="491" on="1"/>
        <pt x="507" y="548" on="1"/>
        <pt x="561" y="564" on="1"/>
        <pt x="564" y="565" on="0"/>
      </contour>
    </TTGlyph>
    <TTGlyph name="at" xMin="-220" yMin="-75" xMax="1022" yMax="690">
      <contour>
        <pt x="715" y="221" on="1"/>
        <pt x="747" y="221" on="0"/>
        <pt x="780" y="234" on="0"/>
        <pt x="786" y="257" on="1"/>
        <pt x="797" y="319" on="1"/>
        <pt x="767" y="319" on="1"/>
        <pt x="733" y="319" on="0"/>
        <pt x="697" y="304" on="0"/>
        <pt x="693" y="277" on="1"/>
        <pt x="684" y="221" on="1"/>
      </contour>
      <contour>
        <pt x="871" y="690" on="0"/>
        <pt x="1022" y="615" on="0"/>
        <pt x="1022" y="535" on="1"/>
        <pt x="1022" y="523" on="0"/>
        <pt x="1018" y="497" on="1"/>
        <pt x="947" y="90" on="1"/>
        <pt x="852" y="90" on="1"/>
        <pt x="809" y="153" on="1"/>
        <pt x="739" y="81" on="0"/>
        <pt x="629" y="81" on="1"/>
        <pt x="508" y="81" on="0"/>
        <pt x="508" y="198" on="1"/>
        <pt x="508" y="322" on="0"/>
        <pt x="653" y="440" on="0"/>
        <pt x="780" y="440" on="1"/>
        <pt x="818" y="440" on="1"/>
        <pt x="831" y="513" on="1"/>
        <pt x="784" y="523" on="0"/>
        <pt x="657" y="523" on="0"/>
        <pt x="608" y="520" on="0"/>
        <pt x="545" y="504" on="0"/>
        <pt x="525" y="490" on="1"/>
        <pt x="477" y="455" on="0"/>
        <pt x="464" y="380" on="1"/>
        <pt x="429" y="183" on="1"/>
        <pt x="425" y="164" on="0"/>
        <pt x="425" y="116" on="0"/>
        <pt x="447" y="75" on="0"/>
        <pt x="478" y="54" on="0"/>
        <pt x="505" y="48" on="1"/>
        <pt x="541" y="40" on="0"/>
        <pt x="610" y="40" on="1"/>
        <pt x="789" y="40" on="1"/>
        <pt x="772" y="-54" on="1"/>
        <pt x="669" y="-75" on="0"/>
        <pt x="515" y="-75" on="0"/>
        <pt x="415" y="-60" on="0"/>
        <pt x="326" y="-25" on="0"/>
        <pt x="296" y="4" on="1"/>
        <pt x="231" y="65" on="0"/>
        <pt x="231" y="178" on="1"/>
        <pt x="231" y="208" on="0"/>
        <pt x="240" y="266" on="1"/>
        <pt x="254" y="349" on="1"/>
        <pt x="270" y="446" on="0"/>
        <pt x="355" y="584" on="0"/>
        <pt x="418" y="621" on="1"/>
        <pt x="535" y="690" on="0"/>
      </contour>
      <contour>
        <pt x="213" y="292" on="1"/>
        <pt x="-211" y="337" on="1"/>
        <pt x="221" y="337" on="1"/>
      </contour>
      <contour>
        <pt x="-188" y="433" on="1"/>
        <pt x="243" y="433" on="1"/>
        <pt x="235" y="409" on="0"/>
        <pt x="231" y="388" on="1"/>
      </contour>
      <contour>
        <pt x="205" y="241" on="1"/>
        <pt x="203" y="226" on="0"/>
        <pt x="201" y="196" on="1"/>
        <pt x="-220" y="241" on="1"/>
      </contour>
      <contour>
        <pt x="285" y="529" on="1"/>
        <pt x="269" y="501" on="0"/>
        <pt x="262" y="485" on="1"/>
        <pt x="-138" y="529" on="1"/>
      </contour>
      <contour>
        <pt x="202" y="145" on="1"/>
        <pt x="203" y="128" on="0"/>
        <pt x="209" y="100" on="1"/>
        <pt x="-210" y="145" on="1"/>
      </contour>
      <contour>
        <pt x="226" y="48" on="1"/>
        <pt x="237" y="25" on="0"/>
        <pt x="253" y="5" on="1"/>
        <pt x="-158" y="48" on="1"/>
      </contour>
    </TTGlyph>
    <TTGlyph name="atilde" xMin="-250" yMin="0" xMax="753" yMax="751">
      <contour>
        <pt x="526" y="0" on="1"/>
        <pt x="522" y="81" on="1"/>
        <pt x="396" y="81" on="1"/>
        <pt x="365" y="0" on="1"/>
        <pt x="192" y="0" on="1"/>
        <pt x="414" y="529" on="1"/>
        <pt x="662" y="529" on="1"/>
        <pt x="701" y="0" on="1"/>
      </contour>
      <contour>
        <pt x="522" y="224" on="1"/>
        <pt x="522" y="376" on="1"/>
        <pt x="508" y="376" on="1"/>
        <pt x="449" y="224" on="1"/>
      </contour>
      <contour>
        <pt x="160" y="4" on="1"/>
        <pt x="-250" y="48" on="1"/>
        <pt x="179" y="48" on="1"/>
      </contour>
      <contour>
        <pt x="201" y="101" on="1"/>
        <pt x="-209" y="145" on="1"/>
        <pt x="220" y="145" on="1"/>
      </contour>
      <contour>
        <pt x="242" y="197" on="1"/>
        <pt x="-168" y="241" on="1"/>
        <pt x="260" y="241" on="1"/>
      </contour>
      <contour>
        <pt x="282" y="293" on="1"/>
        <pt x="-127" y="337" on="1"/>
        <pt x="301" y="337" on="1"/>
      </contour>
      <contour>
        <pt x="323" y="389" on="1"/>
        <pt x="-86" y="433" on="1"/>
        <pt x="341" y="433" on="1"/>
      </contour>
      <contour>
        <pt x="363" y="486" on="1"/>
        <pt x="-45" y="529" on="1"/>
        <pt x="381" y="529" on="1"/>
      </contour>
      <contour>
        <pt x="634" y="706" on="1"/>
        <pt x="720" y="746" on="1"/>
        <pt x="753" y="665" on="1"/>
        <pt x="624" y="584" on="0"/>
        <pt x="595" y="573" on="0"/>
        <pt x="570" y="573" on="0"/>
        <pt x="554" y="577" on="0"/>
        <pt x="538" y="588" on="0"/>
        <pt x="533" y="592" on="1"/>
        <pt x="525" y="597" on="0"/>
        <pt x="504" y="618" on="1"/>
        <pt x="419" y="578" on="1"/>
        <pt x="385" y="659" on="1"/>
        <pt x="514" y="740" on="0"/>
        <pt x="543" y="751" on="0"/>
        <pt x="568" y="751" on="0"/>
        <pt x="584" y="747" on="0"/>
        <pt x="600" y="736" on="0"/>
        <pt x="605" y="732" on="1"/>
        <pt x="613" y="727" on="0"/>
      </contour>
      <contour>
        <pt x="431" y="723" on="1"/>
        <pt x="359" y="677" on="1"/>
        <pt x="65" y="723" on="1"/>
      </contour>
      <contour>
        <pt x="359" y="644" on="1"/>
        <pt x="378" y="598" on="1"/>
        <pt x="65" y="644" on="1"/>
      </contour>
    </TTGlyph>
    <TTGlyph name="b" xMin="-252" yMin="0" xMax="680" yMax="529">
      <contour>
        <pt x="566" y="529" on="1"/>
        <pt x="680" y="529" on="0"/>
        <pt x="680" y="435" on="1"/>
        <pt x="680" y="383" on="0"/>
        <pt x="631" y="299" on="0"/>
        <pt x="596" y="283" on="1"/>
        <pt x="595" y="277" on="1"/>
        <pt x="661" y="256" on="0"/>
        <pt x="661" y="186" on="1"/>
        <pt x="661" y="98" on="0"/>
        <pt x="566" y="0" on="0"/>
        <pt x="470" y="0" on="1"/>
        <pt x="204" y="0" on="1"/>
        <pt x="296" y="529" on="1"/>
      </contour>
      <contour>
        <pt x="470" y="205" on="1"/>
        <pt x="408" y="205" on="1"/>
        <pt x="395" y="131" on="1"/>
        <pt x="457" y="131" on="1"/>
        <pt x="492" y="131" on="0"/>
        <pt x="492" y="182" on="1"/>
        <pt x="492" y="205" on="0"/>
      </contour>
      <contour>
        <pt x="496" y="402" on="1"/>
        <pt x="442" y="402" on="1"/>
        <pt x="431" y="338" on="1"/>
        <pt x="486" y="338" on="1"/>
        <pt x="516" y="338" on="0"/>
        <pt x="516" y="382" on="1"/>
        <pt x="516" y="402" on="0"/>
      </contour>
      <contour>
        <pt x="172" y="3" on="1"/>
        <pt x="-252" y="48" on="1"/>
        <pt x="180" y="48" on="1"/>
      </contour>
      <contour>
        <pt x="206" y="196" on="1"/>
        <pt x="-218" y="241" on="1"/>
        <pt x="214" y="241" on="1"/>
      </contour>
      <contour>
        <pt x="223" y="292" on="1"/>
        <pt x="-201" y="337" on="1"/>
        <pt x="231" y="337" on="1"/>
      </contour>
      <contour>
        <pt x="240" y="388" on="1"/>
        <pt x="-184" y="433" on="1"/>
        <pt x="248" y="433" on="1"/>
      </contour>
      <contour>
        <pt x="257" y="484" on="1"/>
        <pt x="-167" y="529" on="1"/>
        <pt x="264" y="529" on="1"/>
      </contour>
      <contour>
        <pt x="189" y="100" on="1"/>
        <pt x="-235" y="145" on="1"/>
        <pt x="197" y="145" on="1"/>
      </contour>
    </TTGlyph>
    <TTGlyph name="backslash" xMin="0" yMin="-40" xMax="503" yMax="665">
      <contour>
        <pt x="71" y="665" on="1"/>
        <pt x="90" y="665" on="0"/>
        <pt x="106" y="654" on="0"/>
        <pt x="114" y="640" on="1"/>
        <pt x="503" y="-40" on="1"/>
        <pt x="432" y="-40" on="1"/>
        <pt x="413" y="-40" on="0"/>
        <pt x="397" y="-29" on="0"/>
        <pt x="389" y="-15" on="1"/>
        <pt x="0" y="665" on="1"/>
      </contour>
    </TTGlyph>
    <TTGlyph name="bar" xMin="-253" yMin="-79" xMax="439" yMax="704">
      <contour>
        <pt x="187" y="-79" on="1"/>
        <pt x="325" y="704" on="1"/>
        <pt x="439" y="704" on="1"/>
        <pt x="301" y="-79" on="1"/>
      </contour>
      <contour>
        <pt x="171" y="3" on="1"/>
        <pt x="-253" y="48" on="1"/>
        <pt x="179" y="48" on="1"/>
      </contour>
      <contour>
        <pt x="205" y="196" on="1"/>
        <pt x="-219" y="241" on="1"/>
        <pt x="213" y="241" on="1"/>
      </contour>
      <contour>
        <pt x="222" y="292" on="1"/>
        <pt x="-202" y="337" on="1"/>
        <pt x="230" y="337" on="1"/>
      </contour>
      <contour>
        <pt x="239" y="388" on="1"/>
        <pt x="-185" y="433" on="1"/>
        <pt x="247" y="433" on="1"/>
      </contour>
      <contour>
        <pt x="256" y="484" on="1"/>
        <pt x="-168" y="529" on="1"/>
        <pt x="263" y="529" on="1"/>
      </contour>
      <contour>
        <pt x="188" y="100" on="1"/>
        <pt x="-236" y="145" on="1"/>
        <pt x="196" y="145" on="1"/>
      </contour>
      <contour>
        <pt x="272" y="580" on="1"/>
        <pt x="-151" y="625" on="1"/>
        <pt x="280" y="625" on="1"/>
      </contour>
    </TTGlyph>
    <TTGlyph name="braceleft" xMin="-250" yMin="-76" xMax="562" yMax="680">
      <contour>
        <pt x="207" y="10" on="1"/>
        <pt x="207" y="18" on="0"/>
        <pt x="260" y="229" on="1"/>
        <pt x="200" y="245" on="1"/>
        <pt x="220" y="357" on="1"/>
        <pt x="285" y="373" on="1"/>
        <pt x="306" y="575" on="1"/>
        <pt x="314" y="647" on="0"/>
        <pt x="393" y="666" on="1"/>
        <pt x="434" y="675" on="0"/>
        <pt x="503" y="680" on="0"/>
        <pt x="562" y="680" on="1"/>
        <pt x="545" y="533" on="1"/>
        <pt x="542" y="533" on="0"/>
        <pt x="465" y="526" on="1"/>
        <pt x="453" y="409" on="1"/>
        <pt x="448" y="366" on="0"/>
        <pt x="415" y="322" on="0"/>
        <pt x="387" y="307" on="1"/>
        <pt x="385" y="295" on="1"/>
        <pt x="422" y="267" on="0"/>
        <pt x="422" y="218" on="1"/>
        <pt x="422" y="201" on="0"/>
        <pt x="415" y="175" on="1"/>
        <pt x="386" y="78" on="1"/>
        <pt x="464" y="71" on="1"/>
        <pt x="429" y="-76" on="1"/>
        <pt x="330" y="-76" on="0"/>
        <pt x="240" y="-56" on="0"/>
        <pt x="207" y="-19" on="0"/>
      </contour>
      <contour>
        <pt x="177" y="3" on="1"/>
        <pt x="-250" y="48" on="1"/>
        <pt x="183" y="48" on="1"/>
        <pt x="177" y="26" on="0"/>
      </contour>
      <contour>
        <pt x="220" y="196" on="1"/>
        <pt x="-216" y="241" on="1"/>
        <pt x="169" y="241" on="1"/>
        <pt x="166" y="223" on="1"/>
        <pt x="223" y="208" on="1"/>
      </contour>
      <contour>
        <pt x="178" y="292" on="1"/>
        <pt x="-199" y="337" on="1"/>
        <pt x="186" y="337" on="1"/>
      </contour>
      <contour>
        <pt x="258" y="397" on="1"/>
        <pt x="232" y="391" on="1"/>
        <pt x="-182" y="433" on="1"/>
        <pt x="262" y="433" on="1"/>
      </contour>
      <contour>
        <pt x="267" y="484" on="1"/>
        <pt x="-165" y="529" on="1"/>
        <pt x="271" y="529" on="1"/>
      </contour>
      <contour>
        <pt x="196" y="100" on="1"/>
        <pt x="-233" y="145" on="1"/>
        <pt x="207" y="145" on="1"/>
      </contour>
      <contour>
        <pt x="276" y="580" on="1"/>
        <pt x="-148" y="625" on="1"/>
        <pt x="292" y="625" on="1"/>
        <pt x="280" y="610" on="0"/>
      </contour>
    </TTGlyph>
    <TTGlyph name="braceright" xMin="-210" yMin="-76" xMax="522" yMax="680">
      <contour>
        <pt x="515" y="594" on="1"/>
        <pt x="515" y="586" on="0"/>
        <pt x="462" y="375" on="1"/>
        <pt x="522" y="359" on="1"/>
        <pt x="502" y="247" on="1"/>
        <pt x="437" y="231" on="1"/>
        <pt x="416" y="29" on="1"/>
        <pt x="408" y="-43" on="0"/>
        <pt x="329" y="-62" on="1"/>
        <pt x="288" y="-71" on="0"/>
        <pt x="219" y="-76" on="0"/>
        <pt x="160" y="-76" on="1"/>
        <pt x="177" y="71" on="1"/>
        <pt x="257" y="78" on="1"/>
        <pt x="269" y="195" on="1"/>
        <pt x="274" y="238" on="0"/>
        <pt x="307" y="282" on="0"/>
        <pt x="335" y="297" on="1"/>
        <pt x="337" y="309" on="1"/>
        <pt x="300" y="337" on="0"/>
        <pt x="300" y="386" on="1"/>
        <pt x="300" y="403" on="0"/>
        <pt x="307" y="429" on="1"/>
        <pt x="336" y="526" on="1"/>
        <pt x="258" y="533" on="1"/>
        <pt x="293" y="680" on="1"/>
        <pt x="392" y="680" on="0"/>
        <pt x="482" y="660" on="0"/>
        <pt x="515" y="623" on="0"/>
      </contour>
      <contour>
        <pt x="139" y="3" on="1"/>
        <pt x="-210" y="48" on="1"/>
        <pt x="144" y="48" on="1"/>
      </contour>
      <contour>
        <pt x="290" y="475" on="1"/>
        <pt x="-125" y="529" on="1"/>
        <pt x="226" y="529" on="1"/>
        <pt x="221" y="506" on="1"/>
        <pt x="297" y="499" on="1"/>
      </contour>
      <contour>
        <pt x="239" y="580" on="1"/>
        <pt x="-108" y="625" on="1"/>
        <pt x="249" y="625" on="1"/>
      </contour>
      <contour>
        <pt x="300" y="302" on="1"/>
        <pt x="286" y="293" on="1"/>
        <pt x="-159" y="337" on="1"/>
        <pt x="279" y="337" on="1"/>
        <pt x="287" y="317" on="0"/>
      </contour>
      <contour>
        <pt x="239" y="197" on="1"/>
        <pt x="-176" y="241" on="1"/>
        <pt x="248" y="241" on="1"/>
        <pt x="240" y="218" on="0"/>
      </contour>
      <contour>
        <pt x="230" y="106" on="1"/>
        <pt x="-193" y="145" on="1"/>
        <pt x="234" y="145" on="1"/>
      </contour>
      <contour>
        <pt x="270" y="388" on="1"/>
        <pt x="-142" y="433" on="1"/>
        <pt x="277" y="433" on="1"/>
        <pt x="270" y="407" on="0"/>
      </contour>
    </TTGlyph>
    <TTGlyph name="bracketleft" xMin="-250" yMin="-76" xMax="562" yMax="680">
      <contour>
        <pt x="207" y="10" on="1"/>
        <pt x="207" y="15" on="0"/>
        <pt x="209" y="29" on="1"/>
        <pt x="306" y="575" on="1"/>
        <pt x="318" y="637" on="0"/>
        <pt x="376" y="658" on="1"/>
        <pt x="434" y="680" on="0"/>
        <pt x="562" y="680" on="1"/>
        <pt x="545" y="533" on="1"/>
        <pt x="542" y="533" on="0"/>
        <pt x="465" y="526" on="1"/>
        <pt x="386" y="78" on="1"/>
        <pt x="464" y="71" on="1"/>
        <pt x="429" y="-76" on="1"/>
        <pt x="330" y="-76" on="0"/>
        <pt x="240" y="-56" on="0"/>
        <pt x="207" y="-19" on="0"/>
      </contour>
      <contour>
        <pt x="177" y="3" on="1"/>
        <pt x="-250" y="48" on="1"/>
        <pt x="182" y="48" on="1"/>
        <pt x="177" y="29" on="0"/>
      </contour>
      <contour>
        <pt x="208" y="196" on="1"/>
        <pt x="-216" y="241" on="1"/>
        <pt x="216" y="241" on="1"/>
      </contour>
      <contour>
        <pt x="225" y="292" on="1"/>
        <pt x="-199" y="337" on="1"/>
        <pt x="233" y="337" on="1"/>
      </contour>
      <contour>
        <pt x="242" y="388" on="1"/>
        <pt x="-182" y="433" on="1"/>
        <pt x="250" y="433" on="1"/>
      </contour>
      <contour>
        <pt x="259" y="484" on="1"/>
        <pt x="-165" y="529" on="1"/>
        <pt x="266" y="529" on="1"/>
      </contour>
      <contour>
        <pt x="191" y="100" on="1"/>
        <pt x="-233" y="145" on="1"/>
        <pt x="199" y="145" on="1"/>
      </contour>
      <contour>
        <pt x="275" y="580" on="1"/>
        <pt x="-148" y="625" on="1"/>
        <pt x="295" y="625" on="1"/>
        <pt x="279" y="610" on="0"/>
      </contour>
    </TTGlyph>
    <TTGlyph name="bracketright" xMin="-210" yMin="-76" xMax="515" yMax="680">
      <contour>
        <pt x="515" y="594" on="1"/>
        <pt x="515" y="589" on="0"/>
        <pt x="513" y="575" on="1"/>
        <pt x="416" y="29" on="1"/>
        <pt x="408" y="-21" on="0"/>
        <pt x="368" y="-43" on="1"/>
        <pt x="328" y="-66" on="0"/>
        <pt x="287" y="-70" on="1"/>
        <pt x="225" y="-76" on="0"/>
        <pt x="160" y="-76" on="1"/>
        <pt x="177" y="71" on="1"/>
        <pt x="257" y="78" on="1"/>
        <pt x="336" y="526" on="1"/>
        <pt x="261" y="533" on="0"/>
        <pt x="258" y="533" on="1"/>
        <pt x="293" y="680" on="1"/>
        <pt x="392" y="680" on="0"/>
        <pt x="482" y="660" on="0"/>
        <pt x="515" y="623" on="0"/>
      </contour>
      <contour>
        <pt x="139" y="3" on="1"/>
        <pt x="-210" y="48" on="1"/>
        <pt x="144" y="48" on="1"/>
      </contour>
      <contour>
        <pt x="247" y="196" on="1"/>
        <pt x="-176" y="241" on="1"/>
        <pt x="255" y="241" on="1"/>
      </contour>
      <contour>
        <pt x="264" y="292" on="1"/>
        <pt x="-159" y="337" on="1"/>
        <pt x="272" y="337" on="1"/>
      </contour>
      <contour>
        <pt x="280" y="388" on="1"/>
        <pt x="-142" y="433" on="1"/>
        <pt x="288" y="433" on="1"/>
      </contour>
      <contour>
        <pt x="217" y="484" on="1"/>
        <pt x="-125" y="529" on="1"/>
        <pt x="227" y="529" on="1"/>
      </contour>
      <contour>
        <pt x="230" y="100" on="1"/>
        <pt x="-193" y="145" on="1"/>
        <pt x="238" y="145" on="1"/>
      </contour>
      <contour>
        <pt x="239" y="580" on="1"/>
        <pt x="-108" y="625" on="1"/>
        <pt x="249" y="625" on="1"/>
      </contour>
    </TTGlyph>
    <TTGlyph name="breve" xMin="-369" yMin="580" xMax="365" yMax="734">
      <contour>
        <pt x="57" y="603" on="1"/>
        <pt x="-341" y="642" on="1"/>
        <pt x="28" y="642" on="1"/>
        <pt x="45" y="614" on="0"/>
      </contour>
      <contour>
        <pt x="9" y="723" on="1"/>
        <pt x="11" y="709" on="0"/>
        <pt x="17" y="685" on="1"/>
        <pt x="-369" y="723" on="1"/>
      </contour>
      <contour>
        <pt x="174" y="679" on="0"/>
        <pt x="216" y="679" on="0"/>
        <pt x="256" y="708" on="0"/>
        <pt x="267" y="734" on="1"/>
        <pt x="365" y="719" on="1"/>
        <pt x="338" y="652" on="0"/>
        <pt x="234" y="580" on="0"/>
        <pt x="121" y="580" on="0"/>
        <pt x="43" y="652" on="0"/>
        <pt x="40" y="719" on="1"/>
        <pt x="144" y="734" on="1"/>
        <pt x="145" y="708" on="0"/>
      </contour>
    </TTGlyph>
    <TTGlyph name="brokenbar" xMin="-253" yMin="-79" xMax="439" yMax="704">
      <contour>
        <pt x="279" y="447" on="1"/>
        <pt x="325" y="704" on="1"/>
        <pt x="439" y="704" on="1"/>
        <pt x="393" y="447" on="1"/>
      </contour>
      <contour>
        <pt x="187" y="-79" on="1"/>
        <pt x="228" y="156" on="1"/>
        <pt x="342" y="156" on="1"/>
        <pt x="301" y="-79" on="1"/>
      </contour>
      <contour>
        <pt x="171" y="3" on="1"/>
        <pt x="-253" y="48" on="1"/>
        <pt x="179" y="48" on="1"/>
      </contour>
      <contour>
        <pt x="256" y="484" on="1"/>
        <pt x="-168" y="529" on="1"/>
        <pt x="263" y="529" on="1"/>
      </contour>
      <contour>
        <pt x="188" y="100" on="1"/>
        <pt x="-236" y="145" on="1"/>
        <pt x="196" y="145" on="1"/>
      </contour>
      <contour>
        <pt x="272" y="580" on="1"/>
        <pt x="-151" y="625" on="1"/>
        <pt x="280" y="625" on="1"/>
      </contour>
    </TTGlyph>
    <TTGlyph name="bullet" xMin="-250" yMin="100" xMax="484" yMax="388">
      <contour>
        <pt x="174" y="196" on="1"/>
        <pt x="-250" y="241" on="1"/>
        <pt x="176" y="241" on="1"/>
        <pt x="174" y="211" on="0"/>
      </contour>
      <contour>
        <pt x="204" y="337" on="1"/>
        <pt x="193" y="314" on="0"/>
        <pt x="186" y="293" on="1"/>
        <pt x="-227" y="337" on="1"/>
      </contour>
      <contour>
        <pt x="218" y="100" on="1"/>
        <pt x="-206" y="145" on="1"/>
        <pt x="181" y="145" on="1"/>
        <pt x="191" y="117" on="0"/>
      </contour>
      <contour>
        <pt x="204" y="195" on="1"/>
        <pt x="204" y="388" on="0"/>
        <pt x="370" y="388" on="1"/>
        <pt x="433" y="388" on="0"/>
        <pt x="484" y="349" on="0"/>
        <pt x="484" y="305" on="1"/>
        <pt x="484" y="214" on="0"/>
        <pt x="412" y="112" on="0"/>
        <pt x="321" y="112" on="1"/>
        <pt x="256" y="112" on="0"/>
        <pt x="204" y="150" on="0"/>
      </contour>
    </TTGlyph>
</ttFont>
